<svg xmlns="http://www.w3.org/2000/svg" xmlns:xlink="http://www.w3.org/1999/xlink" width="324" height="96" fill="#000" fill-opacity="1" stroke="#000" stroke-dasharray="none" stroke-dashoffset="0" stroke-linecap="square" stroke-linejoin="miter" stroke-miterlimit="10" stroke-opacity="1" stroke-width="1" color-interpolation="auto" color-rendering="auto" font-family="'Dialog'" font-size="12" font-style="normal" font-weight="normal" image-rendering="auto" shape-rendering="auto" text-rendering="auto"><g><defs id="1716610852816-defs1"><clipPath id="1716610852829-clipPath1" clipPathUnits="userSpaceOnUse"><path d="M0 0 L324 0 L324 96 L0 96 L0 0 Z"/></clipPath><clipPath id="1716610852762-clipPath1" clipPathUnits="userSpaceOnUse"><path d="M-171.8516 -8.7755 L152.1484 -8.7755 L152.1484 87.2245 L-171.8516 87.2245 L-171.8516 -8.7755 Z"/></clipPath><clipPath id="1716610852271-clipPath1" clipPathUnits="userSpaceOnUse"><path d="M-139.2577 -8.7755 L184.7423 -8.7755 L184.7423 87.2245 L-139.2577 87.2245 L-139.2577 -8.7755 Z"/></clipPath><clipPath id="1716610852181-clipPath1" clipPathUnits="userSpaceOnUse"><path d="M-11.3869 -68.8875 L312.6131 -68.8875 L312.6131 27.1125 L-11.3869 27.1125 L-11.3869 -68.8875 Z"/></clipPath><clipPath id="1716610852352-clipPath1" clipPathUnits="userSpaceOnUse"><path d="M-286.6131 -68.8875 L37.3869 -68.8875 L37.3869 27.1125 L-286.6131 27.1125 L-286.6131 -68.8875 Z"/></clipPath></defs><g text-rendering="geometricPrecision"><path stroke="none" d="M183.9574 41.2741 L183.9574 41.2741 L161.722 57.4291 C161.5235 57.5732 161.2458 57.5292 161.1017 57.3308 C160.9575 57.1324 161.0015 56.8547 161.1999 56.7105 L161.1999 56.7105 L183.4354 40.5555 C183.6338 40.4114 183.9115 40.4553 184.0557 40.6538 C184.1998 40.8522 184.1558 41.1299 183.9574 41.2741 Z" clip-path="url(#1716610852829-clipPath1)"/></g><g text-rendering="geometricPrecision"><path stroke="none" d="M161.1999 57.4291 C161.3983 57.5732 161.6761 57.5292 161.8202 57.3308 C161.9644 57.1324 161.9204 56.8547 161.722 56.7105 L139.4865 40.5555 C139.2881 40.4114 139.0104 40.4553 138.8662 40.6538 C138.722 40.8522 138.766 41.1299 138.9645 41.2741 ZM160.8406 53.4913 C161.039 53.6355 161.3168 53.5915 161.4609 53.3931 C161.6051 53.1947 161.5611 52.9169 161.3627 52.7728 L143.3425 39.6804 C143.1441 39.5362 142.8664 39.5802 142.7222 39.7786 C142.5781 39.9771 142.6221 40.2548 142.8205 40.3989 Z" clip-path="url(#1716610852829-clipPath1)"/></g><g text-rendering="geometricPrecision"><path stroke="none" d="M179.64 39.4935 C179.7158 39.7268 179.9664 39.8544 180.1996 39.7786 C180.4329 39.7028 180.5605 39.4523 180.4848 39.219 L174.7302 21.5082 C174.6544 21.2749 174.4038 21.1473 174.1706 21.2231 C173.9373 21.2989 173.8096 21.5494 173.8854 21.7827 ZM183.274 41.052 C183.3498 41.2853 183.6004 41.4129 183.8336 41.3372 C184.0669 41.2614 184.1945 41.0108 184.1187 40.7776 L177.5591 20.589 C177.4833 20.3558 177.2328 20.2281 176.9995 20.3039 C176.7662 20.3797 176.6386 20.6302 176.7144 20.8635 Z" clip-path="url(#1716610852829-clipPath1)"/></g><g text-rendering="geometricPrecision"><path stroke="none" d="M138.8031 40.7776 L138.8031 40.7776 L145.221 21.0254 C145.2968 20.7922 145.5473 20.6645 145.7806 20.7403 C146.0138 20.8161 146.1415 21.0666 146.0657 21.2999 L146.0657 21.2999 L139.6478 41.052 C139.5721 41.2853 139.3215 41.4129 139.0883 41.3372 C138.855 41.2614 138.7273 41.0108 138.8031 40.7776 Z" clip-path="url(#1716610852829-clipPath1)"/></g><g text-rendering="geometricPrecision"><path stroke="none" d="M153.7372 14.3314 L153.7372 14.3314 L170.5753 14.3314 C170.8205 14.3314 171.0194 14.5302 171.0194 14.7755 C171.0194 15.0207 170.8205 15.2195 170.5753 15.2195 L170.5753 15.2195 L153.7372 15.2195 C153.492 15.2195 153.2931 15.0207 153.2931 14.7755 C153.2931 14.5302 153.492 14.3314 153.7372 14.3314 Z" clip-path="url(#1716610852829-clipPath1)"/></g><g text-rendering="geometricPrecision"><path stroke="none" d="M183.8336 40.4924 L183.8336 40.4924 L209.973 48.9856 C210.2062 49.0614 210.3339 49.312 210.2581 49.5452 C210.1823 49.7785 209.9317 49.9061 209.6985 49.8303 L209.6985 49.8303 L183.5592 41.3372 C183.3259 41.2614 183.1982 41.0108 183.274 40.7776 C183.3498 40.5443 183.6004 40.4166 183.8336 40.4924 Z" clip-path="url(#1716610852829-clipPath1)"/></g><g text-rendering="geometricPrecision"><path stroke="none" d="M139.3627 41.3372 L139.3627 41.3372 L113.2234 49.8303 C112.9901 49.9061 112.7396 49.7785 112.6638 49.5452 C112.588 49.312 112.7157 49.0614 112.9489 48.9856 L112.9489 48.9856 L139.0883 40.4924 C139.3215 40.4166 139.5721 40.5443 139.6478 40.7776 C139.7236 41.0108 139.596 41.2614 139.3627 41.3372 Z" clip-path="url(#1716610852829-clipPath1)"/></g><g text-rendering="geometricPrecision"><path stroke="none" d="M92.7984 31.4396 L92.7984 31.4396 L66.6591 39.9328 C66.4258 40.0086 66.1753 39.8809 66.0995 39.6477 C66.0237 39.4144 66.1513 39.1639 66.3846 39.0881 L66.3846 39.0881 L92.5239 30.5949 C92.7572 30.5191 93.0077 30.6467 93.0835 30.88 C93.1593 31.1133 93.0317 31.3638 92.7984 31.4396 Z" clip-path="url(#1716610852829-clipPath1)"/></g><g text-rendering="geometricPrecision"><path stroke="none" d="M69.4163 42.3354 C69.4673 42.0955 69.3142 41.8597 69.0743 41.8087 C68.8344 41.7577 68.5986 41.9108 68.5476 42.1507 L63.732 64.8063 C63.681 65.0462 63.8341 65.282 64.074 65.333 C64.3139 65.384 64.5498 65.2308 64.6008 64.9909 ZM66.9562 39.6028 C67.0072 39.3629 66.8541 39.127 66.6142 39.076 C66.3743 39.025 66.1384 39.1782 66.0874 39.4181 L60.3731 66.302 C60.3221 66.5419 60.4752 66.7777 60.7151 66.8287 C60.955 66.8797 61.1909 66.7266 61.2419 66.4867 Z" clip-path="url(#1716610852829-clipPath1)"/></g><g text-rendering="geometricPrecision"><path stroke="none" d="M61.1046 66.0643 L61.1046 66.0643 L81.5296 84.4551 C81.7119 84.6192 81.7266 84.9 81.5625 85.0822 C81.3984 85.2645 81.1176 85.2792 80.9353 85.1151 L80.9353 85.1151 L60.5103 66.7244 C60.328 66.5603 60.3133 66.2795 60.4774 66.0972 C60.6416 65.9149 60.9224 65.9002 61.1046 66.0643 Z" clip-path="url(#1716610852829-clipPath1)"/></g><g text-rendering="geometricPrecision"><path stroke="none" d="M107.509 76.7143 C107.7423 76.6385 107.8699 76.3879 107.7942 76.1547 C107.7184 75.9214 107.4678 75.7938 107.2346 75.8696 L81.0952 84.3627 C80.862 84.4385 80.7343 84.6891 80.8101 84.9223 C80.8859 85.1556 81.1364 85.2832 81.3697 85.2074 ZM104.5342 74.5532 C104.7675 74.4775 104.8951 74.2269 104.8193 73.9937 C104.7435 73.7604 104.493 73.6327 104.2597 73.7085 L82.2317 80.8659 C81.9984 80.9417 81.8708 81.1922 81.9466 81.4255 C82.0224 81.6587 82.2729 81.7864 82.5062 81.7106 Z" clip-path="url(#1716610852829-clipPath1)"/></g><g text-rendering="geometricPrecision"><path stroke="none" d="M106.9374 76.1996 L106.9374 76.1996 L112.6518 49.3156 C112.7028 49.0757 112.9386 48.9226 113.1785 48.9736 C113.4184 49.0246 113.5715 49.2604 113.5205 49.5003 L113.5205 49.5003 L107.8062 76.3842 C107.7552 76.6241 107.5194 76.7773 107.2795 76.7263 C107.0396 76.6753 106.8864 76.4395 106.9374 76.1996 Z" clip-path="url(#1716610852829-clipPath1)"/></g><g text-rendering="geometricPrecision"><path stroke="none" d="M109.1924 50.5022 C109.3747 50.6663 109.6555 50.6516 109.8196 50.4694 C109.9837 50.2871 109.969 50.0063 109.7867 49.8422 L92.5742 34.344 C92.392 34.1799 92.1112 34.1946 91.9471 34.3769 C91.7829 34.5591 91.7977 34.8399 91.9799 35.004 ZM112.789 49.738 C112.9713 49.9021 113.2521 49.8874 113.4162 49.7051 C113.5803 49.5229 113.5656 49.2421 113.3833 49.078 L92.9583 30.6872 C92.7761 30.5231 92.4953 30.5378 92.3311 30.7201 C92.167 30.9024 92.1817 31.1832 92.364 31.3473 Z" clip-path="url(#1716610852829-clipPath1)"/></g><g text-rendering="geometricPrecision"><path stroke="none" d="M230.3979 30.5949 C230.1647 30.5191 229.9141 30.6467 229.8383 30.88 C229.7626 31.1133 229.8902 31.3638 230.1235 31.4396 L256.2628 39.9328 C256.4961 40.0086 256.7466 39.8809 256.8224 39.6477 C256.8982 39.4144 256.7705 39.1639 256.5373 39.0881 ZM231.5344 34.0917 C231.3011 34.0159 231.0506 34.1436 230.9748 34.3769 C230.899 34.6101 231.0267 34.8607 231.2599 34.9365 L253.288 42.0938 C253.5213 42.1696 253.7718 42.0419 253.8476 41.8087 C253.9234 41.5754 253.7957 41.3249 253.5625 41.2491 Z" clip-path="url(#1716610852829-clipPath1)"/></g><g text-rendering="geometricPrecision"><path stroke="none" d="M256.8344 39.4181 L256.8344 39.4181 L262.5488 66.302 C262.5998 66.5419 262.4467 66.7777 262.2067 66.8287 C261.9668 66.8797 261.731 66.7266 261.68 66.4867 L261.68 66.4867 L255.9657 39.6028 C255.9147 39.3629 256.0678 39.127 256.3077 39.076 C256.5476 39.025 256.7834 39.1782 256.8344 39.4181 Z" clip-path="url(#1716610852829-clipPath1)"/></g><g text-rendering="geometricPrecision"><path stroke="none" d="M262.4116 66.7244 C262.5938 66.5603 262.6086 66.2795 262.4444 66.0972 C262.2803 65.9149 261.9995 65.9002 261.8173 66.0643 L241.3923 84.4551 C241.21 84.6192 241.1953 84.9 241.3594 85.0822 C241.5235 85.2645 241.8043 85.2792 241.9866 85.1151 ZM258.815 65.9602 C258.9972 65.796 259.0119 65.5152 258.8478 65.333 C258.6837 65.1507 258.4029 65.136 258.2206 65.3001 L241.0082 80.7983 C240.8259 80.9624 240.8112 81.2432 240.9753 81.4255 C241.1394 81.6077 241.4202 81.6225 241.6025 81.4583 Z" clip-path="url(#1716610852829-clipPath1)"/></g><g text-rendering="geometricPrecision"><path stroke="none" d="M241.5522 85.2074 L241.5522 85.2074 L215.4128 76.7143 C215.1796 76.6385 215.0519 76.3879 215.1277 76.1547 C215.2035 75.9214 215.4541 75.7938 215.6873 75.8696 L215.6873 75.8696 L241.8266 84.3627 C242.0599 84.4385 242.1876 84.6891 242.1118 84.9223 C242.036 85.1556 241.7854 85.2832 241.5522 85.2074 Z" clip-path="url(#1716610852829-clipPath1)"/></g><g text-rendering="geometricPrecision"><path stroke="none" d="M209.5386 49.078 L209.5386 49.078 L229.9636 30.6872 C230.1458 30.5231 230.4266 30.5378 230.5907 30.7201 C230.7549 30.9024 230.7401 31.1832 230.5579 31.3473 L230.5579 31.3473 L210.1329 49.738 C209.9506 49.9021 209.6698 49.8874 209.5057 49.7051 C209.3416 49.5229 209.3563 49.2421 209.5386 49.078 Z" clip-path="url(#1716610852829-clipPath1)"/></g><g text-rendering="geometricPrecision"><path stroke="none" d="M213.629 50.8114 C213.578 50.5715 213.3422 50.4184 213.1023 50.4694 C212.8624 50.5203 212.7092 50.7562 212.7602 50.9961 L217.5758 73.6516 C217.6268 73.8915 217.8626 74.0447 218.1025 73.9937 C218.3425 73.9427 218.4956 73.7068 218.4446 73.4669 ZM210.2701 49.3156 C210.2191 49.0757 209.9833 48.9226 209.7434 48.9736 C209.5035 49.0246 209.3503 49.2604 209.4013 49.5003 L215.1157 76.3842 C215.1667 76.6241 215.4025 76.7773 215.6424 76.7263 C215.8823 76.6753 216.0355 76.4395 215.9845 76.1996 Z" clip-path="url(#1716610852829-clipPath1)"/></g><g text-rendering="geometricPrecision"><path stroke="none" d="M60.9447 66.8167 L60.9447 66.8167 L40.7414 73.3812 C40.5081 73.457 40.2576 73.3293 40.1818 73.096 C40.106 72.8628 40.2337 72.6122 40.4669 72.5364 L40.4669 72.5364 L60.6702 65.972 C60.9035 65.8962 61.154 66.0239 61.2298 66.2571 C61.3056 66.4904 61.178 66.7409 60.9447 66.8167 Z" clip-path="url(#1716610852829-clipPath1)"/></g><g text-rendering="geometricPrecision"><path stroke="none" d="M262.2516 65.972 L262.2516 65.972 L283.4237 72.8512 C283.657 72.927 283.7846 73.1775 283.7088 73.4108 C283.633 73.6441 283.3825 73.7717 283.1492 73.6959 L283.1492 73.6959 L261.9772 66.8167 C261.7439 66.7409 261.6162 66.4904 261.692 66.2571 C261.7679 66.0239 262.0184 65.8962 262.2516 65.972 Z" clip-path="url(#1716610852829-clipPath1)"/></g><g font-family="sans-serif" font-size="9" text-rendering="geometricPrecision"><text x="0" y="10" stroke="none" clip-path="url(#1716610852762-clipPath1)" transform="translate(171.8516,8.7755)" xml:space="preserve">N</text></g><g font-family="sans-serif" font-size="9" text-rendering="geometricPrecision"><text x="0" y="10" stroke="none" clip-path="url(#1716610852271-clipPath1)" transform="translate(139.2577,8.7755)" xml:space="preserve">HN</text></g><g font-family="sans-serif" font-size="9" text-rendering="geometricPrecision"><text x="0" y="10" stroke="none" clip-path="url(#1716610852181-clipPath1)" transform="translate(11.3869,68.8875)" xml:space="preserve">HOOC</text></g><g font-family="sans-serif" font-size="9" text-rendering="geometricPrecision"><text x="0" y="10" stroke="none" clip-path="url(#1716610852352-clipPath1)" transform="translate(286.6131,68.8875)" xml:space="preserve">COOH</text></g></g></svg>