<svg xmlns="http://www.w3.org/2000/svg" xmlns:xlink="http://www.w3.org/1999/xlink" width="309" height="113" fill="#000" fill-opacity="1" stroke="#000" stroke-dasharray="none" stroke-dashoffset="0" stroke-linecap="square" stroke-linejoin="miter" stroke-miterlimit="10" stroke-opacity="1" stroke-width="1" color-interpolation="auto" color-rendering="auto" font-family="'Dialog'" font-size="12" font-style="normal" font-weight="normal" image-rendering="auto" shape-rendering="auto" text-rendering="auto"><g><defs id="1863737677638-defs1"><clipPath id="1863737677208-clipPath1" clipPathUnits="userSpaceOnUse"><path d="M0 0 L309 0 L309 113 L0 113 L0 0 Z"/></clipPath><clipPath id="1863737677157-clipPath1" clipPathUnits="userSpaceOnUse"><path d="M-126.5902 -9.0649 L182.4098 -9.0649 L182.4098 103.9351 L-126.5902 103.9351 L-126.5902 -9.0649 Z"/></clipPath><clipPath id="1863737677725-clipPath1" clipPathUnits="userSpaceOnUse"><path d="M-174.2994 -9.0646 L134.7006 -9.0646 L134.7006 103.9354 L-174.2994 103.9354 L-174.2994 -9.0646 Z"/></clipPath><clipPath id="1863737677297-clipPath1" clipPathUnits="userSpaceOnUse"><path d="M-271.5927 -91.6996 L37.4073 -91.6996 L37.4073 21.3004 L-271.5927 21.3004 L-271.5927 -91.6996 Z"/></clipPath><clipPath id="1863737677598-clipPath1" clipPathUnits="userSpaceOnUse"><path d="M-11.4073 -91.7011 L297.5927 -91.7011 L297.5927 21.2989 L-11.4073 21.2989 L-11.4073 -91.7011 Z"/></clipPath></defs><g text-rendering="geometricPrecision"><path stroke="none" d="M130.3281 42.225 L130.3281 42.225 L154.1828 55.9973 C154.3953 56.12 154.4681 56.3917 154.3454 56.6042 C154.2227 56.8167 153.951 56.8895 153.7385 56.7668 L153.7385 56.7668 L129.8839 42.9945 C129.6714 42.8718 129.5986 42.6001 129.7213 42.3876 C129.8439 42.1751 130.1156 42.1023 130.3281 42.225 Z" clip-path="url(#1863737677208-clipPath1)"/></g><g text-rendering="geometricPrecision"><path stroke="none" d="M153.7385 55.9973 L153.7385 55.9973 L177.593 42.2247 C177.8055 42.102 178.0772 42.1748 178.1999 42.3873 C178.3226 42.5998 178.2498 42.8715 178.0373 42.9942 L178.0373 42.9942 L154.1828 56.7668 C153.9703 56.8895 153.6986 56.8167 153.5759 56.6042 C153.4532 56.3917 153.526 56.12 153.7385 55.9973 Z" clip-path="url(#1863737677208-clipPath1)"/></g><g text-rendering="geometricPrecision"><path stroke="none" d="M175.8804 43.47 C175.8804 43.7154 176.0793 43.9143 176.3246 43.9143 C176.57 43.9143 176.7689 43.7154 176.7689 43.47 L176.7688 21.7342 C176.7688 21.4889 176.5699 21.29 176.3245 21.29 C176.0791 21.29 175.8802 21.4889 175.8802 21.7342 ZM178.8614 43.47 C178.8614 43.7154 179.0603 43.9143 179.3057 43.9143 C179.5511 43.9143 179.75 43.7154 179.75 43.47 L179.7498 21.7342 C179.7498 21.4888 179.5509 21.2899 179.3056 21.2899 C179.0602 21.2899 178.8613 21.4888 178.8613 21.7342 Z" clip-path="url(#1863737677208-clipPath1)"/></g><g text-rendering="geometricPrecision"><path stroke="none" d="M128.1712 43.4703 C128.1712 43.7157 128.3701 43.9146 128.6155 43.9146 C128.8609 43.9146 129.0598 43.7157 129.0598 43.4703 L129.0596 21.7345 C129.0596 21.4892 128.8607 21.2903 128.6153 21.2903 C128.37 21.2903 128.1711 21.4892 128.1711 21.7345 ZM131.1523 43.4703 C131.1523 43.7157 131.3512 43.9146 131.5965 43.9146 C131.8419 43.9146 132.0408 43.7157 132.0408 43.4703 L132.0407 21.7345 C132.0407 21.4891 131.8418 21.2902 131.5964 21.2902 C131.351 21.2902 131.1521 21.4891 131.1521 21.7345 Z" clip-path="url(#1863737677208-clipPath1)"/></g><g text-rendering="geometricPrecision"><path stroke="none" d="M178.0373 42.2247 L178.0373 42.2247 L201.892 55.997 C202.1045 56.1197 202.1773 56.3914 202.0546 56.6039 C201.9319 56.8164 201.6602 56.8892 201.4477 56.7665 L201.4477 56.7665 L177.593 42.9942 C177.3805 42.8715 177.3077 42.5998 177.4304 42.3873 C177.5531 42.1748 177.8248 42.102 178.0373 42.2247 Z" clip-path="url(#1863737677208-clipPath1)"/></g><g text-rendering="geometricPrecision"><path stroke="none" d="M130.3281 42.9945 L130.3281 42.9945 L106.4736 56.7671 C106.2612 56.8898 105.9894 56.817 105.8668 56.6045 C105.7441 56.392 105.8169 56.1203 106.0294 55.9976 L106.0294 55.9976 L129.8839 42.225 C130.0964 42.1023 130.3681 42.1751 130.4908 42.3876 C130.6134 42.6001 130.5406 42.8718 130.3281 42.9945 Z" clip-path="url(#1863737677208-clipPath1)"/></g><g text-rendering="geometricPrecision"><path stroke="none" d="M201.892 83.5425 L201.892 83.5425 L225.7464 97.3153 C225.9589 97.4379 226.0317 97.7097 225.909 97.9221 C225.7863 98.1346 225.5146 98.2074 225.3021 98.0848 L225.3021 98.0848 L201.4477 84.312 C201.2352 84.1893 201.1624 83.9176 201.2851 83.7051 C201.4078 83.4926 201.6795 83.4198 201.892 83.5425 Z" clip-path="url(#1863737677208-clipPath1)"/></g><g text-rendering="geometricPrecision"><path stroke="none" d="M225.6868 93.6509 C225.4744 93.7736 225.4016 94.0453 225.5242 94.2578 C225.6469 94.4703 225.9186 94.5431 226.1311 94.4204 L246.235 82.8131 C246.4475 82.6904 246.5203 82.4187 246.3976 82.2062 C246.2749 81.9937 246.0032 81.9209 245.7907 82.0436 ZM225.3021 97.3153 C225.0896 97.4379 225.0168 97.7097 225.1395 97.9221 C225.2622 98.1346 225.5339 98.2074 225.7464 98.0848 L249.6008 84.312 C249.8133 84.1893 249.8861 83.9176 249.7634 83.7051 C249.6407 83.4926 249.369 83.4198 249.1565 83.5425 Z" clip-path="url(#1863737677208-clipPath1)"/></g><g text-rendering="geometricPrecision"><path stroke="none" d="M248.9344 83.9273 L248.9344 83.9273 L248.9344 56.3818 C248.9344 56.1364 249.1333 55.9375 249.3786 55.9375 C249.624 55.9375 249.8229 56.1364 249.8229 56.3818 L249.8229 56.3818 L249.8229 83.9273 C249.8229 84.1726 249.624 84.3715 249.3786 84.3715 C249.1333 84.3715 248.9344 84.1726 248.9344 83.9273 Z" clip-path="url(#1863737677208-clipPath1)"/></g><g text-rendering="geometricPrecision"><path stroke="none" d="M225.7464 42.2243 C225.5339 42.1016 225.2622 42.1744 225.1395 42.3869 C225.0168 42.5993 225.0896 42.8711 225.3021 42.9937 L249.1565 56.7665 C249.369 56.8892 249.6407 56.8164 249.7634 56.6039 C249.8861 56.3914 249.8133 56.1197 249.6008 55.997 ZM226.1311 45.8886 C225.9186 45.766 225.6469 45.8388 225.5242 46.0512 C225.4016 46.2637 225.4744 46.5354 225.6868 46.6581 L245.7907 58.2654 C246.0032 58.3881 246.2749 58.3153 246.3976 58.1028 C246.5203 57.8903 246.4475 57.6186 246.235 57.496 Z" clip-path="url(#1863737677208-clipPath1)"/></g><g text-rendering="geometricPrecision"><path stroke="none" d="M225.7464 42.9937 L225.7464 42.9937 L201.892 56.7665 C201.6795 56.8892 201.4078 56.8164 201.2851 56.6039 C201.1624 56.3914 201.2352 56.1197 201.4477 55.997 L201.4477 55.997 L225.3021 42.2243 C225.5146 42.1016 225.7863 42.1744 225.909 42.3869 C226.0317 42.5993 225.9589 42.8711 225.7464 42.9937 Z" clip-path="url(#1863737677208-clipPath1)"/></g><g text-rendering="geometricPrecision"><path stroke="none" d="M205.0952 58.5471 C205.0952 58.3017 204.8963 58.1028 204.6509 58.1028 C204.4055 58.1028 204.2066 58.3017 204.2066 58.5471 L204.2066 81.7619 C204.2066 82.0073 204.4055 82.2062 204.6509 82.2062 C204.8963 82.2062 205.0952 82.0073 205.0952 81.7619 ZM202.1141 56.3818 C202.1141 56.1364 201.9152 55.9375 201.6698 55.9375 C201.4245 55.9375 201.2256 56.1364 201.2256 56.3818 L201.2256 83.9273 C201.2256 84.1726 201.4245 84.3715 201.6698 84.3715 C201.9152 84.3715 202.1141 84.1726 202.1141 83.9273 Z" clip-path="url(#1863737677208-clipPath1)"/></g><g text-rendering="geometricPrecision"><path stroke="none" d="M82.6191 42.9947 L82.6191 42.9947 L58.7648 56.7677 C58.5524 56.8904 58.2806 56.8176 58.158 56.6051 C58.0353 56.3926 58.1081 56.1209 58.3206 55.9982 L58.3206 55.9982 L82.1748 42.2252 C82.3873 42.1025 82.659 42.1753 82.7817 42.3878 C82.9044 42.6003 82.8316 42.872 82.6191 42.9947 Z" clip-path="url(#1863737677208-clipPath1)"/></g><g text-rendering="geometricPrecision"><path stroke="none" d="M61.968 58.5483 C61.968 58.3029 61.7691 58.104 61.5238 58.104 C61.2784 58.104 61.0795 58.3029 61.0795 58.5483 L61.0798 81.7631 C61.0798 82.0084 61.2787 82.2074 61.5241 82.2073 C61.7694 82.2073 61.9683 82.0084 61.9683 81.7631 ZM58.987 56.383 C58.987 56.1376 58.7881 55.9387 58.5427 55.9387 C58.2973 55.9387 58.0984 56.1376 58.0984 56.383 L58.0988 83.9285 C58.0988 84.1738 58.2977 84.3727 58.5431 84.3727 C58.7884 84.3727 58.9873 84.1738 58.9873 83.9285 Z" clip-path="url(#1863737677208-clipPath1)"/></g><g text-rendering="geometricPrecision"><path stroke="none" d="M58.7652 83.5437 L58.7652 83.5437 L82.6198 97.3162 C82.8323 97.4389 82.9051 97.7106 82.7824 97.923 C82.6597 98.1355 82.388 98.2083 82.1755 98.0857 L82.1755 98.0857 L58.3209 84.3132 C58.1084 84.1905 58.0356 83.9188 58.1583 83.7063 C58.281 83.4938 58.5527 83.421 58.7652 83.5437 Z" clip-path="url(#1863737677208-clipPath1)"/></g><g text-rendering="geometricPrecision"><path stroke="none" d="M82.5602 93.6518 C82.3477 93.7745 82.2749 94.0462 82.3976 94.2587 C82.5203 94.4712 82.792 94.544 83.0045 94.4213 L103.1082 82.8137 C103.3207 82.691 103.3935 82.4193 103.2708 82.2068 C103.1481 81.9943 102.8764 81.9215 102.6639 82.0442 ZM82.1755 97.3162 C81.963 97.4389 81.8902 97.7106 82.0129 97.9231 C82.1356 98.1355 82.4073 98.2083 82.6198 98.0857 L106.474 84.3126 C106.6865 84.1899 106.7593 83.9182 106.6366 83.7057 C106.5139 83.4932 106.2422 83.4204 106.0297 83.5431 Z" clip-path="url(#1863737677208-clipPath1)"/></g><g text-rendering="geometricPrecision"><path stroke="none" d="M105.8076 83.9279 L105.8076 83.9279 L105.8072 56.3824 C105.8072 56.137 106.0061 55.9381 106.2515 55.9381 C106.4969 55.9381 106.6958 56.137 106.6958 56.3824 L106.6958 56.3824 L106.6961 83.9279 C106.6961 84.1732 106.4972 84.3721 106.2519 84.3721 C106.0065 84.3721 105.8076 84.1732 105.8076 83.9279 Z" clip-path="url(#1863737677208-clipPath1)"/></g><g text-rendering="geometricPrecision"><path stroke="none" d="M82.6191 42.2252 C82.4066 42.1025 82.1349 42.1753 82.0122 42.3878 C81.8895 42.6003 81.9623 42.872 82.1748 42.9947 L106.0294 56.7671 C106.2419 56.8898 106.5136 56.817 106.6363 56.6045 C106.7589 56.392 106.6861 56.1203 106.4736 55.9976 ZM83.0039 45.8895 C82.7914 45.7669 82.5197 45.8397 82.397 46.0522 C82.2743 46.2646 82.3471 46.5364 82.5596 46.659 L102.6636 58.2661 C102.8761 58.3888 103.1478 58.316 103.2705 58.1035 C103.3932 57.891 103.3204 57.6193 103.1079 57.4966 Z" clip-path="url(#1863737677208-clipPath1)"/></g><g text-rendering="geometricPrecision"><path stroke="none" d="M249.6008 83.5425 L249.6008 83.5425 L268.5638 94.4906 C268.7762 94.6133 268.8491 94.885 268.7264 95.0975 C268.6037 95.31 268.332 95.3828 268.1195 95.2601 L268.1195 95.2601 L249.1565 84.312 C248.944 84.1893 248.8712 83.9176 248.9939 83.7051 C249.1166 83.4926 249.3883 83.4198 249.6008 83.5425 Z" clip-path="url(#1863737677208-clipPath1)"/></g><g text-rendering="geometricPrecision"><path stroke="none" d="M58.7652 84.3132 L58.7652 84.3132 L40.67 94.7606 C40.4575 94.8833 40.1858 94.8105 40.0631 94.598 C39.9404 94.3855 40.0132 94.1138 40.2257 93.9911 L40.2257 93.9911 L58.3209 83.5437 C58.5334 83.421 58.8051 83.4938 58.9278 83.7063 C59.0505 83.9188 58.9777 84.1905 58.7652 84.3132 Z" clip-path="url(#1863737677208-clipPath1)"/></g><g font-family="sans-serif" font-size="9" text-rendering="geometricPrecision"><text x="0" y="10" stroke="none" clip-path="url(#1863737677157-clipPath1)" transform="translate(126.5902,9.0649)" xml:space="preserve">O</text></g><g font-family="sans-serif" font-size="9" text-rendering="geometricPrecision"><text x="0" y="10" stroke="none" clip-path="url(#1863737677725-clipPath1)" transform="translate(174.2994,9.0646)" xml:space="preserve">O</text></g><g font-family="sans-serif" font-size="9" text-rendering="geometricPrecision"><text x="0" y="10" stroke="none" clip-path="url(#1863737677297-clipPath1)" transform="translate(271.5927,91.6996)" xml:space="preserve">COOH</text></g><g font-family="sans-serif" font-size="9" text-rendering="geometricPrecision"><text x="0" y="10" stroke="none" clip-path="url(#1863737677598-clipPath1)" transform="translate(11.4073,91.7011)" xml:space="preserve">HOOC</text></g></g></svg>