<?xml version="1.0" encoding="UTF-8" standalone="no"?>
<svg
   color-interpolation="auto"
   color-rendering="auto"
   fill="black"
   fill-opacity="1"
   font-family="'Dialog'"
   font-size="12px"
   font-style="normal"
   font-weight="normal"
   height="600"
   image-rendering="auto"
   shape-rendering="auto"
   stroke="black"
   stroke-dasharray="none"
   stroke-dashoffset="0"
   stroke-linecap="square"
   stroke-linejoin="miter"
   stroke-miterlimit="10"
   stroke-opacity="1"
   stroke-width="1"
   text-rendering="auto"
   width="458"
   version="1.1"
   id="svg154"
   sodipodi:docname="leganti.svg"
   xml:space="preserve"
   inkscape:export-filename="leganti.pdf"
   inkscape:export-xdpi="96"
   inkscape:export-ydpi="96"
   inkscape:version="1.3 (0e150ed6c4, 2023-07-21)"
   xmlns:inkscape="http://www.inkscape.org/namespaces/inkscape"
   xmlns:sodipodi="http://sodipodi.sourceforge.net/DTD/sodipodi-0.dtd"
   xmlns="http://www.w3.org/2000/svg"
   xmlns:svg="http://www.w3.org/2000/svg"><sodipodi:namedview
     id="namedview154"
     pagecolor="#ffffff"
     bordercolor="#000000"
     borderopacity="0.25"
     inkscape:showpageshadow="2"
     inkscape:pageopacity="0.0"
     inkscape:pagecheckerboard="0"
     inkscape:deskcolor="#d1d1d1"
     inkscape:zoom="1.4044691"
     inkscape:cx="270.56488"
     inkscape:cy="268.07283"
     inkscape:window-width="1876"
     inkscape:window-height="1156"
     inkscape:window-x="0"
     inkscape:window-y="0"
     inkscape:window-maximized="1"
     inkscape:current-layer="svg154" /><!--Generated by Marvin with Batik SVG Generator
MolSource:
<?xml version="1.0" encoding="UTF-8"?><cml xmlns="http://www.chemaxon.com" xmlns:xsi="http://www.w3.org/2001/XMLSchema-instance" xsi:schemaLocation="http://www.chemaxon.com/marvin/schema/mrvSchema_20_20_0.xsd" version="ChemAxon file format v20.20.0, generated by v23.4.0">
<MDocument><MTextBox id="o1" color="#000000" toption="NOROT" fontScale="10.0" halign="LEFT" valign="TOP" autoSize="false"><Field name="text"><![CDATA[{D font=SansSerif,size=10}{fg=#000000}DikCN]]></Field><MPoint x="-0.1250" y="15.8333"></MPoint><MPoint x="4.9166" y="15.8333"></MPoint><MPoint x="4.9166" y="13.9167"></MPoint><MPoint x="-0.1250" y="13.9167"></MPoint></MTextBox><MTextBox id="o2" color="#000000" toption="NOROT" fontScale="10.0" halign="LEFT" valign="TOP" autoSize="false"><Field name="text"><![CDATA[{D font=SansSerif,size=10}{fg=#000000}DikBiCN]]></Field><MPoint x="-0.5417" y="7.5000"></MPoint><MPoint x="2.5000" y="7.5000"></MPoint><MPoint x="2.5000" y="6.1667"></MPoint><MPoint x="-0.5417" y="6.1667"></MPoint></MTextBox><MTextBox id="o3" color="#000000" toption="NOROT" fontScale="10.0" halign="LEFT" valign="TOP" autoSize="false"><Field name="text"><![CDATA[{D font=SansSerif,size=10}{fg=#000000}PyrBiCN]]></Field><MPoint x="-0.5000" y="-0.1250"></MPoint><MPoint x="1.9583" y="-0.1250"></MPoint><MPoint x="1.9583" y="-1.7500"></MPoint><MPoint x="-0.5000" y="-1.7500"></MPoint></MTextBox><MChemicalStruct><molecule molID="m1"><atomArray atomID="a1 a2 a3 a4 a5 a6 a7 a8 a9 a10 a11 a12 a13 a14 a15 a16 a17 a18 a19 a20 a21 a22 a23 a24 a25 a26 a27 a28 a29 a30 a31 a32 a33 a34 a35 a36 a37 a38 a39 a40 a41 a42 a43 a44 a45 a46 a47 a48 a49 a50 a51 a52 a53 a54 a55 a56 a57 a58 a59 a60 a61 a62 a63 a64 a65 a66 a67 a68 a69 a70 a71 a72 a73 a74 a75 a76 a77 a78 a79 a80 a81 a82 a83 a84 a85 a86 a87 a88 a89 a90 a91 a92 a93 a94 a95 a96 a97 a98 a99 a100 a101 a102 a103 a104 a105 a106" elementType="C C C C C C C O C C C O C C C C C C N C C C C C C C O C C C O C C C C C C C C C C C C C C C C C C C N N C C C C C C C N C C C N C C C C C C C C C C C C C C C C C C C N N C C C C C C C O C C C O C C C C C C N C N" sgroupRef="0 0 0 0 0 0 0 0 0 0 0 0 0 0 0 0 0 sg1 sg1 0 0 0 0 0 0 0 0 0 0 0 0 0 0 0 0 0 0 0 0 0 0 0 0 0 0 0 0 0 sg2 sg3 sg3 sg2 0 0 0 0 0 0 0 0 0 0 0 0 0 0 0 0 0 0 0 0 0 0 0 0 0 0 0 0 0 sg4 sg5 sg5 sg4 0 0 0 0 0 0 0 0 0 0 0 0 0 0 0 0 0 sg6 sg6 sg7 sg7" attachmentPoint="0 0 0 0 0 0 0 0 0 0 0 0 0 0 0 0 0 1 0 0 0 0 0 0 0 0 0 0 0 0 0 0 0 0 0 0 0 0 0 0 0 0 0 0 0 0 0 0 1 1 0 0 0 0 0 0 0 0 0 0 0 0 0 0 0 0 0 0 0 0 0 0 0 0 0 0 0 0 0 0 0 1 1 0 0 0 0 0 0 0 0 0 0 0 0 0 0 0 0 0 0 0 1 0 1 0" sgroupAttachmentPoint="0 0 0 0 0 0 0 0 0 0 0 0 0 0 0 0 0 1 0 0 0 0 0 0 0 0 0 0 0 0 0 0 0 0 0 0 0 0 0 0 0 0 0 0 0 0 0 0 1 1 0 0 0 0 0 0 0 0 0 0 0 0 0 0 0 0 0 0 0 0 0 0 0 0 0 0 0 0 0 0 0 1 1 0 0 0 0 0 0 0 0 0 0 0 0 0 0 0 0 0 0 0 1 0 1 0" x2="-3.2260 -4.5596 -4.5596 -3.2260 -1.8923 -1.8923 -0.5586 -0.5586 0.7751 2.1087 3.4424 2.1088 4.7761 3.4424 4.7761 6.1098 6.1098 -5.8933 -7.2270 -3.3512 -4.6849 -4.6849 -3.3512 -2.0176 -2.0176 -0.6839 -0.6839 0.6498 1.9835 3.3171 1.9835 4.6508 3.3171 4.6508 5.9845 5.9845 -6.0186 7.3182 -7.3523 -8.6859 -8.6859 -7.3523 -6.0186 8.6518 7.3182 8.6518 9.9855 9.9855 11.3192 -10.0196 -11.3533 12.6529 -3.3512 -4.6849 -4.6849 -3.3512 -2.0176 -2.0176 -0.6839 -0.6839 0.6498 1.9835 3.3171 1.9835 4.6508 3.3171 4.6508 5.9845 5.9845 -6.0186 7.3182 -7.3522 -8.6859 -8.6859 -7.3522 -6.0186 8.6519 7.3182 8.6519 9.9855 9.9855 11.3192 -10.0196 -11.3533 12.6529 -3.3844 -4.7181 -4.7181 -3.3844 -2.0508 -2.0508 -0.7171 -0.7171 0.6166 1.9503 3.2839 1.9503 4.6176 3.2839 4.6176 5.9513 5.9513 -6.0518 -7.3855 7.2850 8.6187" y2="17.6470 16.8770 15.3370 14.5670 15.3370 16.8770 17.6470 19.1870 16.8770 17.6470 16.8770 19.1870 17.6470 15.3369 14.5669 15.3369 16.8770 14.5670 13.7970 9.6324 8.8624 7.3224 6.5524 7.3224 8.8624 9.6324 11.1724 8.8624 9.6324 8.8624 11.1724 9.6324 7.3223 6.5523 7.3223 8.8624 6.5524 6.5523 7.3225 6.5524 5.0124 4.2424 5.0124 7.3224 5.0123 4.2423 5.0123 6.5523 4.2423 4.2424 3.4724 3.4723 1.8401 1.0701 -0.4699 -1.2399 -0.4699 1.0701 1.8401 3.3801 1.0701 1.8401 1.0701 3.3801 1.8401 -0.4700 -1.2400 -0.4700 1.0701 -1.2399 -1.2400 -0.4698 -1.2399 -2.7799 -3.5499 -2.7799 -0.4699 -2.7800 -3.5500 -2.7800 -1.2400 -3.5500 -3.5499 -4.3199 -4.3200 25.8229 25.0529 23.5129 22.7429 23.5129 25.0529 25.8229 27.3629 25.0529 25.8229 25.0529 27.3629 25.8229 23.5128 22.7428 23.5128 25.0529 22.7429 21.9729 22.7428 21.9728"></atomArray><bondArray><bond id="b1" atomRefs2="a1 a2" order="1"></bond><bond id="b2" atomRefs2="a2 a3" order="2"></bond><bond id="b3" atomRefs2="a3 a4" order="1"></bond><bond id="b4" atomRefs2="a4 a5" order="2"></bond><bond id="b5" atomRefs2="a5 a6" order="1"></bond><bond id="b6" atomRefs2="a1 a6" order="2"></bond><bond id="b7" atomRefs2="a6 a7" order="1"></bond><bond id="b8" atomRefs2="a7 a8" order="2"></bond><bond id="b9" atomRefs2="a7 a9" order="1"></bond><bond id="b10" atomRefs2="a9 a10" order="2"><bondStereo>T</bondStereo></bond><bond id="b11" atomRefs2="a10 a11" order="1"></bond><bond id="b12" atomRefs2="a10 a12" order="1"></bond><bond id="b13" atomRefs2="a14 a15" order="1"></bond><bond id="b14" atomRefs2="a15 a16" order="2"></bond><bond id="b15" atomRefs2="a16 a17" order="1"></bond><bond id="b16" atomRefs2="a13 a17" order="2"></bond><bond id="b17" atomRefs2="a13 a11" order="1"></bond><bond id="b18" atomRefs2="a11 a14" order="2"></bond><bond id="b19" atomRefs2="a3 a18" order="1"></bond><bond id="b20" atomRefs2="a18 a19" order="3"></bond><bond id="b21" atomRefs2="a20 a21" order="1"></bond><bond id="b22" atomRefs2="a21 a22" order="2"></bond><bond id="b23" atomRefs2="a22 a23" order="1"></bond><bond id="b24" atomRefs2="a23 a24" order="2"></bond><bond id="b25" atomRefs2="a24 a25" order="1"></bond><bond id="b26" atomRefs2="a20 a25" order="2"></bond><bond id="b27" atomRefs2="a25 a26" order="1"></bond><bond id="b28" atomRefs2="a26 a27" order="2"></bond><bond id="b29" atomRefs2="a26 a28" order="1"></bond><bond id="b30" atomRefs2="a28 a29" order="2"><bondStereo>T</bondStereo></bond><bond id="b31" atomRefs2="a29 a30" order="1"></bond><bond id="b32" atomRefs2="a29 a31" order="1"></bond><bond id="b33" atomRefs2="a33 a34" order="1"></bond><bond id="b34" atomRefs2="a34 a35" order="2"></bond><bond id="b35" atomRefs2="a35 a36" order="1"></bond><bond id="b36" atomRefs2="a32 a36" order="2"></bond><bond id="b37" atomRefs2="a32 a30" order="1"></bond><bond id="b38" atomRefs2="a30 a33" order="2"></bond><bond id="b39" atomRefs2="a22 a37" order="1"></bond><bond id="b40" atomRefs2="a35 a38" order="1"></bond><bond id="b41" atomRefs2="a39 a40" order="1"></bond><bond id="b42" atomRefs2="a40 a41" order="2"></bond><bond id="b43" atomRefs2="a41 a42" order="1"></bond><bond id="b44" atomRefs2="a42 a43" order="2"></bond><bond id="b45" atomRefs2="a43 a37" order="1"></bond><bond id="b46" atomRefs2="a39 a37" order="2"></bond><bond id="b47" atomRefs2="a45 a46" order="1"></bond><bond id="b48" atomRefs2="a46 a47" order="2"></bond><bond id="b49" atomRefs2="a47 a48" order="1"></bond><bond id="b50" atomRefs2="a44 a48" order="2"></bond><bond id="b51" atomRefs2="a44 a38" order="1"></bond><bond id="b52" atomRefs2="a38 a45" order="2"></bond><bond id="b53" atomRefs2="a47 a49" order="1"></bond><bond id="b54" atomRefs2="a41 a50" order="1"></bond><bond id="b55" atomRefs2="a50 a51" order="3"></bond><bond id="b56" atomRefs2="a49 a52" order="3"></bond><bond id="b57" atomRefs2="a53 a54" order="1"></bond><bond id="b58" atomRefs2="a54 a55" order="2"></bond><bond id="b59" atomRefs2="a55 a56" order="1"></bond><bond id="b60" atomRefs2="a56 a57" order="2"></bond><bond id="b61" atomRefs2="a57 a58" order="1"></bond><bond id="b62" atomRefs2="a53 a58" order="2"></bond><bond id="b63" atomRefs2="a58 a59" order="1"></bond><bond id="b64" atomRefs2="a59 a60" order="2"></bond><bond id="b65" atomRefs2="a59 a61" order="1"></bond><bond id="b66" atomRefs2="a61 a62" order="2"><bondStereo>T</bondStereo></bond><bond id="b67" atomRefs2="a62 a63" order="1"></bond><bond id="b68" atomRefs2="a62 a64" order="1"></bond><bond id="b69" atomRefs2="a66 a67" order="1"></bond><bond id="b70" atomRefs2="a67 a68" order="2"></bond><bond id="b71" atomRefs2="a68 a69" order="1"></bond><bond id="b72" atomRefs2="a65 a69" order="2"></bond><bond id="b73" atomRefs2="a65 a63" order="1"></bond><bond id="b74" atomRefs2="a63 a66" order="2"></bond><bond id="b75" atomRefs2="a55 a70" order="1"></bond><bond id="b76" atomRefs2="a68 a71" order="1"></bond><bond id="b77" atomRefs2="a72 a73" order="1"></bond><bond id="b78" atomRefs2="a73 a74" order="2"></bond><bond id="b79" atomRefs2="a74 a75" order="1"></bond><bond id="b80" atomRefs2="a75 a76" order="2"></bond><bond id="b81" atomRefs2="a76 a70" order="1"></bond><bond id="b82" atomRefs2="a72 a70" order="2"></bond><bond id="b83" atomRefs2="a78 a79" order="1"></bond><bond id="b84" atomRefs2="a79 a80" order="2"></bond><bond id="b85" atomRefs2="a80 a81" order="1"></bond><bond id="b86" atomRefs2="a77 a81" order="2"></bond><bond id="b87" atomRefs2="a77 a71" order="1"></bond><bond id="b88" atomRefs2="a71 a78" order="2"></bond><bond id="b89" atomRefs2="a80 a82" order="1"></bond><bond id="b90" atomRefs2="a74 a83" order="1"></bond><bond id="b91" atomRefs2="a83 a84" order="3"></bond><bond id="b92" atomRefs2="a82 a85" order="3"></bond><bond id="b93" atomRefs2="a60 a64" order="1"></bond><bond id="b94" atomRefs2="a86 a87" order="1"></bond><bond id="b95" atomRefs2="a87 a88" order="2"></bond><bond id="b96" atomRefs2="a88 a89" order="1"></bond><bond id="b97" atomRefs2="a89 a90" order="2"></bond><bond id="b98" atomRefs2="a90 a91" order="1"></bond><bond id="b99" atomRefs2="a86 a91" order="2"></bond><bond id="b100" atomRefs2="a91 a92" order="1"></bond><bond id="b101" atomRefs2="a92 a93" order="2"></bond><bond id="b102" atomRefs2="a92 a94" order="1"></bond><bond id="b103" atomRefs2="a94 a95" order="2"></bond><bond id="b104" atomRefs2="a95 a96" order="1"></bond><bond id="b105" atomRefs2="a95 a97" order="1"></bond><bond id="b106" atomRefs2="a99 a100" order="1"></bond><bond id="b107" atomRefs2="a100 a101" order="2"></bond><bond id="b108" atomRefs2="a101 a102" order="1"></bond><bond id="b109" atomRefs2="a98 a102" order="2"></bond><bond id="b110" atomRefs2="a98 a96" order="1"></bond><bond id="b111" atomRefs2="a96 a99" order="2"></bond><bond id="b112" atomRefs2="a88 a103" order="1"></bond><bond id="b113" atomRefs2="a103 a104" order="3"></bond><bond id="b114" atomRefs2="a101 a105" order="1"></bond><bond id="b115" atomRefs2="a105 a106" order="3"></bond></bondArray><molecule id="sg1" role="SuperatomSgroup" title="CN" leftName="NC" molID="m2"><AttachmentPointArray><attachmentPoint atom="a18" order="1" bond="b19"></attachmentPoint></AttachmentPointArray></molecule><molecule id="sg2" role="SuperatomSgroup" title="CN" leftName="NC" molID="m3"><AttachmentPointArray><attachmentPoint atom="a49" order="1" bond="b53"></attachmentPoint></AttachmentPointArray></molecule><molecule id="sg3" role="SuperatomSgroup" title="CN" leftName="NC" molID="m4"><AttachmentPointArray><attachmentPoint atom="a50" order="1" bond="b54"></attachmentPoint></AttachmentPointArray></molecule><molecule id="sg4" role="SuperatomSgroup" title="CN" leftName="NC" molID="m5"><AttachmentPointArray><attachmentPoint atom="a82" order="1" bond="b89"></attachmentPoint></AttachmentPointArray></molecule><molecule id="sg5" role="SuperatomSgroup" title="CN" leftName="NC" molID="m6"><AttachmentPointArray><attachmentPoint atom="a83" order="1" bond="b90"></attachmentPoint></AttachmentPointArray></molecule><molecule id="sg6" role="SuperatomSgroup" title="CN" leftName="NC" molID="m7"><AttachmentPointArray><attachmentPoint atom="a103" order="1" bond="b112"></attachmentPoint></AttachmentPointArray></molecule><molecule id="sg7" role="SuperatomSgroup" title="CN" leftName="NC" molID="m8"><AttachmentPointArray><attachmentPoint atom="a105" order="1" bond="b114"></attachmentPoint></AttachmentPointArray></molecule></molecule></MChemicalStruct><MTextBox id="o5" color="#000000" toption="NOROT" fontScale="10.0" halign="LEFT" valign="TOP" autoSize="false"><Field name="text"><![CDATA[{D font=SansSerif,size=10}{fg=#000000}DikDiCN]]></Field><MPoint x="-0.6165" y="23.8571"></MPoint><MPoint x="3.3835" y="23.8571"></MPoint><MPoint x="3.3835" y="22.5238"></MPoint><MPoint x="-0.6165" y="22.5238"></MPoint></MTextBox></MDocument>
</cml>
--><defs
     id="genericDefs" /><g
     id="g154"
     transform="translate(0.66751203,3.3097471)"><defs
       id="785193004987-defs1"><clipPath
         clipPathUnits="userSpaceOnUse"
         id="785193004810-clipPath1"><path
           d="m 213.9899,221.9961 h 94.907 v 36.3474 h -94.907 z"
           id="path1" /></clipPath><clipPath
         clipPathUnits="userSpaceOnUse"
         id="785193004829-clipPath1"><path
           d="m 206.9948,371.9955 h 57.5499 v 26.2509 h -57.5499 z"
           id="path2" /></clipPath><clipPath
         clipPathUnits="userSpaceOnUse"
         id="785193004540-clipPath1"><path
           d="m 206.9875,508.9925 h 47.4535 v 32.3088 h -47.4535 z"
           id="path3" /></clipPath><clipPath
         clipPathUnits="userSpaceOnUse"
         id="785193004835-clipPath1"><path
           d="M 0,0 H 458 V 600 H 0 Z"
           id="path4" /></clipPath><clipPath
         clipPathUnits="userSpaceOnUse"
         id="785193004395-clipPath1"><path
           d="m -203.7162,-156.0072 h 458 v 600.0001 h -458 z"
           id="path5" /></clipPath><clipPath
         clipPathUnits="userSpaceOnUse"
         id="785193004574-clipPath1"><path
           d="m -251.7509,-156.0072 h 458 v 600.0001 h -458 z"
           id="path6" /></clipPath><clipPath
         clipPathUnits="userSpaceOnUse"
         id="785193004563-clipPath1"><path
           d="m -83.8109,-253.0706 h 458 v 600 h -458 z"
           id="path7" /></clipPath><clipPath
         clipPathUnits="userSpaceOnUse"
         id="78519300478-clipPath1"><path
           d="m -201.4592,-300.3346 h 458 v 600 h -458 z"
           id="path8" /></clipPath><clipPath
         clipPathUnits="userSpaceOnUse"
         id="785193004840-clipPath1"><path
           d="m -249.4939,-300.3346 h 458 v 600 h -458 z"
           id="path9" /></clipPath><clipPath
         clipPathUnits="userSpaceOnUse"
         id="785193004632-clipPath1"><path
           d="m -9.5037,-438.9966 h 458 v 600 h -458 z"
           id="path10" /></clipPath><clipPath
         clipPathUnits="userSpaceOnUse"
         id="785193004693-clipPath1"><path
           d="m -441.8088,-438.9984 h 458 v 600 h -458 z"
           id="path11" /></clipPath><clipPath
         clipPathUnits="userSpaceOnUse"
         id="7851930047-clipPath1"><path
           d="m -201.6389,-440.6588 h 458 v 600 h -458 z"
           id="path12" /></clipPath><clipPath
         clipPathUnits="userSpaceOnUse"
         id="785193004123-clipPath1"><path
           d="m -249.6736,-440.6588 h 458 v 600 h -458 z"
           id="path13" /></clipPath><clipPath
         clipPathUnits="userSpaceOnUse"
         id="785193004309-clipPath1"><path
           d="m -9.5037,-579.3209 h 458 v 600 h -458 z"
           id="path14" /></clipPath><clipPath
         clipPathUnits="userSpaceOnUse"
         id="785193004265-clipPath1"><path
           d="m -441.8088,-579.3227 h 458 v 600 h -458 z"
           id="path15" /></clipPath><clipPath
         clipPathUnits="userSpaceOnUse"
         id="785193004127-clipPath1"><path
           d="m -200.8605,-8.775 h 458 v 600 h -458 z"
           id="path16" /></clipPath><clipPath
         clipPathUnits="userSpaceOnUse"
         id="785193004572-clipPath1"><path
           d="m -248.8952,-8.775 h 458 v 600 h -458 z"
           id="path17" /></clipPath><clipPath
         clipPathUnits="userSpaceOnUse"
         id="78519300449-clipPath1"><path
           d="m -80.9553,-105.8384 h 458 v 600 h -458 z"
           id="path18" /></clipPath><clipPath
         clipPathUnits="userSpaceOnUse"
         id="785193004864-clipPath1"><path
           d="m -369.1599,-105.8402 h 458 v 600 h -458 z"
           id="path19" /></clipPath><clipPath
         clipPathUnits="userSpaceOnUse"
         id="785193004311-clipPath1"><path
           d="m 204.9885,78.0009 h 75.7236 v 25.2412 h -75.7236 z"
           id="path20" /></clipPath></defs><g
       font-family="sans-serif"
       font-size="10px"
       text-rendering="geometricPrecision"
       transform="matrix(0.9904,0,0,0.9904,2.0551,2.1254)"
       id="g20"><text
         clip-path="url(#785193004810-clipPath1)"
         stroke="none"
         x="215.048"
         xml:space="preserve"
         y="230.4008"
         id="text20">DikCN</text></g><g
       font-family="sans-serif"
       font-size="10px"
       text-rendering="geometricPrecision"
       transform="matrix(0.9904,0,0,0.9904,1.9834,3.5595)"
       id="g21"><text
         clip-path="url(#785193004829-clipPath1)"
         stroke="none"
         x="207.5434"
         xml:space="preserve"
         y="380.46741"
         id="text21">DikBiCN</text></g><g
       font-family="sans-serif"
       font-size="10px"
       text-rendering="geometricPrecision"
       transform="matrix(0.9904,0,0,0.9904,1.9906,4.8717)"
       id="g22"><text
         clip-path="url(#785193004540-clipPath1)"
         stroke="none"
         x="208.2943"
         xml:space="preserve"
         y="517.77887"
         id="text22">PyrBiCN</text></g><g
       text-rendering="geometricPrecision"
       id="g23"><path
         clip-path="url(#785193004835-clipPath1)"
         d="m 159.4274,190.1248 v 0 l -24.0156,13.8662 c -0.2127,0.1229 -0.4848,0.05 -0.6076,-0.1628 -0.1229,-0.2128 -0.05,-0.4848 0.1628,-0.6077 v 0 l 24.0155,-13.8662 c 0.2128,-0.1228 0.4848,-0.0499 0.6077,0.1628 0.1228,0.2128 0.0499,0.4849 -0.1628,0.6077 z"
         stroke="none"
         id="path22" /></g><g
       text-rendering="geometricPrecision"
       id="g24"><path
         clip-path="url(#785193004835-clipPath1)"
         d="m 138.6356,205.7834 c 0,-0.2457 -0.1992,-0.4449 -0.4448,-0.4449 -0.2457,0 -0.4449,0.1992 -0.4449,0.4449 v 23.3772 c 0,0.2456 0.1992,0.4448 0.4449,0.4448 0.2456,0 0.4448,-0.1992 0.4448,-0.4448 z m -3.0014,-2.1776 c 0,-0.2457 -0.1991,-0.4449 -0.4448,-0.4449 -0.2457,0 -0.4448,0.1992 -0.4448,0.4449 v 27.7324 c 0,0.2457 0.1991,0.4448 0.4448,0.4448 0.2457,0 0.4448,-0.1991 0.4448,-0.4448 z"
         stroke="none"
         id="path23" /></g><g
       text-rendering="geometricPrecision"
       id="g25"><path
         clip-path="url(#785193004835-clipPath1)"
         d="m 135.4118,230.953 v 0 l 24.0156,13.8662 c 0.2127,0.1228 0.2856,0.3949 0.1628,0.6076 -0.1229,0.2128 -0.3949,0.2857 -0.6077,0.1628 v 0 L 134.967,231.7234 c -0.2128,-0.1228 -0.2857,-0.3949 -0.1628,-0.6076 0.1228,-0.2128 0.3949,-0.2857 0.6076,-0.1628 z"
         stroke="none"
         id="path24" /></g><g
       text-rendering="geometricPrecision"
       id="g26"><path
         clip-path="url(#785193004835-clipPath1)"
         d="m 159.3678,241.1311 c -0.2127,0.1228 -0.2856,0.3949 -0.1628,0.6076 0.1229,0.2128 0.3949,0.2857 0.6077,0.1629 l 20.2454,-11.6886 c 0.2128,-0.1228 0.2857,-0.3949 0.1629,-0.6077 -0.1229,-0.2127 -0.3949,-0.2856 -0.6077,-0.1628 z m -0.3853,3.6881 c -0.2127,0.1228 -0.2856,0.3949 -0.1628,0.6076 0.1229,0.2128 0.3949,0.2857 0.6077,0.1628 l 24.0173,-13.8662 c 0.2128,-0.1228 0.2857,-0.3949 0.1628,-0.6076 -0.1228,-0.2128 -0.3949,-0.2857 -0.6076,-0.1628 z"
         stroke="none"
         id="path25" /></g><g
       text-rendering="geometricPrecision"
       id="g27"><path
         clip-path="url(#785193004835-clipPath1)"
         d="m 182.7775,231.3382 v 0 -27.7324 c 0,-0.2457 0.1991,-0.4449 0.4448,-0.4449 0.2457,0 0.4448,0.1992 0.4448,0.4449 v 0 27.7324 c 0,0.2457 -0.1991,0.4448 -0.4448,0.4448 -0.2457,0 -0.4448,-0.1991 -0.4448,-0.4448 z"
         stroke="none"
         id="path26" /></g><g
       text-rendering="geometricPrecision"
       id="g28"><path
         clip-path="url(#785193004835-clipPath1)"
         d="m 159.4274,189.3543 c -0.2128,-0.1228 -0.4848,-0.0499 -0.6077,0.1629 -0.1228,0.2127 -0.0499,0.4848 0.1628,0.6076 l 24.0174,13.8662 c 0.2127,0.1229 0.4848,0.05 0.6076,-0.1628 0.1229,-0.2128 0.05,-0.4848 -0.1628,-0.6077 z m 0.3853,3.6881 c -0.2128,-0.1228 -0.4848,-0.0499 -0.6077,0.1628 -0.1228,0.2128 -0.0499,0.4849 0.1628,0.6077 l 20.2455,11.6885 c 0.2128,0.1229 0.4848,0.05 0.6077,-0.1628 0.1228,-0.2127 0.0499,-0.4848 -0.1629,-0.6076 z"
         stroke="none"
         id="path27" /></g><g
       text-rendering="geometricPrecision"
       id="g29"><path
         clip-path="url(#785193004835-clipPath1)"
         d="m 182.9999,203.2205 v 0 l 24.0173,-13.8662 c 0.2128,-0.1228 0.4849,-0.0499 0.6077,0.1629 0.1228,0.2127 0.0499,0.4848 -0.1628,0.6076 v 0 l -24.0174,13.8662 c -0.2128,0.1229 -0.4848,0.05 -0.6076,-0.1628 -0.1229,-0.2128 -0.05,-0.4848 0.1628,-0.6077 z"
         stroke="none"
         id="path28" /></g><g
       text-rendering="geometricPrecision"
       id="g30"><path
         clip-path="url(#785193004835-clipPath1)"
         d="m 205.2941,190.606 c 0,0.2457 0.1992,0.4448 0.4449,0.4448 0.2457,0 0.4448,-0.1991 0.4448,-0.4448 v -21.9269 c 0,-0.2457 -0.1991,-0.4448 -0.4448,-0.4448 -0.2457,0 -0.4449,0.1991 -0.4449,0.4448 z m 3.0014,0 c 0,0.2457 0.1991,0.4448 0.4448,0.4448 0.2457,0 0.4449,-0.1991 0.4449,-0.4448 v -21.9269 c 0,-0.2457 -0.1992,-0.4448 -0.4449,-0.4448 -0.2457,0 -0.4448,0.1991 -0.4448,0.4448 z"
         stroke="none"
         id="path29" /></g><g
       text-rendering="geometricPrecision"
       id="g31"><path
         clip-path="url(#785193004835-clipPath1)"
         d="m 207.4621,189.3543 v 0 l 24.0173,13.8662 c 0.2128,0.1229 0.2857,0.3949 0.1629,0.6077 -0.1229,0.2128 -0.3949,0.2857 -0.6077,0.1628 v 0 l -24.0174,-13.8662 c -0.2127,-0.1228 -0.2856,-0.3949 -0.1628,-0.6076 0.1228,-0.2128 0.3949,-0.2857 0.6077,-0.1629 z"
         stroke="none"
         id="path30" /></g><g
       text-rendering="geometricPrecision"
       id="g32"><path
         clip-path="url(#785193004835-clipPath1)"
         d="m 231.4198,199.5324 c -0.2128,0.1229 -0.2857,0.395 -0.1628,0.6077 0.1228,0.2128 0.3949,0.2857 0.6076,0.1628 l 20.2439,-11.6885 c 0.2128,-0.1229 0.2857,-0.3949 0.1628,-0.6077 -0.1228,-0.2127 -0.3949,-0.2856 -0.6076,-0.1628 z m -0.3852,3.6881 c -0.2128,0.1229 -0.2857,0.3949 -0.1628,0.6077 0.1228,0.2128 0.3949,0.2857 0.6076,0.1628 l 24.0156,-13.8662 c 0.2127,-0.1228 0.2856,-0.3949 0.1628,-0.6077 -0.1228,-0.2127 -0.3949,-0.2856 -0.6077,-0.1628 z"
         stroke="none"
         id="path31" /></g><g
       text-rendering="geometricPrecision"
       id="g33"><path
         clip-path="url(#785193004835-clipPath1)"
         d="m 255.495,189.3543 v 0 l 24.0173,13.8662 c 0.2128,0.1229 0.2857,0.3949 0.1628,0.6077 -0.1228,0.2128 -0.3948,0.2857 -0.6076,0.1628 v 0 l -24.0174,-13.8662 c -0.2127,-0.1228 -0.2856,-0.3949 -0.1628,-0.6076 0.1228,-0.2128 0.3949,-0.2857 0.6077,-0.1629 z"
         stroke="none"
         id="path32" /></g><g
       text-rendering="geometricPrecision"
       id="g34"><path
         clip-path="url(#785193004835-clipPath1)"
         d="m 254.8277,189.7395 v 0 l 0.001,-21.0604 c 0,-0.2457 0.1992,-0.4448 0.4449,-0.4448 0.2456,0 0.4448,0.1992 0.4448,0.4448 v 0 l -0.001,21.0605 c 0,0.2457 -0.1992,0.4448 -0.4449,0.4448 -0.2456,0 -0.4448,-0.1992 -0.4448,-0.4449 z"
         stroke="none"
         id="path33" /></g><g
       text-rendering="geometricPrecision"
       id="g35"><path
         clip-path="url(#785193004835-clipPath1)"
         d="m 279.5123,230.9548 v 0 l 24.0174,13.8662 c 0.2127,0.1228 0.2856,0.3949 0.1628,0.6076 -0.1228,0.2128 -0.3949,0.2857 -0.6077,0.1628 v 0 l -24.0173,-13.8662 c -0.2128,-0.1228 -0.2857,-0.3949 -0.1628,-0.6076 0.1228,-0.2128 0.3949,-0.2857 0.6076,-0.1628 z"
         stroke="none"
         id="path34" /></g><g
       text-rendering="geometricPrecision"
       id="g36"><path
         clip-path="url(#785193004835-clipPath1)"
         d="m 303.4701,241.1329 c -0.2128,0.1228 -0.2857,0.3949 -0.1628,0.6077 0.1228,0.2127 0.3948,0.2856 0.6076,0.1628 l 20.2456,-11.6886 c 0.2127,-0.1228 0.2856,-0.3949 0.1628,-0.6077 -0.1229,-0.2127 -0.3949,-0.2856 -0.6077,-0.1628 z m -0.3853,3.6881 c -0.2127,0.1228 -0.2856,0.3949 -0.1628,0.6076 0.1229,0.2128 0.3949,0.2857 0.6077,0.1628 l 24.0173,-13.8662 c 0.2128,-0.1228 0.2857,-0.3949 0.1629,-0.6076 -0.1229,-0.2128 -0.3949,-0.2857 -0.6077,-0.1628 z"
         stroke="none"
         id="path35" /></g><g
       text-rendering="geometricPrecision"
       id="g37"><path
         clip-path="url(#785193004835-clipPath1)"
         d="m 326.8798,231.34 v 0 -27.7342 c 0,-0.2457 0.1991,-0.4449 0.4448,-0.4449 0.2457,0 0.4449,0.1992 0.4449,0.4449 v 0 27.7342 c 0,0.2457 -0.1992,0.4448 -0.4449,0.4448 -0.2457,0 -0.4448,-0.1991 -0.4448,-0.4448 z"
         stroke="none"
         id="path36" /></g><g
       text-rendering="geometricPrecision"
       id="g38"><path
         clip-path="url(#785193004835-clipPath1)"
         d="m 303.5297,189.3543 c -0.2128,-0.1228 -0.4848,-0.0499 -0.6077,0.1629 -0.1228,0.2127 -0.0499,0.4848 0.1628,0.6076 l 24.0174,13.8662 c 0.2128,0.1229 0.4848,0.05 0.6077,-0.1628 0.1228,-0.2128 0.0499,-0.4848 -0.1629,-0.6077 z m 0.3852,3.6881 c -0.2128,-0.1229 -0.4848,-0.05 -0.6076,0.1628 -0.1229,0.2128 -0.05,0.4848 0.1628,0.6077 l 20.2455,11.6885 c 0.2128,0.1229 0.4848,0.05 0.6077,-0.1628 0.1228,-0.2127 0.0499,-0.4848 -0.1628,-0.6076 z"
         stroke="none"
         id="path37" /></g><g
       text-rendering="geometricPrecision"
       id="g39"><path
         clip-path="url(#785193004835-clipPath1)"
         d="m 303.5297,190.1248 v 0 l -24.0174,13.8662 c -0.2127,0.1229 -0.4848,0.05 -0.6076,-0.1628 -0.1229,-0.2128 -0.05,-0.4848 0.1628,-0.6077 v 0 l 24.0173,-13.8662 c 0.2128,-0.1228 0.4849,-0.0499 0.6077,0.1629 0.1228,0.2127 0.0499,0.4848 -0.1628,0.6076 z"
         stroke="none"
         id="path38" /></g><g
       text-rendering="geometricPrecision"
       id="g40"><path
         clip-path="url(#785193004835-clipPath1)"
         d="m 282.7361,205.7835 c 0,-0.2457 -0.1992,-0.4449 -0.4448,-0.4449 -0.2457,0 -0.4449,0.1992 -0.4449,0.4449 v 23.3788 c 0,0.2457 0.1992,0.4448 0.4449,0.4448 0.2456,0 0.4448,-0.1991 0.4448,-0.4448 z m -3.0014,-2.1777 c 0,-0.2457 -0.1991,-0.4449 -0.4448,-0.4449 -0.2457,0 -0.4448,0.1992 -0.4448,0.4449 V 231.34 c 0,0.2457 0.1991,0.4448 0.4448,0.4448 0.2457,0 0.4448,-0.1991 0.4448,-0.4448 z"
         stroke="none"
         id="path39" /></g><g
       text-rendering="geometricPrecision"
       id="g41"><path
         clip-path="url(#785193004835-clipPath1)"
         d="m 135.4118,231.7234 v 0 l -24.0173,13.8662 c -0.2128,0.1229 -0.4849,0.05 -0.6077,-0.1628 -0.1228,-0.2127 -0.0499,-0.4848 0.1628,-0.6076 v 0 L 134.967,230.953 c 0.2127,-0.1229 0.4848,-0.05 0.6076,0.1628 0.1229,0.2127 0.05,0.4848 -0.1628,0.6076 z"
         stroke="none"
         id="path40" /></g><g
       text-rendering="geometricPrecision"
       id="g42"><path
         clip-path="url(#785193004835-clipPath1)"
         d="m 112.8951,248.1889 c 0.2128,-0.1228 0.2857,-0.3949 0.1628,-0.6077 -0.1228,-0.2127 -0.3949,-0.2856 -0.6076,-0.1628 l -19.3405,11.1661 c -0.2128,0.1228 -0.2857,0.3949 -0.1628,0.6076 0.1228,0.2128 0.3949,0.2857 0.6076,0.1628 z m -1.5006,-2.5993 c 0.2127,-0.1228 0.2856,-0.3949 0.1628,-0.6076 -0.1228,-0.2128 -0.3949,-0.2857 -0.6077,-0.1628 l -19.3405,11.166 c -0.2127,0.1229 -0.2856,0.3949 -0.1628,0.6077 0.1228,0.2127 0.3949,0.2856 0.6077,0.1628 z m -1.5007,-2.5992 c 0.2128,-0.1228 0.2857,-0.3949 0.1628,-0.6077 -0.1228,-0.2127 -0.3949,-0.2856 -0.6076,-0.1628 L 90.1085,253.386 c -0.2128,0.1228 -0.2857,0.3949 -0.1628,0.6076 0.1228,0.2128 0.3949,0.2857 0.6076,0.1629 z"
         stroke="none"
         id="path41" /></g><g
       text-rendering="geometricPrecision"
       id="g43"><path
         clip-path="url(#785193004835-clipPath1)"
         d="m 157.1722,334.4522 v 0 l -24.0174,13.8662 c -0.2128,0.1229 -0.4848,0.05 -0.6077,-0.1628 -0.1228,-0.2128 -0.0499,-0.4848 0.1629,-0.6077 v 0 l 24.0173,-13.8662 c 0.2128,-0.1228 0.4848,-0.0499 0.6077,0.1629 0.1228,0.2127 0.0499,0.4848 -0.1628,0.6076 z"
         stroke="none"
         id="path42" /></g><g
       text-rendering="geometricPrecision"
       id="g44"><path
         clip-path="url(#785193004835-clipPath1)"
         d="m 136.3786,350.1109 c 0,-0.2457 -0.1992,-0.4449 -0.4449,-0.4449 -0.2456,0 -0.4448,0.1992 -0.4448,0.4449 v 23.377 c 0,0.2457 0.1992,0.4449 0.4448,0.4449 0.2457,0 0.4449,-0.1992 0.4449,-0.4449 z m -3.0014,-2.1777 c 0,-0.2457 -0.1991,-0.4449 -0.4448,-0.4449 -0.2457,0 -0.4449,0.1992 -0.4449,0.4449 v 27.7324 c 0,0.2457 0.1992,0.4448 0.4449,0.4448 0.2457,0 0.4448,-0.1991 0.4448,-0.4448 z"
         stroke="none"
         id="path43" /></g><g
       text-rendering="geometricPrecision"
       id="g45"><path
         clip-path="url(#785193004835-clipPath1)"
         d="m 133.1548,375.2804 v 0 l 24.0174,13.8662 c 0.2127,0.1228 0.2856,0.3949 0.1628,0.6076 -0.1229,0.2128 -0.3949,0.2857 -0.6077,0.1629 v 0 L 132.71,376.0508 c -0.2128,-0.1228 -0.2857,-0.3949 -0.1629,-0.6076 0.1229,-0.2128 0.3949,-0.2857 0.6077,-0.1628 z"
         stroke="none"
         id="path44" /></g><g
       text-rendering="geometricPrecision"
       id="g46"><path
         clip-path="url(#785193004835-clipPath1)"
         d="m 157.1125,385.4585 c -0.2128,0.1228 -0.2857,0.3949 -0.1628,0.6076 0.1228,0.2128 0.3949,0.2857 0.6077,0.1628 l 20.2437,-11.6884 c 0.2128,-0.1228 0.2857,-0.3949 0.1629,-0.6077 -0.1229,-0.2127 -0.395,-0.2856 -0.6077,-0.1628 z m -0.3852,3.6881 c -0.2127,0.1228 -0.2856,0.3949 -0.1628,0.6076 0.1228,0.2128 0.3949,0.2857 0.6077,0.1629 l 24.0155,-13.8663 c 0.2128,-0.1228 0.2857,-0.3949 0.1628,-0.6076 -0.1228,-0.2128 -0.3949,-0.2857 -0.6076,-0.1628 z"
         stroke="none"
         id="path45" /></g><g
       text-rendering="geometricPrecision"
       id="g47"><path
         clip-path="url(#785193004835-clipPath1)"
         d="m 180.5205,375.6656 v 0 -27.7324 c 0,-0.2457 0.1991,-0.4449 0.4448,-0.4449 0.2457,0 0.4448,0.1992 0.4448,0.4449 v 0 27.7324 c 0,0.2457 -0.1991,0.4448 -0.4448,0.4448 -0.2457,0 -0.4448,-0.1991 -0.4448,-0.4448 z"
         stroke="none"
         id="path46" /></g><g
       text-rendering="geometricPrecision"
       id="g48"><path
         clip-path="url(#785193004835-clipPath1)"
         d="m 157.1722,333.6818 c -0.2128,-0.1229 -0.4849,-0.05 -0.6077,0.1627 -0.1228,0.2128 -0.0499,0.4849 0.1628,0.6077 l 24.0156,13.8662 c 0.2127,0.1229 0.4848,0.05 0.6076,-0.1628 0.1229,-0.2127 0.05,-0.4848 -0.1628,-0.6077 z m 0.3852,3.688 c -0.2128,-0.1228 -0.4849,-0.0499 -0.6077,0.1629 -0.1229,0.2127 -0.05,0.4848 0.1628,0.6076 l 20.2438,11.6885 c 0.2127,0.1228 0.4848,0.0499 0.6077,-0.1628 0.1228,-0.2128 0.0499,-0.4848 -0.1629,-0.6077 z"
         stroke="none"
         id="path47" /></g><g
       text-rendering="geometricPrecision"
       id="g49"><path
         clip-path="url(#785193004835-clipPath1)"
         d="m 180.7429,347.5479 v 0 l 24.0173,-13.8662 c 0.2128,-0.1228 0.4849,-0.0499 0.6077,0.1629 0.1228,0.2127 0.0499,0.4848 -0.1628,0.6076 v 0 l -24.0174,13.8662 c -0.2128,0.1229 -0.4848,0.05 -0.6077,-0.1628 -0.1228,-0.2128 -0.0499,-0.4848 0.1629,-0.6077 z"
         stroke="none"
         id="path48" /></g><g
       text-rendering="geometricPrecision"
       id="g50"><path
         clip-path="url(#785193004835-clipPath1)"
         d="m 203.0371,334.9334 c 0,0.2456 0.1992,0.4448 0.4449,0.4448 0.2456,0 0.4448,-0.1992 0.4448,-0.4448 v -21.9269 c 0,-0.2457 -0.1992,-0.4448 -0.4448,-0.4448 -0.2457,0 -0.4449,0.1991 -0.4449,0.4448 z m 3.0014,0 c 0,0.2456 0.1991,0.4448 0.4448,0.4448 0.2457,0 0.4449,-0.1992 0.4449,-0.4448 v -21.9269 c 0,-0.2457 -0.1992,-0.4448 -0.4449,-0.4448 -0.2457,0 -0.4448,0.1991 -0.4448,0.4448 z"
         stroke="none"
         id="path49" /></g><g
       text-rendering="geometricPrecision"
       id="g51"><path
         clip-path="url(#785193004835-clipPath1)"
         d="m 205.2051,333.6817 v 0 l 24.0173,13.8662 c 0.2128,0.1229 0.2857,0.3949 0.1628,0.6077 -0.1228,0.2128 -0.3949,0.2857 -0.6076,0.1628 v 0 l -24.0174,-13.8662 c -0.2127,-0.1228 -0.2856,-0.3949 -0.1628,-0.6076 0.1228,-0.2128 0.3949,-0.2857 0.6077,-0.1629 z"
         stroke="none"
         id="path50" /></g><g
       text-rendering="geometricPrecision"
       id="g52"><path
         clip-path="url(#785193004835-clipPath1)"
         d="m 229.1628,343.8599 c -0.2127,0.1228 -0.2856,0.3949 -0.1628,0.6077 0.1228,0.2127 0.3949,0.2856 0.6077,0.1628 l 20.2455,-11.6886 c 0.2127,-0.1228 0.2856,-0.3949 0.1628,-0.6077 -0.1228,-0.2127 -0.3949,-0.2856 -0.6076,-0.1628 z m -0.3852,3.688 c -0.2128,0.1229 -0.2857,0.3949 -0.1628,0.6077 0.1228,0.2128 0.3949,0.2857 0.6076,0.1628 l 24.0174,-13.8662 c 0.2127,-0.1228 0.2856,-0.3949 0.1628,-0.6076 -0.1228,-0.2128 -0.3949,-0.2857 -0.6077,-0.1629 z"
         stroke="none"
         id="path51" /></g><g
       text-rendering="geometricPrecision"
       id="g53"><path
         clip-path="url(#785193004835-clipPath1)"
         d="m 253.2398,333.6818 v 0 l 24.0155,13.8661 c 0.2128,0.1229 0.2857,0.395 0.1629,0.6077 -0.1229,0.2128 -0.395,0.2857 -0.6077,0.1628 v 0 l -24.0156,-13.8662 c -0.2127,-0.1228 -0.2856,-0.3949 -0.1628,-0.6077 0.1229,-0.2127 0.3949,-0.2856 0.6077,-0.1627 z"
         stroke="none"
         id="path52" /></g><g
       text-rendering="geometricPrecision"
       id="g54"><path
         clip-path="url(#785193004835-clipPath1)"
         d="m 252.5725,334.067 v 0 -21.0605 c 0,-0.2457 0.1992,-0.4448 0.4448,-0.4448 0.2457,0 0.4449,0.1991 0.4449,0.4448 v 0 21.0605 c 0,0.2457 -0.1992,0.4448 -0.4449,0.4448 -0.2456,0 -0.4448,-0.1991 -0.4448,-0.4448 z"
         stroke="none"
         id="path53" /></g><g
       text-rendering="geometricPrecision"
       id="g55"><path
         clip-path="url(#785193004835-clipPath1)"
         d="m 277.2553,375.2822 v 0 l 24.0174,13.8662 c 0.2127,0.1228 0.2856,0.3949 0.1628,0.6076 -0.1228,0.2128 -0.3949,0.2857 -0.6076,0.1629 v 0 l -24.0174,-13.8663 c -0.2128,-0.1228 -0.2857,-0.3949 -0.1628,-0.6076 0.1228,-0.2128 0.3949,-0.2857 0.6076,-0.1628 z"
         stroke="none"
         id="path54" /></g><g
       text-rendering="geometricPrecision"
       id="g56"><path
         clip-path="url(#785193004835-clipPath1)"
         d="m 301.2131,385.4603 c -0.2128,0.1229 -0.2857,0.3949 -0.1628,0.6077 0.1228,0.2127 0.3949,0.2856 0.6076,0.1628 l 20.2455,-11.6886 c 0.2128,-0.1228 0.2857,-0.3949 0.1629,-0.6076 -0.1229,-0.2128 -0.3949,-0.2857 -0.6077,-0.1629 z m -0.3852,3.6881 c -0.2128,0.1228 -0.2857,0.3949 -0.1629,0.6076 0.1228,0.2128 0.3949,0.2857 0.6077,0.1629 L 325.29,376.0526 c 0.2128,-0.1228 0.2857,-0.3949 0.1629,-0.6076 -0.1229,-0.2128 -0.3949,-0.2857 -0.6077,-0.1628 z"
         stroke="none"
         id="path55" /></g><g
       text-rendering="geometricPrecision"
       id="g57"><path
         clip-path="url(#785193004835-clipPath1)"
         d="m 324.6228,375.6674 v 0 -27.7342 c 0,-0.2457 0.1991,-0.4449 0.4448,-0.4449 0.2457,0 0.4449,0.1992 0.4449,0.4449 v 0 27.7342 c 0,0.2457 -0.1992,0.4448 -0.4449,0.4448 -0.2457,0 -0.4448,-0.1991 -0.4448,-0.4448 z"
         stroke="none"
         id="path56" /></g><g
       text-rendering="geometricPrecision"
       id="g58"><path
         clip-path="url(#785193004835-clipPath1)"
         d="m 301.2727,333.6817 c -0.2128,-0.1228 -0.4849,-0.0499 -0.6077,0.1629 -0.1228,0.2127 -0.0499,0.4848 0.1629,0.6076 l 24.0173,13.8662 c 0.2128,0.1229 0.4848,0.05 0.6077,-0.1628 0.1228,-0.2128 0.0499,-0.4848 -0.1629,-0.6077 z m 0.3852,3.6881 c -0.2127,-0.1229 -0.4848,-0.0499 -0.6076,0.1628 -0.1229,0.2128 -0.05,0.4849 0.1628,0.6077 l 20.2455,11.6886 c 0.2128,0.1228 0.4848,0.0499 0.6077,-0.1629 0.1228,-0.2127 0.0499,-0.4848 -0.1629,-0.6076 z"
         stroke="none"
         id="path57" /></g><g
       text-rendering="geometricPrecision"
       id="g59"><path
         clip-path="url(#785193004835-clipPath1)"
         d="m 301.2727,334.4522 v 0 l -24.0174,13.8662 c -0.2127,0.1229 -0.4848,0.05 -0.6076,-0.1628 -0.1229,-0.2128 -0.05,-0.4848 0.1628,-0.6077 v 0 l 24.0174,-13.8662 c 0.2127,-0.1228 0.4848,-0.0499 0.6076,0.1629 0.1228,0.2127 0.0499,0.4848 -0.1628,0.6076 z"
         stroke="none"
         id="path58" /></g><g
       text-rendering="geometricPrecision"
       id="g60"><path
         clip-path="url(#785193004835-clipPath1)"
         d="m 280.4791,350.1109 c 0,-0.2457 -0.1992,-0.4449 -0.4449,-0.4449 -0.2456,0 -0.4448,0.1992 -0.4448,0.4449 v 23.3788 c 0,0.2457 0.1992,0.4449 0.4448,0.4449 0.2457,0 0.4449,-0.1992 0.4449,-0.4449 z m -3.0013,-2.1777 c 0,-0.2457 -0.1992,-0.4449 -0.4449,-0.4449 -0.2457,0 -0.4448,0.1992 -0.4448,0.4449 v 27.7342 c 0,0.2457 0.1991,0.4448 0.4448,0.4448 0.2457,0 0.4449,-0.1991 0.4449,-0.4448 z"
         stroke="none"
         id="path59" /></g><g
       text-rendering="geometricPrecision"
       id="g61"><path
         clip-path="url(#785193004835-clipPath1)"
         d="m 133.1548,376.0508 v 0 l -24.0173,13.8663 c -0.2128,0.1228 -0.4849,0.0499 -0.6077,-0.1629 -0.1228,-0.2127 -0.0499,-0.4848 0.1628,-0.6076 v 0 L 132.71,375.2804 c 0.2127,-0.1229 0.4848,-0.05 0.6076,0.1628 0.1229,0.2127 0.05,0.4848 -0.1628,0.6076 z"
         stroke="none"
         id="path60" /></g><g
       text-rendering="geometricPrecision"
       id="g62"><path
         clip-path="url(#785193004835-clipPath1)"
         d="m 325.29,375.2822 v 0 l 24.0174,13.8662 c 0.2127,0.1228 0.2856,0.3949 0.1628,0.6076 -0.1228,0.2128 -0.3949,0.2857 -0.6077,0.1629 v 0 l -24.0173,-13.8663 c -0.2128,-0.1228 -0.2857,-0.3949 -0.1628,-0.6076 0.1228,-0.2128 0.3949,-0.2857 0.6076,-0.1628 z"
         stroke="none"
         id="path61" /></g><g
       text-rendering="geometricPrecision"
       id="g63"><path
         clip-path="url(#785193004835-clipPath1)"
         d="m 85.1201,376.049 v 0 l -24.0155,13.8681 c -0.2128,0.1228 -0.4848,0.0499 -0.6077,-0.1628 -0.1228,-0.2128 -0.05,-0.4849 0.1628,-0.6077 v 0 l 24.0155,-13.868 c 0.2128,-0.1229 0.4849,-0.05 0.6077,0.1627 0.1229,0.2128 0.05,0.4849 -0.1628,0.6077 z"
         stroke="none"
         id="path62" /></g><g
       text-rendering="geometricPrecision"
       id="g64"><path
         clip-path="url(#785193004835-clipPath1)"
         d="m 64.3283,391.7093 c 0,-0.2456 -0.1991,-0.4448 -0.4448,-0.4448 -0.2457,0 -0.4449,0.1992 -0.4449,0.4448 v 23.3773 c 0,0.2457 0.1992,0.4449 0.4449,0.4449 0.2457,0 0.4448,-0.1992 0.4448,-0.4449 z m -3.0013,-2.1775 c 0,-0.2457 -0.1992,-0.4448 -0.4449,-0.4448 -0.2456,0 -0.4448,0.1991 -0.4448,0.4448 v 27.7324 c 0,0.2457 0.1992,0.4449 0.4448,0.4449 0.2457,0 0.4449,-0.1992 0.4449,-0.4449 z"
         stroke="none"
         id="path63" /></g><g
       text-rendering="geometricPrecision"
       id="g65"><path
         clip-path="url(#785193004835-clipPath1)"
         d="m 61.1046,416.879 v 0 l 24.0155,13.8662 c 0.2128,0.1228 0.2857,0.3949 0.1628,0.6077 -0.1228,0.2127 -0.3949,0.2856 -0.6076,0.1628 v 0 L 60.6597,417.6495 c -0.2128,-0.1229 -0.2856,-0.395 -0.1628,-0.6077 0.1228,-0.2128 0.3949,-0.2856 0.6077,-0.1628 z"
         stroke="none"
         id="path64" /></g><g
       text-rendering="geometricPrecision"
       id="g66"><path
         clip-path="url(#785193004835-clipPath1)"
         d="m 85.0606,427.0571 c -0.2128,0.1228 -0.2857,0.3949 -0.1629,0.6077 0.1229,0.2127 0.3949,0.2856 0.6077,0.1628 l 20.2455,-11.6886 c 0.2127,-0.1228 0.2856,-0.3949 0.1628,-0.6076 -0.1228,-0.2128 -0.3949,-0.2857 -0.6077,-0.1628 z m -0.3853,3.6881 c -0.2128,0.1228 -0.2857,0.3949 -0.1629,0.6076 0.1229,0.2128 0.3949,0.2857 0.6077,0.1629 l 24.0174,-13.8662 c 0.2127,-0.1229 0.2856,-0.3949 0.1628,-0.6077 -0.1229,-0.2128 -0.3949,-0.2856 -0.6077,-0.1628 z"
         stroke="none"
         id="path65" /></g><g
       text-rendering="geometricPrecision"
       id="g67"><path
         clip-path="url(#785193004835-clipPath1)"
         d="m 108.4702,417.2642 v 0 -27.7324 c 0,-0.2457 0.1992,-0.4448 0.4448,-0.4448 0.2457,0 0.4449,0.1991 0.4449,0.4448 v 0 27.7324 c 0,0.2457 -0.1992,0.4449 -0.4449,0.4449 -0.2456,0 -0.4448,-0.1992 -0.4448,-0.4449 z"
         stroke="none"
         id="path66" /></g><g
       text-rendering="geometricPrecision"
       id="g68"><path
         clip-path="url(#785193004835-clipPath1)"
         d="m 85.1201,375.2786 c -0.2127,-0.1229 -0.4848,-0.05 -0.6076,0.1628 -0.1229,0.2127 -0.05,0.4848 0.1627,0.6076 l 24.0174,13.8681 c 0.2128,0.1228 0.4848,0.0499 0.6077,-0.1629 0.1228,-0.2127 0.0499,-0.4848 -0.1628,-0.6076 z m 0.3853,3.6882 c -0.2127,-0.1228 -0.4848,-0.05 -0.6077,0.1628 -0.1228,0.2127 -0.0499,0.4848 0.1628,0.6077 l 20.2455,11.69 c 0.2128,0.1229 0.4848,0.05 0.6077,-0.1627 0.1228,-0.2128 0.05,-0.4849 -0.1628,-0.6077 z"
         stroke="none"
         id="path67" /></g><g
       text-rendering="geometricPrecision"
       id="g69"><path
         clip-path="url(#785193004835-clipPath1)"
         d="m 349.3074,416.8808 v 0 l 24.0155,13.8662 c 0.2128,0.1228 0.2857,0.3949 0.1628,0.6077 -0.1228,0.2127 -0.3948,0.2856 -0.6076,0.1628 v 0 l -24.0156,-13.8662 c -0.2127,-0.1229 -0.2856,-0.395 -0.1628,-0.6077 0.1229,-0.2128 0.3949,-0.2856 0.6077,-0.1628 z"
         stroke="none"
         id="path68" /></g><g
       text-rendering="geometricPrecision"
       id="g70"><path
         clip-path="url(#785193004835-clipPath1)"
         d="m 373.2634,427.0589 c -0.2128,0.1228 -0.2857,0.3949 -0.1628,0.6077 0.1228,0.2127 0.3949,0.2856 0.6076,0.1628 l 20.2455,-11.6886 c 0.2128,-0.1228 0.2856,-0.3949 0.1628,-0.6076 -0.1228,-0.2128 -0.3949,-0.2857 -0.6076,-0.1628 z m -0.3853,3.6881 c -0.2128,0.1228 -0.2857,0.3949 -0.1628,0.6076 0.1228,0.2128 0.3949,0.2857 0.6076,0.1629 l 24.0174,-13.8662 c 0.2127,-0.1229 0.2856,-0.3949 0.1628,-0.6077 -0.1228,-0.2128 -0.3949,-0.2856 -0.6077,-0.1628 z"
         stroke="none"
         id="path69" /></g><g
       text-rendering="geometricPrecision"
       id="g71"><path
         clip-path="url(#785193004835-clipPath1)"
         d="m 396.673,417.266 v 0 -27.7324 c 0,-0.2457 0.1992,-0.4448 0.4449,-0.4448 0.2457,0 0.4448,0.1991 0.4448,0.4448 v 0 27.7324 c 0,0.2457 -0.1991,0.4449 -0.4448,0.4449 -0.2457,0 -0.4449,-0.1992 -0.4449,-0.4449 z"
         stroke="none"
         id="path70" /></g><g
       text-rendering="geometricPrecision"
       id="g72"><path
         clip-path="url(#785193004835-clipPath1)"
         d="m 373.3229,375.2804 c -0.2127,-0.1229 -0.4848,-0.05 -0.6076,0.1628 -0.1229,0.2127 -0.05,0.4848 0.1628,0.6076 l 24.0173,13.8681 c 0.2128,0.1228 0.4848,0.0499 0.6077,-0.1629 0.1228,-0.2127 0.05,-0.4848 -0.1628,-0.6076 z m 0.3854,3.6882 c -0.2128,-0.1228 -0.4849,-0.05 -0.6077,0.1628 -0.1229,0.2127 -0.05,0.4848 0.1628,0.6077 l 20.2455,11.69 c 0.2127,0.1229 0.4848,0.05 0.6076,-0.1627 0.1229,-0.2128 0.05,-0.4849 -0.1628,-0.6077 z"
         stroke="none"
         id="path71" /></g><g
       text-rendering="geometricPrecision"
       id="g73"><path
         clip-path="url(#785193004835-clipPath1)"
         d="m 373.323,376.0508 v 0 l -24.0156,13.8681 c -0.2127,0.1228 -0.4848,0.0499 -0.6077,-0.1628 -0.1228,-0.2128 -0.05,-0.4849 0.1628,-0.6077 v 0 l 24.0156,-13.868 c 0.2127,-0.1229 0.4848,-0.05 0.6076,0.1627 0.1229,0.2128 0.05,0.4849 -0.1627,0.6077 z"
         stroke="none"
         id="path72" /></g><g
       text-rendering="geometricPrecision"
       id="g74"><path
         clip-path="url(#785193004835-clipPath1)"
         d="m 352.5312,391.7111 c 0,-0.2456 -0.1992,-0.4448 -0.4449,-0.4448 -0.2457,0 -0.4448,0.1992 -0.4448,0.4448 v 23.3773 c 0,0.2457 0.1991,0.4449 0.4448,0.4449 0.2457,0 0.4449,-0.1992 0.4449,-0.4449 z m -3.0014,-2.1775 c 0,-0.2457 -0.1992,-0.4448 -0.4448,-0.4448 -0.2457,0 -0.4449,0.1991 -0.4449,0.4448 v 27.7324 c 0,0.2457 0.1992,0.4449 0.4449,0.4449 0.2456,0 0.4448,-0.1992 0.4448,-0.4449 z"
         stroke="none"
         id="path73" /></g><g
       text-rendering="geometricPrecision"
       id="g75"><path
         clip-path="url(#785193004835-clipPath1)"
         d="m 397.3403,416.8808 v 0 l 24.0173,13.8662 c 0.2128,0.1228 0.2857,0.3949 0.1628,0.6076 -0.1228,0.2128 -0.3948,0.2857 -0.6076,0.1629 v 0 l -24.0174,-13.8662 c -0.2127,-0.1229 -0.2856,-0.3949 -0.1628,-0.6077 0.1229,-0.2128 0.3949,-0.2856 0.6077,-0.1628 z"
         stroke="none"
         id="path74" /></g><g
       text-rendering="geometricPrecision"
       id="g76"><path
         clip-path="url(#785193004835-clipPath1)"
         d="m 61.1046,417.6495 v 0 l -24.0174,13.8662 c -0.2128,0.1228 -0.4848,0.0499 -0.6077,-0.1629 -0.1228,-0.2127 -0.0499,-0.4848 0.1629,-0.6076 v 0 L 60.6597,416.879 c 0.2128,-0.1228 0.4848,-0.05 0.6077,0.1628 0.1228,0.2128 0.0499,0.4848 -0.1628,0.6077 z"
         stroke="none"
         id="path75" /></g><g
       text-rendering="geometricPrecision"
       id="g77"><path
         clip-path="url(#785193004835-clipPath1)"
         d="m 38.5879,434.1149 c 0.2127,-0.1228 0.2856,-0.3949 0.1628,-0.6076 -0.1229,-0.2128 -0.3949,-0.2857 -0.6077,-0.1628 l -19.3405,11.166 c -0.2127,0.1229 -0.2856,0.3949 -0.1628,0.6077 0.1228,0.2127 0.3949,0.2856 0.6077,0.1628 z m -1.5007,-2.5992 c 0.2128,-0.1228 0.2857,-0.3949 0.1628,-0.6077 -0.1228,-0.2127 -0.3949,-0.2857 -0.6076,-0.1628 l -19.3405,11.1661 c -0.2128,0.1228 -0.2857,0.3949 -0.1629,0.6076 0.1229,0.2128 0.3949,0.2857 0.6077,0.1628 z m -1.5007,-2.5993 c 0.2128,-0.1228 0.2857,-0.3949 0.1629,-0.6076 -0.1229,-0.2128 -0.3949,-0.2857 -0.6077,-0.1629 L 15.8012,439.312 c -0.2127,0.1228 -0.2856,0.3949 -0.1628,0.6077 0.1228,0.2127 0.3949,0.2856 0.6077,0.1628 z"
         stroke="none"
         id="path76" /></g><g
       text-rendering="geometricPrecision"
       id="g78"><path
         clip-path="url(#785193004835-clipPath1)"
         d="m 422.8583,428.1477 c -0.2128,-0.1228 -0.4848,-0.0499 -0.6077,0.1629 -0.1228,0.2127 -0.0499,0.4848 0.1629,0.6076 l 19.3404,11.1661 c 0.2128,0.1228 0.4849,0.0499 0.6077,-0.1628 0.1228,-0.2128 0.05,-0.4849 -0.1628,-0.6077 z m -1.5007,2.5993 c -0.2127,-0.1229 -0.4848,-0.0499 -0.6076,0.1628 -0.1229,0.2128 -0.05,0.4849 0.1628,0.6077 l 19.3405,11.166 c 0.2128,0.1229 0.4848,0.05 0.6077,-0.1628 0.1228,-0.2127 0.0499,-0.4848 -0.1629,-0.6076 z m -1.5006,2.5993 c -0.2128,-0.1229 -0.4848,-0.05 -0.6077,0.1628 -0.1228,0.2127 -0.0499,0.4848 0.1628,0.6076 l 19.3406,11.1661 c 0.2127,0.1228 0.4848,0.0499 0.6076,-0.1628 0.1228,-0.2128 0.0499,-0.4848 -0.1628,-0.6077 z"
         stroke="none"
         id="path77" /></g><g
       text-rendering="geometricPrecision"
       id="g79"><path
         clip-path="url(#785193004835-clipPath1)"
         d="m 157.1722,474.7765 v 0 l -24.0174,13.8662 c -0.2128,0.1228 -0.4848,0.0499 -0.6077,-0.1629 -0.1228,-0.2127 -0.0499,-0.4848 0.1629,-0.6076 v 0 l 24.0173,-13.8662 c 0.2128,-0.1229 0.4848,-0.05 0.6077,0.1628 0.1228,0.2128 0.0499,0.4848 -0.1628,0.6077 z"
         stroke="none"
         id="path78" /></g><g
       text-rendering="geometricPrecision"
       id="g80"><path
         clip-path="url(#785193004835-clipPath1)"
         d="m 136.3786,490.4351 c 0,-0.2457 -0.1992,-0.4448 -0.4449,-0.4448 -0.2456,0 -0.4448,0.1991 -0.4448,0.4448 v 23.377 c 0,0.2457 0.1992,0.4449 0.4448,0.4449 0.2457,0 0.4449,-0.1992 0.4449,-0.4449 z m -3.0014,-2.1777 c 0,-0.2457 -0.1991,-0.4448 -0.4448,-0.4448 -0.2457,0 -0.4449,0.1991 -0.4449,0.4448 v 27.7324 c 0,0.2457 0.1992,0.4449 0.4449,0.4449 0.2457,0 0.4448,-0.1992 0.4448,-0.4449 z"
         stroke="none"
         id="path79" /></g><g
       text-rendering="geometricPrecision"
       id="g81"><path
         clip-path="url(#785193004835-clipPath1)"
         d="m 133.1548,515.6046 v 0 l 24.0174,13.8662 c 0.2127,0.1228 0.2856,0.3949 0.1628,0.6076 -0.1229,0.2128 -0.3949,0.2857 -0.6077,0.1629 v 0 L 132.71,516.3751 c -0.2128,-0.1228 -0.2857,-0.3949 -0.1629,-0.6077 0.1229,-0.2128 0.3949,-0.2856 0.6077,-0.1628 z"
         stroke="none"
         id="path80" /></g><g
       text-rendering="geometricPrecision"
       id="g82"><path
         clip-path="url(#785193004835-clipPath1)"
         d="m 157.1125,525.7827 c -0.2128,0.1228 -0.2857,0.3949 -0.1628,0.6077 0.1228,0.2127 0.3949,0.2856 0.6077,0.1628 l 20.2437,-11.6885 c 0.2128,-0.1228 0.2857,-0.3949 0.1629,-0.6076 -0.1229,-0.2128 -0.395,-0.2857 -0.6077,-0.1629 z m -0.3852,3.6881 c -0.2127,0.1228 -0.2856,0.3949 -0.1628,0.6077 0.1228,0.2127 0.3949,0.2856 0.6077,0.1628 l 24.0155,-13.8662 c 0.2128,-0.1229 0.2857,-0.3949 0.1628,-0.6077 -0.1228,-0.2128 -0.3949,-0.2856 -0.6076,-0.1628 z"
         stroke="none"
         id="path81" /></g><g
       text-rendering="geometricPrecision"
       id="g83"><path
         clip-path="url(#785193004835-clipPath1)"
         d="m 180.5205,515.9898 v 0 -27.7324 c 0,-0.2457 0.1991,-0.4448 0.4448,-0.4448 0.2457,0 0.4448,0.1991 0.4448,0.4448 v 0 27.7324 c 0,0.2457 -0.1991,0.4449 -0.4448,0.4449 -0.2457,0 -0.4448,-0.1992 -0.4448,-0.4449 z"
         stroke="none"
         id="path82" /></g><g
       text-rendering="geometricPrecision"
       id="g84"><path
         clip-path="url(#785193004835-clipPath1)"
         d="m 157.1722,474.006 c -0.2128,-0.1229 -0.4849,-0.05 -0.6077,0.1628 -0.1228,0.2127 -0.0499,0.4848 0.1628,0.6076 l 24.0156,13.8662 c 0.2127,0.1229 0.4848,0.05 0.6076,-0.1627 0.1229,-0.2128 0.05,-0.4849 -0.1628,-0.6077 z m 0.3852,3.6881 c -0.2128,-0.1229 -0.4849,-0.05 -0.6077,0.1628 -0.1229,0.2127 -0.05,0.4848 0.1628,0.6076 l 20.2438,11.6885 c 0.2127,0.1228 0.4848,0.0499 0.6077,-0.1628 0.1228,-0.2128 0.0499,-0.4848 -0.1629,-0.6077 z"
         stroke="none"
         id="path83" /></g><g
       text-rendering="geometricPrecision"
       id="g85"><path
         clip-path="url(#785193004835-clipPath1)"
         d="m 180.7429,487.8722 v 0 l 24.0173,-13.8662 c 0.2128,-0.1229 0.4849,-0.05 0.6077,0.1628 0.1228,0.2128 0.0499,0.4848 -0.1628,0.6077 v 0 l -24.0174,13.8662 c -0.2128,0.1228 -0.4848,0.0499 -0.6077,-0.1629 -0.1228,-0.2127 -0.0499,-0.4848 0.1629,-0.6076 z"
         stroke="none"
         id="path84" /></g><g
       text-rendering="geometricPrecision"
       id="g86"><path
         clip-path="url(#785193004835-clipPath1)"
         d="m 204.5378,474.3912 c 0,0.2457 0.1992,0.4449 0.4449,0.4449 0.2456,0 0.4448,-0.1992 0.4448,-0.4449 v -21.3925 c 0,-0.2457 -0.1992,-0.4448 -0.4448,-0.4448 -0.2457,0 -0.4449,0.1991 -0.4449,0.4448 z m 3.0014,-2.1777 c 0,0.2457 0.1991,0.4449 0.4448,0.4449 0.2457,0 0.4448,-0.1992 0.4448,-0.4449 v -19.2148 c 0,-0.2457 -0.1991,-0.4448 -0.4448,-0.4448 -0.2457,0 -0.4448,0.1991 -0.4448,0.4448 z"
         stroke="none"
         id="path85" /></g><g
       text-rendering="geometricPrecision"
       id="g87"><path
         clip-path="url(#785193004835-clipPath1)"
         d="m 205.2051,474.006 v 0 l 24.0173,13.8662 c 0.2128,0.1228 0.2857,0.3949 0.1628,0.6076 -0.1228,0.2128 -0.3949,0.2857 -0.6076,0.1629 v 0 l -24.0174,-13.8662 c -0.2127,-0.1229 -0.2856,-0.3949 -0.1628,-0.6077 0.1228,-0.2128 0.3949,-0.2857 0.6077,-0.1628 z"
         stroke="none"
         id="path86" /></g><g
       text-rendering="geometricPrecision"
       id="g88"><path
         clip-path="url(#785193004835-clipPath1)"
         d="m 229.1628,484.1841 c -0.2127,0.1228 -0.2856,0.3949 -0.1628,0.6077 0.1228,0.2127 0.3949,0.2857 0.6077,0.1628 l 20.2455,-11.6886 c 0.2127,-0.1228 0.2856,-0.3949 0.1628,-0.6076 -0.1228,-0.2128 -0.3949,-0.2857 -0.6076,-0.1629 z m -0.3852,3.6881 c -0.2128,0.1228 -0.2857,0.3949 -0.1628,0.6076 0.1228,0.2128 0.3949,0.2857 0.6076,0.1629 l 24.0174,-13.8662 c 0.2127,-0.1229 0.2856,-0.3949 0.1628,-0.6077 -0.1228,-0.2128 -0.3949,-0.2857 -0.6077,-0.1628 z"
         stroke="none"
         id="path87" /></g><g
       text-rendering="geometricPrecision"
       id="g89"><path
         clip-path="url(#785193004835-clipPath1)"
         d="m 253.2398,474.006 v 0 l 24.0155,13.8662 c 0.2128,0.1228 0.2857,0.3949 0.1629,0.6077 -0.1229,0.2127 -0.395,0.2856 -0.6077,0.1627 v 0 l -24.0156,-13.8662 c -0.2127,-0.1228 -0.2856,-0.3949 -0.1628,-0.6076 0.1229,-0.2128 0.3949,-0.2857 0.6077,-0.1628 z"
         stroke="none"
         id="path88" /></g><g
       text-rendering="geometricPrecision"
       id="g90"><path
         clip-path="url(#785193004835-clipPath1)"
         d="m 252.5725,474.3912 v 0 -21.3925 c 0,-0.2457 0.1992,-0.4448 0.4448,-0.4448 0.2457,0 0.4449,0.1991 0.4449,0.4448 v 0 21.3925 c 0,0.2457 -0.1992,0.4449 -0.4449,0.4449 -0.2456,0 -0.4448,-0.1992 -0.4448,-0.4449 z"
         stroke="none"
         id="path89" /></g><g
       text-rendering="geometricPrecision"
       id="g91"><path
         clip-path="url(#785193004835-clipPath1)"
         d="m 277.2553,515.6064 v 0 l 24.0174,13.8662 c 0.2127,0.1229 0.2856,0.3949 0.1628,0.6077 -0.1228,0.2127 -0.3949,0.2856 -0.6076,0.1628 v 0 l -24.0174,-13.8662 c -0.2128,-0.1229 -0.2857,-0.3949 -0.1628,-0.6077 0.1228,-0.2127 0.3949,-0.2857 0.6076,-0.1628 z"
         stroke="none"
         id="path90" /></g><g
       text-rendering="geometricPrecision"
       id="g92"><path
         clip-path="url(#785193004835-clipPath1)"
         d="m 301.2131,525.7845 c -0.2128,0.1228 -0.2857,0.3949 -0.1628,0.6077 0.1228,0.2128 0.3949,0.2857 0.6076,0.1629 l 20.2455,-11.6886 c 0.2128,-0.1229 0.2857,-0.3949 0.1629,-0.6077 -0.1229,-0.2128 -0.3949,-0.2857 -0.6077,-0.1629 z m -0.3852,3.6881 c -0.2128,0.1229 -0.2857,0.3949 -0.1629,0.6077 0.1228,0.2127 0.3949,0.2856 0.6077,0.1628 L 325.29,516.3769 c 0.2128,-0.1229 0.2857,-0.3949 0.1629,-0.6077 -0.1229,-0.2127 -0.3949,-0.2857 -0.6077,-0.1628 z"
         stroke="none"
         id="path91" /></g><g
       text-rendering="geometricPrecision"
       id="g93"><path
         clip-path="url(#785193004835-clipPath1)"
         d="m 324.6228,515.9916 v 0 -27.7342 c 0,-0.2457 0.1991,-0.4448 0.4448,-0.4448 0.2457,0 0.4449,0.1991 0.4449,0.4448 v 0 27.7342 c 0,0.2457 -0.1992,0.4449 -0.4449,0.4449 -0.2457,0 -0.4448,-0.1992 -0.4448,-0.4449 z"
         stroke="none"
         id="path92" /></g><g
       text-rendering="geometricPrecision"
       id="g94"><path
         clip-path="url(#785193004835-clipPath1)"
         d="m 301.2727,474.006 c -0.2128,-0.1229 -0.4849,-0.05 -0.6077,0.1628 -0.1228,0.2128 -0.0499,0.4848 0.1629,0.6077 l 24.0173,13.8662 c 0.2128,0.1228 0.4848,0.0499 0.6077,-0.1629 0.1228,-0.2127 0.0499,-0.4848 -0.1629,-0.6076 z m 0.3852,3.688 c -0.2127,-0.1228 -0.4848,-0.0499 -0.6076,0.1628 -0.1229,0.2128 -0.05,0.4849 0.1628,0.6077 l 20.2455,11.6886 c 0.2128,0.1228 0.4848,0.0499 0.6077,-0.1628 0.1228,-0.2128 0.0499,-0.4849 -0.1629,-0.6077 z"
         stroke="none"
         id="path93" /></g><g
       text-rendering="geometricPrecision"
       id="g95"><path
         clip-path="url(#785193004835-clipPath1)"
         d="m 301.2727,474.7765 v 0 l -24.0174,13.8662 c -0.2127,0.1228 -0.4848,0.0499 -0.6076,-0.1629 -0.1229,-0.2127 -0.05,-0.4848 0.1628,-0.6076 v 0 l 24.0174,-13.8662 c 0.2127,-0.1229 0.4848,-0.05 0.6076,0.1628 0.1228,0.2128 0.0499,0.4848 -0.1628,0.6077 z"
         stroke="none"
         id="path94" /></g><g
       text-rendering="geometricPrecision"
       id="g96"><path
         clip-path="url(#785193004835-clipPath1)"
         d="m 280.4791,490.4351 c 0,-0.2457 -0.1992,-0.4448 -0.4449,-0.4448 -0.2456,0 -0.4448,0.1991 -0.4448,0.4448 v 23.3789 c 0,0.2456 0.1992,0.4448 0.4448,0.4448 0.2457,0 0.4449,-0.1992 0.4449,-0.4448 z m -3.0013,-2.1777 c 0,-0.2457 -0.1992,-0.4448 -0.4449,-0.4448 -0.2457,0 -0.4448,0.1991 -0.4448,0.4448 v 27.7342 c 0,0.2457 0.1991,0.4449 0.4448,0.4449 0.2457,0 0.4449,-0.1992 0.4449,-0.4449 z"
         stroke="none"
         id="path95" /></g><g
       text-rendering="geometricPrecision"
       id="g97"><path
         clip-path="url(#785193004835-clipPath1)"
         d="m 133.1548,516.3751 v 0 l -24.0173,13.8662 c -0.2128,0.1228 -0.4849,0.0499 -0.6077,-0.1629 -0.1228,-0.2127 -0.0499,-0.4848 0.1628,-0.6076 v 0 L 132.71,515.6046 c 0.2127,-0.1228 0.4848,-0.05 0.6076,0.1628 0.1229,0.2128 0.05,0.4849 -0.1628,0.6077 z"
         stroke="none"
         id="path96" /></g><g
       text-rendering="geometricPrecision"
       id="g98"><path
         clip-path="url(#785193004835-clipPath1)"
         d="m 325.29,515.6064 v 0 l 24.0174,13.8662 c 0.2127,0.1229 0.2856,0.3949 0.1628,0.6077 -0.1228,0.2127 -0.3949,0.2856 -0.6077,0.1628 v 0 l -24.0173,-13.8662 c -0.2128,-0.1229 -0.2857,-0.3949 -0.1628,-0.6077 0.1228,-0.2127 0.3949,-0.2857 0.6076,-0.1628 z"
         stroke="none"
         id="path97" /></g><g
       text-rendering="geometricPrecision"
       id="g99"><path
         clip-path="url(#785193004835-clipPath1)"
         d="m 85.1219,516.3732 v 0 l -24.0173,13.8681 c -0.2128,0.1228 -0.4848,0.05 -0.6077,-0.1628 -0.1228,-0.2128 -0.05,-0.4849 0.1628,-0.6077 v 0 l 24.0173,-13.868 c 0.2128,-0.1229 0.4849,-0.0499 0.6077,0.1628 0.1229,0.2127 0.05,0.4848 -0.1628,0.6076 z"
         stroke="none"
         id="path98" /></g><g
       text-rendering="geometricPrecision"
       id="g100"><path
         clip-path="url(#785193004835-clipPath1)"
         d="m 64.3283,532.0336 c 0,-0.2457 -0.1991,-0.4449 -0.4448,-0.4449 -0.2457,0 -0.4449,0.1992 -0.4449,0.4449 v 23.3772 c 0,0.2456 0.1992,0.4448 0.4449,0.4448 0.2457,0 0.4448,-0.1992 0.4448,-0.4448 z M 61.327,529.856 c 0,-0.2456 -0.1992,-0.4448 -0.4449,-0.4448 -0.2456,0 -0.4448,0.1992 -0.4448,0.4448 v 27.7324 c 0,0.2457 0.1992,0.4449 0.4448,0.4449 0.2457,0 0.4449,-0.1992 0.4449,-0.4449 z"
         stroke="none"
         id="path99" /></g><g
       text-rendering="geometricPrecision"
       id="g101"><path
         clip-path="url(#785193004835-clipPath1)"
         d="m 61.1046,557.2032 v 0 l 24.0173,13.8662 c 0.2128,0.1229 0.2857,0.3949 0.1628,0.6077 -0.1228,0.2127 -0.3949,0.2857 -0.6076,0.1628 v 0 L 60.6597,557.9737 c -0.2127,-0.1229 -0.2856,-0.3949 -0.1628,-0.6077 0.1228,-0.2127 0.3949,-0.2856 0.6077,-0.1628 z"
         stroke="none"
         id="path100" /></g><g
       text-rendering="geometricPrecision"
       id="g102"><path
         clip-path="url(#785193004835-clipPath1)"
         d="m 85.0622,567.3813 c -0.2127,0.1229 -0.2856,0.3949 -0.1628,0.6077 0.1229,0.2127 0.3949,0.2857 0.6077,0.1628 l 20.2438,-11.6885 c 0.2127,-0.1228 0.2856,-0.3949 0.1628,-0.6076 -0.1229,-0.2128 -0.3949,-0.2857 -0.6077,-0.1628 z m -0.3851,3.6881 c -0.2128,0.1229 -0.2857,0.395 -0.1628,0.6077 0.1228,0.2127 0.3949,0.2857 0.6076,0.1628 l 24.0156,-13.8662 c 0.2127,-0.1229 0.2856,-0.3949 0.1628,-0.6077 -0.1229,-0.2127 -0.3949,-0.2856 -0.6077,-0.1628 z"
         stroke="none"
         id="path101" /></g><g
       text-rendering="geometricPrecision"
       id="g103"><path
         clip-path="url(#785193004835-clipPath1)"
         d="m 108.4702,557.5884 v 0 -27.7324 c 0,-0.2456 0.1992,-0.4448 0.4448,-0.4448 0.2457,0 0.4449,0.1992 0.4449,0.4448 v 0 27.7324 c 0,0.2457 -0.1992,0.4449 -0.4449,0.4449 -0.2456,0 -0.4448,-0.1992 -0.4448,-0.4449 z"
         stroke="none"
         id="path102" /></g><g
       text-rendering="geometricPrecision"
       id="g104"><path
         clip-path="url(#785193004835-clipPath1)"
         d="m 85.1219,515.6028 c -0.2127,-0.1229 -0.4848,-0.05 -0.6076,0.1628 -0.1229,0.2127 -0.05,0.4848 0.1627,0.6076 l 24.0156,13.8681 c 0.2127,0.1228 0.4848,0.05 0.6077,-0.1628 0.1228,-0.2128 0.0499,-0.4848 -0.1628,-0.6077 z m 0.3852,3.6882 c -0.2128,-0.1228 -0.4848,-0.0499 -0.6077,0.1628 -0.1228,0.2128 -0.05,0.4849 0.1628,0.6077 l 20.2438,11.69 c 0.2128,0.1228 0.4848,0.05 0.6077,-0.1628 0.1229,-0.2127 0.05,-0.4848 -0.1628,-0.6077 z"
         stroke="none"
         id="path103" /></g><g
       text-rendering="geometricPrecision"
       id="g105"><path
         clip-path="url(#785193004835-clipPath1)"
         d="m 349.3074,557.205 v 0 l 24.0173,13.8662 c 0.2128,0.1228 0.2857,0.3949 0.1628,0.6077 -0.1228,0.2128 -0.3948,0.2856 -0.6076,0.1628 v 0 l -24.0174,-13.8662 c -0.2127,-0.1228 -0.2856,-0.3949 -0.1628,-0.6076 0.1229,-0.2128 0.3949,-0.2857 0.6077,-0.1629 z"
         stroke="none"
         id="path104" /></g><g
       text-rendering="geometricPrecision"
       id="g106"><path
         clip-path="url(#785193004835-clipPath1)"
         d="m 373.2651,567.3831 c -0.2128,0.1229 -0.2857,0.3949 -0.1628,0.6077 0.1228,0.2128 0.3949,0.2856 0.6076,0.1628 l 20.2438,-11.6885 c 0.2128,-0.1228 0.2857,-0.3948 0.1628,-0.6076 -0.1228,-0.2128 -0.3949,-0.2857 -0.6076,-0.1628 z m -0.3852,3.6881 c -0.2128,0.1229 -0.2857,0.3949 -0.1628,0.6077 0.1228,0.2128 0.3949,0.2856 0.6076,0.1628 l 24.0156,-13.8662 c 0.2127,-0.1228 0.2856,-0.3949 0.1628,-0.6077 -0.1229,-0.2127 -0.3949,-0.2856 -0.6077,-0.1628 z"
         stroke="none"
         id="path105" /></g><g
       text-rendering="geometricPrecision"
       id="g107"><path
         clip-path="url(#785193004835-clipPath1)"
         d="m 396.673,557.5903 v 0 -27.7325 c 0,-0.2456 0.1992,-0.4448 0.4449,-0.4448 0.2457,0 0.4448,0.1992 0.4448,0.4448 v 0 27.7325 c 0,0.2456 -0.1991,0.4448 -0.4448,0.4448 -0.2457,0 -0.4449,-0.1992 -0.4449,-0.4448 z"
         stroke="none"
         id="path106" /></g><g
       text-rendering="geometricPrecision"
       id="g108"><path
         clip-path="url(#785193004835-clipPath1)"
         d="m 373.3248,515.6046 c -0.2128,-0.1228 -0.4849,-0.05 -0.6077,0.1628 -0.1229,0.2127 -0.05,0.4848 0.1628,0.6077 l 24.0155,13.8679 c 0.2128,0.1229 0.4848,0.05 0.6077,-0.1627 0.1228,-0.2127 0.05,-0.4848 -0.1628,-0.6077 z m 0.3851,3.6882 c -0.2127,-0.1228 -0.4848,-0.0499 -0.6076,0.1628 -0.1229,0.2128 -0.05,0.4848 0.1627,0.6077 l 20.2439,11.69 c 0.2127,0.1229 0.4848,0.05 0.6076,-0.1628 0.1229,-0.2128 0.05,-0.4848 -0.1628,-0.6077 z"
         stroke="none"
         id="path107" /></g><g
       text-rendering="geometricPrecision"
       id="g109"><path
         clip-path="url(#785193004835-clipPath1)"
         d="m 373.3247,516.3751 v 0 l -24.0173,13.8679 c -0.2128,0.1229 -0.4848,0.05 -0.6077,-0.1627 -0.1228,-0.2128 -0.0499,-0.4848 0.1628,-0.6077 v 0 l 24.0174,-13.868 c 0.2127,-0.1228 0.4848,-0.05 0.6076,0.1628 0.1229,0.2128 0.05,0.4848 -0.1628,0.6077 z"
         stroke="none"
         id="path108" /></g><g
       text-rendering="geometricPrecision"
       id="g110"><path
         clip-path="url(#785193004835-clipPath1)"
         d="m 352.5312,532.0354 c 0,-0.2457 -0.1992,-0.4448 -0.4449,-0.4448 -0.2457,0 -0.4448,0.1991 -0.4448,0.4448 v 23.3772 c 0,0.2457 0.1991,0.4448 0.4448,0.4448 0.2457,0 0.4449,-0.1991 0.4449,-0.4448 z m -3.0014,-2.1776 c 0,-0.2456 -0.1992,-0.4448 -0.4448,-0.4448 -0.2457,0 -0.4449,0.1992 -0.4449,0.4448 v 27.7325 c 0,0.2456 0.1992,0.4448 0.4449,0.4448 0.2456,0 0.4448,-0.1992 0.4448,-0.4448 z"
         stroke="none"
         id="path109" /></g><g
       text-rendering="geometricPrecision"
       id="g111"><path
         clip-path="url(#785193004835-clipPath1)"
         d="m 397.3403,557.205 v 0 l 24.0173,13.8662 c 0.2128,0.1228 0.2857,0.3949 0.1628,0.6077 -0.1228,0.2128 -0.3948,0.2856 -0.6076,0.1628 v 0 l -24.0174,-13.8662 c -0.2127,-0.1228 -0.2856,-0.3949 -0.1628,-0.6076 0.1229,-0.2128 0.3949,-0.2857 0.6077,-0.1629 z"
         stroke="none"
         id="path110" /></g><g
       text-rendering="geometricPrecision"
       id="g112"><path
         clip-path="url(#785193004835-clipPath1)"
         d="m 61.1046,557.9737 v 0 l -24.0174,13.8662 c -0.2128,0.1229 -0.4848,0.0499 -0.6077,-0.1628 -0.1228,-0.2128 -0.0499,-0.4848 0.1629,-0.6077 v 0 l 24.0173,-13.8662 c 0.2128,-0.1228 0.4848,-0.0499 0.6077,0.1628 0.1228,0.2128 0.0499,0.4848 -0.1628,0.6077 z"
         stroke="none"
         id="path111" /></g><g
       text-rendering="geometricPrecision"
       id="g113"><path
         clip-path="url(#785193004835-clipPath1)"
         d="m 38.5879,574.4391 c 0.2127,-0.1228 0.2856,-0.3948 0.1628,-0.6076 -0.1229,-0.2128 -0.3949,-0.2857 -0.6077,-0.1629 l -19.3405,11.1661 c -0.2127,0.1229 -0.2856,0.3949 -0.1628,0.6077 0.1228,0.2128 0.3949,0.2856 0.6077,0.1628 z m -1.5007,-2.5992 c 0.2128,-0.1229 0.2857,-0.3949 0.1628,-0.6077 -0.1228,-0.2127 -0.3949,-0.2856 -0.6076,-0.1628 l -19.3405,11.1661 c -0.2128,0.1228 -0.2857,0.3949 -0.1629,0.6076 0.1229,0.2128 0.3949,0.2857 0.6077,0.1629 z m -1.5007,-2.5992 c 0.2128,-0.1229 0.2857,-0.3949 0.1629,-0.6077 -0.1229,-0.2128 -0.3949,-0.2856 -0.6077,-0.1628 l -19.3405,11.166 c -0.2127,0.1229 -0.2856,0.3949 -0.1628,0.6077 0.1228,0.2128 0.3949,0.2856 0.6077,0.1628 z"
         stroke="none"
         id="path112" /></g><g
       text-rendering="geometricPrecision"
       id="g114"><path
         clip-path="url(#785193004835-clipPath1)"
         d="m 422.8583,568.472 c -0.2128,-0.1229 -0.4848,-0.0499 -0.6077,0.1628 -0.1228,0.2127 -0.0499,0.4848 0.1629,0.6076 l 19.3404,11.1661 c 0.2128,0.1229 0.4849,0.0499 0.6077,-0.1628 0.1228,-0.2127 0.05,-0.4848 -0.1628,-0.6076 z m -1.5007,2.5992 c -0.2127,-0.1228 -0.4848,-0.0499 -0.6076,0.1629 -0.1229,0.2127 -0.05,0.4848 0.1628,0.6076 l 19.3405,11.1661 c 0.2128,0.1228 0.4848,0.0499 0.6077,-0.1628 0.1228,-0.2128 0.0499,-0.4849 -0.1629,-0.6077 z m -1.5006,2.5993 c -0.2128,-0.1229 -0.4848,-0.05 -0.6077,0.1628 -0.1228,0.2128 -0.0499,0.4848 0.1628,0.6077 l 19.3406,11.166 c 0.2127,0.1229 0.4848,0.05 0.6076,-0.1628 0.1228,-0.2128 0.0499,-0.4848 -0.1628,-0.6077 z"
         stroke="none"
         id="path113" /></g><g
       text-rendering="geometricPrecision"
       id="g115"><path
         clip-path="url(#785193004835-clipPath1)"
         d="m 209.6058,446.214 v 0 h 38.7884 c 0.2457,0 0.4449,0.1991 0.4449,0.4448 0,0.2457 -0.1992,0.4448 -0.4449,0.4448 v 0 h -38.7884 c -0.2457,0 -0.4449,-0.1991 -0.4449,-0.4448 0,-0.2457 0.1992,-0.4448 0.4449,-0.4448 z"
         stroke="none"
         id="path114" /></g><g
       text-rendering="geometricPrecision"
       id="g116"><path
         clip-path="url(#785193004835-clipPath1)"
         d="m 156.5735,42.8926 v 0 l -24.0174,13.8663 c -0.2127,0.1228 -0.4848,0.0499 -0.6076,-0.1629 -0.1229,-0.2127 -0.05,-0.4848 0.1628,-0.6076 v 0 l 24.0173,-13.8662 c 0.2128,-0.1229 0.4849,-0.05 0.6077,0.1628 0.1228,0.2127 0.0499,0.4848 -0.1628,0.6076 z"
         stroke="none"
         id="path115" /></g><g
       text-rendering="geometricPrecision"
       id="g117"><path
         clip-path="url(#785193004835-clipPath1)"
         d="m 135.7799,58.5513 c 0,-0.2457 -0.1992,-0.4449 -0.4448,-0.4449 -0.2457,0 -0.4449,0.1992 -0.4449,0.4449 v 23.377 c 0,0.2457 0.1992,0.4449 0.4449,0.4449 0.2456,0 0.4448,-0.1992 0.4448,-0.4449 z m -3.0014,-2.1777 c 0,-0.2457 -0.1991,-0.4448 -0.4448,-0.4448 -0.2457,0 -0.4448,0.1991 -0.4448,0.4448 V 84.106 c 0,0.2457 0.1991,0.4449 0.4448,0.4449 0.2457,0 0.4448,-0.1992 0.4448,-0.4449 z"
         stroke="none"
         id="path116" /></g><g
       text-rendering="geometricPrecision"
       id="g118"><path
         clip-path="url(#785193004835-clipPath1)"
         d="m 132.5561,83.7208 v 0 l 24.0174,13.8662 c 0.2127,0.1228 0.2856,0.3949 0.1628,0.6076 -0.1228,0.2128 -0.3949,0.2857 -0.6077,0.1629 v 0 L 132.1113,84.4913 c -0.2128,-0.1229 -0.2857,-0.3949 -0.1628,-0.6077 0.1228,-0.2128 0.3949,-0.2857 0.6076,-0.1628 z"
         stroke="none"
         id="path117" /></g><g
       text-rendering="geometricPrecision"
       id="g119"><path
         clip-path="url(#785193004835-clipPath1)"
         d="m 156.5138,93.8989 c -0.2127,0.1228 -0.2856,0.3949 -0.1628,0.6077 0.1228,0.2127 0.3949,0.2856 0.6077,0.1628 l 20.2438,-11.6885 c 0.2127,-0.1228 0.2856,-0.3949 0.1628,-0.6076 -0.1229,-0.2128 -0.3949,-0.2857 -0.6077,-0.1629 z m -0.3852,3.6881 c -0.2127,0.1228 -0.2856,0.3949 -0.1628,0.6077 0.1229,0.2127 0.3949,0.2856 0.6077,0.1628 L 180.589,84.4913 c 0.2128,-0.1229 0.2857,-0.3949 0.1628,-0.6077 -0.1228,-0.2128 -0.3949,-0.2857 -0.6076,-0.1628 z"
         stroke="none"
         id="path118" /></g><g
       text-rendering="geometricPrecision"
       id="g120"><path
         clip-path="url(#785193004835-clipPath1)"
         d="m 179.9218,84.106 v 0 -27.7324 c 0,-0.2457 0.1991,-0.4448 0.4448,-0.4448 0.2457,0 0.4448,0.1991 0.4448,0.4448 v 0 27.7324 c 0,0.2457 -0.1991,0.4449 -0.4448,0.4449 -0.2457,0 -0.4448,-0.1992 -0.4448,-0.4449 z"
         stroke="none"
         id="path119" /></g><g
       text-rendering="geometricPrecision"
       id="g121"><path
         clip-path="url(#785193004835-clipPath1)"
         d="m 156.5735,42.1222 c -0.2128,-0.1229 -0.4848,-0.05 -0.6077,0.1628 -0.1228,0.2127 -0.0499,0.4848 0.1628,0.6076 l 24.0156,13.8662 c 0.2127,0.1229 0.4848,0.05 0.6076,-0.1628 0.1229,-0.2127 0.05,-0.4848 -0.1628,-0.6076 z m 0.3852,3.6881 c -0.2128,-0.1229 -0.4849,-0.05 -0.6077,0.1628 -0.1228,0.2127 -0.0499,0.4848 0.1628,0.6076 l 20.2438,11.6885 c 0.2128,0.1228 0.4848,0.0499 0.6077,-0.1628 0.1228,-0.2128 0.0499,-0.4848 -0.1628,-0.6077 z"
         stroke="none"
         id="path120" /></g><g
       text-rendering="geometricPrecision"
       id="g122"><path
         clip-path="url(#785193004835-clipPath1)"
         d="m 180.1442,55.9884 v 0 l 24.0173,-13.8662 c 0.2128,-0.1229 0.4849,-0.05 0.6077,0.1628 0.1228,0.2127 0.05,0.4848 -0.1628,0.6076 v 0 L 180.589,56.7589 c -0.2127,0.1228 -0.4848,0.0499 -0.6076,-0.1629 -0.1229,-0.2127 -0.05,-0.4848 0.1628,-0.6076 z"
         stroke="none"
         id="path121" /></g><g
       text-rendering="geometricPrecision"
       id="g123"><path
         clip-path="url(#785193004835-clipPath1)"
         d="m 202.4385,43.3738 c 0,0.2457 0.1991,0.4448 0.4448,0.4448 0.2457,0 0.4448,-0.1991 0.4448,-0.4448 V 21.4469 c 0,-0.2457 -0.1991,-0.4448 -0.4448,-0.4448 -0.2457,0 -0.4448,0.1991 -0.4448,0.4448 z m 3.0013,0 c 0,0.2457 0.1992,0.4448 0.4448,0.4448 0.2457,0 0.4449,-0.1991 0.4449,-0.4448 V 21.4469 c 0,-0.2457 -0.1992,-0.4448 -0.4449,-0.4448 -0.2456,0 -0.4448,0.1991 -0.4448,0.4448 z"
         stroke="none"
         id="path122" /></g><g
       text-rendering="geometricPrecision"
       id="g124"><path
         clip-path="url(#785193004835-clipPath1)"
         d="m 204.6064,42.1222 v 0 l 24.0173,13.8662 c 0.2128,0.1228 0.2857,0.3949 0.1629,0.6076 -0.1229,0.2128 -0.3949,0.2857 -0.6077,0.1629 v 0 L 204.1615,42.8926 c -0.2127,-0.1228 -0.2856,-0.3949 -0.1628,-0.6076 0.1229,-0.2128 0.3949,-0.2857 0.6077,-0.1628 z"
         stroke="none"
         id="path123" /></g><g
       text-rendering="geometricPrecision"
       id="g125"><path
         clip-path="url(#785193004835-clipPath1)"
         d="m 228.5641,52.3003 c -0.2127,0.1228 -0.2856,0.3949 -0.1628,0.6077 0.1229,0.2127 0.3949,0.2856 0.6077,0.1628 l 20.2455,-11.6886 c 0.2128,-0.1228 0.2857,-0.3949 0.1628,-0.6076 -0.1228,-0.2128 -0.3949,-0.2857 -0.6076,-0.1629 z m -0.3852,3.6881 c -0.2128,0.1228 -0.2857,0.3949 -0.1628,0.6076 0.1228,0.2128 0.3949,0.2857 0.6076,0.1629 l 24.0174,-13.8663 c 0.2128,-0.1228 0.2857,-0.3949 0.1628,-0.6076 -0.1228,-0.2128 -0.3949,-0.2857 -0.6076,-0.1628 z"
         stroke="none"
         id="path124" /></g><g
       text-rendering="geometricPrecision"
       id="g126"><path
         clip-path="url(#785193004835-clipPath1)"
         d="m 252.6411,42.1222 v 0 l 24.0155,13.8662 c 0.2128,0.1228 0.2857,0.3949 0.1629,0.6076 -0.1229,0.2128 -0.3949,0.2857 -0.6077,0.1628 v 0 L 252.1962,42.8926 c -0.2127,-0.1228 -0.2856,-0.3949 -0.1628,-0.6076 0.1229,-0.2128 0.3949,-0.2857 0.6077,-0.1628 z"
         stroke="none"
         id="path125" /></g><g
       text-rendering="geometricPrecision"
       id="g127"><path
         clip-path="url(#785193004835-clipPath1)"
         d="m 251.9738,42.5074 v 0 -21.0605 c 0,-0.2457 0.1992,-0.4448 0.4449,-0.4448 0.2457,0 0.4448,0.1991 0.4448,0.4448 v 0 21.0605 c 0,0.2457 -0.1991,0.4448 -0.4448,0.4448 -0.2457,0 -0.4449,-0.1991 -0.4449,-0.4448 z"
         stroke="none"
         id="path126" /></g><g
       text-rendering="geometricPrecision"
       id="g128"><path
         clip-path="url(#785193004835-clipPath1)"
         d="m 276.6566,83.7226 v 0 l 24.0174,13.8662 c 0.2127,0.1228 0.2857,0.3949 0.1628,0.6076 -0.1228,0.2128 -0.3949,0.2857 -0.6076,0.1629 v 0 L 276.2118,84.4931 c -0.2127,-0.1229 -0.2857,-0.3949 -0.1628,-0.6077 0.1228,-0.2128 0.3949,-0.2857 0.6076,-0.1628 z"
         stroke="none"
         id="path127" /></g><g
       text-rendering="geometricPrecision"
       id="g129"><path
         clip-path="url(#785193004835-clipPath1)"
         d="m 300.6144,93.9007 c -0.2128,0.1229 -0.2857,0.3949 -0.1628,0.6077 0.1228,0.2128 0.3949,0.2857 0.6076,0.1628 l 20.2455,-11.6886 c 0.2128,-0.1228 0.2857,-0.3948 0.1629,-0.6076 -0.1228,-0.2128 -0.3949,-0.2857 -0.6077,-0.1628 z m -0.3852,3.6881 c -0.2128,0.1228 -0.2857,0.3949 -0.1629,0.6076 0.1229,0.2128 0.3949,0.2857 0.6077,0.1629 l 24.0173,-13.8662 c 0.2128,-0.1229 0.2857,-0.3949 0.1629,-0.6077 -0.1229,-0.2128 -0.3949,-0.2857 -0.6077,-0.1628 z"
         stroke="none"
         id="path128" /></g><g
       text-rendering="geometricPrecision"
       id="g130"><path
         clip-path="url(#785193004835-clipPath1)"
         d="m 324.0241,84.1078 v 0 -27.7342 c 0,-0.2457 0.1991,-0.4448 0.4448,-0.4448 0.2457,0 0.4449,0.1991 0.4449,0.4448 v 0 27.7342 c 0,0.2457 -0.1992,0.4449 -0.4449,0.4449 -0.2457,0 -0.4448,-0.1992 -0.4448,-0.4449 z"
         stroke="none"
         id="path129" /></g><g
       text-rendering="geometricPrecision"
       id="g131"><path
         clip-path="url(#785193004835-clipPath1)"
         d="m 300.674,42.1222 c -0.2128,-0.1229 -0.4848,-0.05 -0.6077,0.1628 -0.1228,0.2127 -0.0499,0.4848 0.1629,0.6076 l 24.0173,13.8663 c 0.2128,0.1228 0.4848,0.0499 0.6077,-0.1629 0.1228,-0.2127 0.0499,-0.4848 -0.1629,-0.6076 z m 0.3852,3.688 c -0.2127,-0.1228 -0.4848,-0.0499 -0.6076,0.1628 -0.1229,0.2128 -0.05,0.4849 0.1628,0.6077 l 20.2455,11.6886 c 0.2128,0.1228 0.4849,0.0499 0.6077,-0.1629 0.1228,-0.2127 0.0499,-0.4848 -0.1629,-0.6076 z"
         stroke="none"
         id="path130" /></g><g
       text-rendering="geometricPrecision"
       id="g132"><path
         clip-path="url(#785193004835-clipPath1)"
         d="m 300.674,42.8926 v 0 l -24.0174,13.8663 c -0.2127,0.1228 -0.4848,0.0499 -0.6076,-0.1629 -0.1229,-0.2127 -0.0499,-0.4848 0.1628,-0.6076 v 0 l 24.0174,-13.8662 c 0.2127,-0.1229 0.4848,-0.05 0.6076,0.1628 0.1229,0.2127 0.0499,0.4848 -0.1628,0.6076 z"
         stroke="none"
         id="path131" /></g><g
       text-rendering="geometricPrecision"
       id="g133"><path
         clip-path="url(#785193004835-clipPath1)"
         d="m 279.8804,58.5513 c 0,-0.2457 -0.1992,-0.4449 -0.4448,-0.4449 -0.2457,0 -0.4449,0.1992 -0.4449,0.4449 v 23.3788 c 0,0.2457 0.1992,0.4449 0.4449,0.4449 0.2456,0 0.4448,-0.1992 0.4448,-0.4449 z m -3.0013,-2.1777 c 0,-0.2457 -0.1992,-0.4448 -0.4449,-0.4448 -0.2457,0 -0.4448,0.1991 -0.4448,0.4448 v 27.7342 c 0,0.2457 0.1991,0.4449 0.4448,0.4449 0.2457,0 0.4449,-0.1992 0.4449,-0.4449 z"
         stroke="none"
         id="path132" /></g><g
       text-rendering="geometricPrecision"
       id="g134"><path
         clip-path="url(#785193004835-clipPath1)"
         d="m 132.5561,84.4913 v 0 l -24.0173,13.8662 c -0.2128,0.1228 -0.4849,0.0499 -0.6077,-0.1629 -0.1228,-0.2127 -0.0499,-0.4848 0.1628,-0.6076 v 0 l 24.0174,-13.8662 c 0.2128,-0.1229 0.4848,-0.05 0.6076,0.1628 0.1229,0.2128 0.05,0.4848 -0.1628,0.6077 z"
         stroke="none"
         id="path133" /></g><g
       text-rendering="geometricPrecision"
       id="g135"><path
         clip-path="url(#785193004835-clipPath1)"
         d="m 110.0394,100.9567 c 0.2128,-0.1228 0.2857,-0.3949 0.1629,-0.6076 -0.1229,-0.2128 -0.3949,-0.2857 -0.6077,-0.1629 l -19.3405,11.1661 c -0.2128,0.1228 -0.2857,0.3949 -0.1628,0.6077 0.1228,0.2127 0.3949,0.2856 0.6076,0.1628 z m -1.5006,-2.5992 c 0.2127,-0.1229 0.2856,-0.3949 0.1628,-0.6077 -0.1228,-0.2127 -0.3949,-0.2857 -0.6077,-0.1628 l -19.3405,11.1661 c -0.2127,0.1228 -0.2856,0.3948 -0.1628,0.6076 0.1229,0.2128 0.3949,0.2857 0.6077,0.1628 z m -1.5007,-2.5993 c 0.2128,-0.1228 0.2857,-0.3949 0.1628,-0.6076 -0.1228,-0.2128 -0.3949,-0.2857 -0.6076,-0.1629 l -19.3405,11.1661 c -0.2128,0.1228 -0.2857,0.3949 -0.1628,0.6077 0.1228,0.2127 0.3949,0.2856 0.6076,0.1628 z"
         stroke="none"
         id="path134" /></g><g
       text-rendering="geometricPrecision"
       id="g136"><path
         clip-path="url(#785193004835-clipPath1)"
         d="m 324.6913,83.7226 v 0 l 24.0174,13.8662 c 0.2127,0.1228 0.2857,0.3949 0.1628,0.6076 -0.1228,0.2128 -0.3949,0.2857 -0.6076,0.1629 v 0 L 324.2465,84.4931 c -0.2127,-0.1229 -0.2857,-0.3949 -0.1628,-0.6077 0.1228,-0.2128 0.3949,-0.2857 0.6076,-0.1628 z"
         stroke="none"
         id="path135" /></g><g
       text-rendering="geometricPrecision"
       id="g137"><path
         clip-path="url(#785193004835-clipPath1)"
         d="m 350.2094,94.9895 c -0.2128,-0.1228 -0.4849,-0.0499 -0.6077,0.1629 -0.1228,0.2127 -0.0499,0.4848 0.1628,0.6076 l 19.3405,11.1661 c 0.2128,0.1228 0.4848,0.0499 0.6077,-0.1628 0.1228,-0.2128 0.0499,-0.4849 -0.1629,-0.6077 z m -1.5007,2.5993 c -0.2128,-0.1228 -0.4848,-0.0499 -0.6077,0.1628 -0.1228,0.2128 -0.0499,0.4848 0.1629,0.6077 l 19.3405,11.166 c 0.2127,0.1229 0.4848,0.05 0.6076,-0.1628 0.1228,-0.2128 0.05,-0.4848 -0.1628,-0.6076 z m -1.5007,2.5992 c -0.2127,-0.1228 -0.4848,-0.0499 -0.6076,0.1629 -0.1229,0.2127 -0.05,0.4848 0.1628,0.6076 l 19.3405,11.1661 c 0.2128,0.1228 0.4848,0.0499 0.6077,-0.1628 0.1228,-0.2128 0.0499,-0.4849 -0.1629,-0.6077 z"
         stroke="none"
         id="path136" /></g><g
       font-family="sans-serif"
       font-size="9px"
       text-rendering="geometricPrecision"
       transform="translate(203.7162,156.0072)"
       id="g138"><text
         clip-path="url(#785193004395-clipPath1)"
         stroke="none"
         x="0"
         xml:space="preserve"
         y="9"
         id="text137">O</text></g><g
       font-family="sans-serif"
       font-size="9px"
       text-rendering="geometricPrecision"
       transform="translate(251.7509,156.0072)"
       id="g139"><text
         clip-path="url(#785193004574-clipPath1)"
         stroke="none"
         x="0"
         xml:space="preserve"
         y="9"
         id="text138">OH</text></g><g
       font-family="sans-serif"
       font-size="9px"
       text-rendering="geometricPrecision"
       transform="translate(83.8109,253.0706)"
       id="g140"><text
         clip-path="url(#785193004563-clipPath1)"
         stroke="none"
         x="0"
         xml:space="preserve"
         y="9"
         id="text139">N</text></g><g
       font-family="sans-serif"
       font-size="9px"
       text-rendering="geometricPrecision"
       transform="translate(201.4592,300.3346)"
       id="g141"><text
         clip-path="url(#78519300478-clipPath1)"
         stroke="none"
         x="0"
         xml:space="preserve"
         y="9"
         id="text140">O</text></g><g
       font-family="sans-serif"
       font-size="9px"
       text-rendering="geometricPrecision"
       transform="translate(249.4939,300.3346)"
       id="g142"><text
         clip-path="url(#785193004840-clipPath1)"
         stroke="none"
         x="0"
         xml:space="preserve"
         y="9"
         id="text141">OH</text></g><g
       font-family="sans-serif"
       font-size="9px"
       text-rendering="geometricPrecision"
       transform="translate(9.5037,438.9966)"
       id="g143"><text
         clip-path="url(#785193004632-clipPath1)"
         stroke="none"
         x="0"
         xml:space="preserve"
         y="9"
         id="text142">N</text></g><g
       font-family="sans-serif"
       font-size="9px"
       text-rendering="geometricPrecision"
       transform="translate(441.8088,438.9984)"
       id="g144"><text
         clip-path="url(#785193004693-clipPath1)"
         stroke="none"
         x="0"
         xml:space="preserve"
         y="9"
         id="text143">N</text></g><g
       font-family="sans-serif"
       font-size="9px"
       text-rendering="geometricPrecision"
       transform="translate(201.6389,440.6588)"
       id="g145"><text
         clip-path="url(#7851930047-clipPath1)"
         stroke="none"
         x="0"
         xml:space="preserve"
         y="9"
         id="text144">N</text></g><g
       font-family="sans-serif"
       font-size="9px"
       text-rendering="geometricPrecision"
       transform="translate(249.6736,440.6588)"
       id="g146"><text
         clip-path="url(#785193004123-clipPath1)"
         stroke="none"
         x="0"
         xml:space="preserve"
         y="9"
         id="text145">NH</text></g><g
       font-family="sans-serif"
       font-size="9px"
       text-rendering="geometricPrecision"
       transform="translate(9.5037,579.3209)"
       id="g147"><text
         clip-path="url(#785193004309-clipPath1)"
         stroke="none"
         x="0"
         xml:space="preserve"
         y="9"
         id="text146">N</text></g><g
       font-family="sans-serif"
       font-size="9px"
       text-rendering="geometricPrecision"
       transform="translate(441.8088,579.3227)"
       id="g148"><text
         clip-path="url(#785193004265-clipPath1)"
         stroke="none"
         x="0"
         xml:space="preserve"
         y="9"
         id="text147">N</text></g><g
       font-family="sans-serif"
       font-size="9px"
       text-rendering="geometricPrecision"
       transform="translate(200.8605,8.775)"
       id="g149"><text
         clip-path="url(#785193004127-clipPath1)"
         stroke="none"
         x="0"
         xml:space="preserve"
         y="9"
         id="text148">O</text></g><g
       font-family="sans-serif"
       font-size="9px"
       text-rendering="geometricPrecision"
       transform="translate(248.8952,8.775)"
       id="g150"><text
         clip-path="url(#785193004572-clipPath1)"
         stroke="none"
         x="0"
         xml:space="preserve"
         y="9"
         id="text149">OH</text></g><g
       font-family="sans-serif"
       font-size="9px"
       text-rendering="geometricPrecision"
       transform="translate(80.9553,105.8384)"
       id="g151"><text
         clip-path="url(#78519300449-clipPath1)"
         stroke="none"
         x="0"
         xml:space="preserve"
         y="9"
         id="text150">N</text></g><g
       font-family="sans-serif"
       font-size="9px"
       text-rendering="geometricPrecision"
       transform="translate(369.1599,105.8402)"
       id="g152"><text
         clip-path="url(#785193004864-clipPath1)"
         stroke="none"
         x="0"
         xml:space="preserve"
         y="9"
         id="text151">N</text></g><g
       font-family="sans-serif"
       font-size="10px"
       text-rendering="geometricPrecision"
       transform="matrix(0.9904,0,0,0.9904,1.9705,0.7445)"
       id="g153"><text
         clip-path="url(#785193004311-clipPath1)"
         stroke="none"
         x="206.1956"
         xml:space="preserve"
         y="85.9077"
         id="text152">DikDiCN</text></g></g><rect
     style="font-variation-settings:'wght' 201;fill:none;stroke:#003366;stroke-width:1.00157;stroke-opacity:1"
     id="rect154"
     width="312.44046"
     height="131.06049"
     x="72.286934"
     y="3.7064786" /></svg>
