<?xml version="1.0" encoding="UTF-8" standalone="no"?>
<svg
   version="1.2"
   width="14.37mm"
   height="14.38mm"
   viewBox="10556 15206 1437 1438"
   preserveAspectRatio="xMidYMid"
   fill-rule="evenodd"
   stroke-width="28.222"
   stroke-linejoin="round"
   xml:space="preserve"
   id="svg16"
   sodipodi:docname="Logo_Università_degli_Studi_di_Milano.svg"
   inkscape:export-filename="Logo_Università_degli_Studi_di_Milano.pdf"
   inkscape:export-xdpi="96"
   inkscape:export-ydpi="96"
   inkscape:version="1.3 (0e150ed6c4, 2023-07-21)"
   xmlns:inkscape="http://www.inkscape.org/namespaces/inkscape"
   xmlns:sodipodi="http://sodipodi.sourceforge.net/DTD/sodipodi-0.dtd"
   xmlns="http://www.w3.org/2000/svg"
   xmlns:svg="http://www.w3.org/2000/svg"><sodipodi:namedview
   id="namedview16"
   pagecolor="#ffffff"
   bordercolor="#000000"
   borderopacity="0.25"
   inkscape:showpageshadow="2"
   inkscape:pageopacity="0.0"
   inkscape:pagecheckerboard="0"
   inkscape:deskcolor="#d1d1d1"
   inkscape:document-units="mm"
   inkscape:zoom="4.3452796"
   inkscape:cx="27.155905"
   inkscape:cy="27.270973"
   inkscape:window-width="1000"
   inkscape:window-height="671"
   inkscape:window-x="4334"
   inkscape:window-y="743"
   inkscape:window-maximized="0"
   inkscape:current-layer="svg16" />&#10; <defs
   class="ClipPathGroup"
   id="defs2"><clipPath
     id="presentation_clip_path"
     clipPathUnits="userSpaceOnUse">&#10;   <rect
   x="10556"
   y="15206"
   width="1437"
   height="1438"
   id="rect1" />&#10;  </clipPath></defs>&#10; <defs
   class="TextShapeIndex"
   id="defs3" />&#10; <defs
   class="EmbeddedBulletChars"
   id="defs12" />&#10; <defs
   class="TextEmbeddedBitmaps"
   id="defs13" />&#10; <g
   class="SlideGroup"
   id="g16">&#10;  <g
   id="g15">&#10;   <g
   id="container-id1">&#10;    <g
   id="id1"
   class="Slide"
   clip-path="url(#presentation_clip_path)">&#10;     <g
   class="Page"
   id="g14">&#10;      <g
   class="com.sun.star.drawing.ClosedBezierShape"
   id="g13">&#10;       <g
   id="id3">&#10;        <rect
   class="BoundingBox"
   stroke="none"
   fill="none"
   x="10556"
   y="15206"
   width="1439"
   height="1439"
   id="rect13" />&#10;        <path
   fill="#1d1d1b"
   stroke="none"
   d="m 11777,16427 c -134,135 -312,209 -502,209 -190,0 -368,-74 -502,-209 -136,-134 -210,-312 -210,-502 0,-190 74,-369 210,-503 134,-134 312,-208 502,-208 190,0 368,74 502,208 135,134 209,313 209,503 0,190 -74,368 -209,502 z m 6,-1010 c -136,-136 -316,-211 -508,-211 -192,0 -372,75 -509,211 -136,135 -210,316 -210,508 0,192 74,372 210,508 137,136 317,211 509,211 192,0 372,-75 508,-211 136,-136 210,-316 210,-508 0,-192 -74,-373 -210,-508 z m -14,1001 c -97,98 -216,162 -347,190 0,-5 -1,-31 3,-47 5,-17 26,-24 26,-24 7,-2 11,-5 12,-10 1,-6 -5,-11 -7,-14 v -20 -1 l -1,-1 -19,-21 v -17 c 103,-32 196,-94 265,-177 v -1 c 5,-6 10,-12 15,-18 72,-96 111,-211 111,-332 0,-137 -50,-268 -141,-369 -91,-101 -214,-164 -348,-180 h -1 c -2,-1 -5,-3 -8,-5 -68,-43 -143,8 -144,9 -127,21 -244,87 -328,185 -88,100 -135,228 -135,360 0,122 39,238 114,335 70,90 167,158 275,192 l -31,40 v 1 19 c -2,3 -7,9 -6,15 2,6 10,10 15,10 2,1 9,5 13,15 4,11 4,44 3,51 -121,-30 -233,-94 -324,-185 -133,-131 -205,-307 -205,-493 0,-187 72,-362 205,-494 132,-132 308,-204 494,-204 186,0 362,72 494,204 131,132 204,307 204,494 0,186 -73,362 -204,493 z m -351,191 c -14,3 -29,6 -44,8 v -39 l -2,-2 h -223 l -2,2 v 34 c -13,-2 -25,-5 -37,-8 0,-4 1,-34 -2,-49 h 315 l -2,5 c -5,17 -3,45 -3,49 z m -48,8 c -31,5 -63,7 -95,7 -42,0 -83,-4 -124,-11 v -32 h 219 z m 71,-80 c -5,3 -11,7 -15,13 h -320 c -2,-6 -6,-10 -9,-13 z m -182,-41 c 7,1 14,2 18,2 h 1 c 6,0 17,0 29,-3 h 39 l 6,6 2,5 c 0,4 5,16 17,16 5,0 8,-3 9,-5 2,0 6,0 8,-2 1,-2 3,-4 3,-7 l 4,-3 c 2,-1 2,-4 2,-6 l 4,-3 v -1 h 50 v 20 l 1,1 c 2,2 7,7 6,11 0,2 -4,4 -7,5 h -1 l -358,1 h -1 -1 c -4,0 -10,-3 -11,-7 -1,-5 4,-10 4,-10 l 1,-3 v -17 z m -78,-40 2,1 c -3,3 -9,5 -13,7 -11,1 -16,2 -18,5 v 2 c -5,0 -8,2 -8,5 0,3 1,6 5,9 3,2 7,4 15,3 l 5,-2 c 8,-2 13,-3 18,-1 8,2 29,1 39,-3 5,4 11,7 17,9 h -156 l 27,-35 z m -18,-159 c 0,11 -1,34 -3,42 -1,7 -2,27 4,43 3,10 9,12 12,12 h 4 c 0,8 2,32 2,39 0,3 -1,7 -1,10 -1,3 -2,6 -2,8 h -55 c -95,-27 -182,-81 -250,-154 z m -171,-21 v 19 h -120 c -6,-6 -11,-13 -17,-19 z m -124,-23 v 20 h -15 c -4,-5 -9,-11 -13,-16 l -3,-4 z m -7,-43 v 40 h -23 v -40 c 0,-7 5,-12 12,-12 6,0 11,5 11,12 z m -30,-18 h 37 v 58 h -4 v -40 c 0,-8 -7,-15 -14,-15 -8,0 -14,7 -14,15 v 40 h -1 l -4,-5 z m 1,-15 h -11 v -7 h 11 z m -11,2 h 8 v 63 c -3,-4 -6,-8 -8,-12 z m 157,-23 v -30 c 0,-7 -7,-14 -14,-14 -8,0 -14,7 -14,14 v 30 h -8 v -47 c 0,-21 -18,-35 -36,-35 -17,0 -35,13 -35,35 v 47 h -9 v -30 c 0,-7 -6,-14 -14,-14 -7,0 -13,7 -13,14 v 30 h -14 v -52 l 85,-45 86,46 v 51 z m -26,0 v -30 c 0,-6 5,-12 12,-12 6,0 11,6 11,12 v 30 z m -21,-45 v 45 h -50 v -45 c 0,-14 12,-25 25,-25 14,0 25,11 25,25 z m -25,-28 c -15,0 -27,13 -27,28 v 45 h -6 v -47 c 0,-20 17,-32 33,-32 17,0 34,12 34,32 v 47 h -6 v -45 c 0,-15 -12,-28 -28,-28 z m -69,73 v -30 c 0,-6 5,-12 11,-12 7,0 12,6 12,12 v 30 z m 155,12 h -171 v -10 h 171 z m -86,9 c -11,0 -20,7 -25,16 v -14 h 4 v -9 h 43 v 9 h 3 v 14 c -4,-9 -13,-16 -25,-16 z m -25,28 c 0,-14 12,-26 25,-26 14,0 25,12 25,26 v 68 h -50 z m -13,-26 v 11 h -37 v -11 h 3 v -9 h 30 v 9 z m 2,0 h 9 v 94 h -9 z m 13,-2 h -17 v -7 h 17 z m 60,96 h -9 v -94 h 9 z m 3,-96 h -16 v -7 h 16 z m -1,13 v -11 h 4 v -9 h 29 v 9 h 3 v 11 z m 32,60 v -40 c 0,-8 -6,-15 -14,-15 -7,0 -14,7 -14,15 v 40 h -4 v -58 h 36 v 58 z m -25,0 v -40 c 0,-7 5,-12 11,-12 7,0 12,5 12,12 v 40 z m -7,3 h 36 v 20 h -36 z m 39,-74 h 8 v 94 h -8 z m 8,-2 h -11 v -7 h 11 z m -185,-85 h 1 l 98,-56 99,56 h 131 c 0,2 1,5 1,7 h -131 l -99,-54 -1,-1 v 1 l -99,54 h -52 c -1,-2 -1,-5 -2,-7 z m 407,-683 v 1 c 1,0 2,0 2,-1 l 4,-2 2,2 c -2,1 -4,3 -6,4 l -12,6 c -21,11 -41,20 -41,20 l -2,2 v 2 l 1,1 -31,15 h -1 l -2,4 c 1,3 5,4 8,4 3,1 26,6 51,12 2,7 4,15 4,16 -1,1 -4,11 -6,18 -2,7 -3,10 -4,12 0,2 0,5 2,7 1,1 2,2 5,2 3,0 6,-1 8,-1 v -1 l -1,5 -1,2 c 0,2 2,6 5,8 l 1,7 h 2 l 3,1 v 6 c 0,1 0,6 3,10 1,2 5,5 11,5 4,0 11,-2 18,-5 3,0 9,1 9,4 2,5 5,28 4,31 -2,3 -5,5 -10,7 -2,0 -7,1 -12,1 -7,0 -15,0 -20,2 -11,4 -22,15 -32,31 -15,5 -17,16 -17,17 -20,9 -25,46 -26,51 -2,2 -9,13 -15,25 -5,-6 -11,-13 -19,-20 -30,-29 -42,-44 -47,-50 0,0 -5,-7 -6,-12 v -1 c -1,-2 -1,-6 -5,-9 7,-2 10,-9 11,-14 5,-2 8,-4 9,-7 2,-3 0,-6 0,-6 l -2,-1 -14,-1 c 4,-5 8,-11 9,-22 1,-11 -2,-21 -4,-29 -2,-5 -3,-9 -3,-14 -1,-11 5,-15 5,-16 l 1,-2 -1,-2 c -3,-1 -5,0 -8,1 4,-31 -14,-39 -15,-39 l -2,1 v 2 c 4,4 7,10 0,25 -2,4 -3,8 -4,11 l -2,-2 -2,1 c -4,8 -4,15 -3,25 v 7 c 0,7 -2,10 -3,15 -1,3 -3,7 -3,14 -1,10 4,19 7,24 l -86,-2 -2,1 c 0,1 -1,4 -1,6 h -8 c -8,0 -11,-2 -13,-3 -3,-2 -5,-4 -5,-7 0,-3 1,-5 2,-7 1,-1 6,-4 10,-4 5,1 9,5 12,13 1,1 1,1 2,1 h 1 l 1,-1 v -1 c 0,-10 -5,-18 -12,-22 -7,-4 -16,-4 -24,1 -12,7 -16,23 -9,36 8,14 23,17 35,19 2,2 9,5 53,20 9,0 32,3 37,5 11,5 33,48 46,73 6,12 11,22 14,25 8,15 35,44 50,44 11,0 22,-13 35,-28 l 5,-6 c 2,5 4,9 6,12 -2,3 -4,6 -5,9 -6,11 -14,34 -8,52 -8,9 -26,33 -22,57 2,14 3,23 7,28 -3,9 -16,52 -7,65 l 4,4 c 0,5 -2,21 -2,29 0,9 0,11 1,22 0,0 1,6 1,12 0,2 1,8 1,16 v 2 h -130 l -99,-56 h -1 l -99,56 h -55 c -17,-53 -25,-108 -25,-165 0,-131 48,-258 133,-357 84,-98 200,-163 326,-183 z m 152,98 -28,-22 1,-3 c 10,-38 -13,-61 -14,-62 h -3 v 3 c 0,0 21,21 13,55 l -3,-3 c 1,-3 1,-6 1,-10 1,-23 -16,-44 -33,-55 -19,-12 -33,-15 -54,-11 -5,1 -12,4 -20,8 l -3,-3 c 9,-5 20,-8 20,-8 l 2,-3 -3,-2 c -1,0 -18,5 -27,13 l -24,-22 c 14,-9 78,-44 136,-7 62,39 51,109 39,132 z m 274,245 c 0,-9 6,-16 9,-19 1,3 1,6 2,10 3,10 5,17 -9,29 -1,-4 -3,-12 -2,-20 z m -12,69 c 5,-7 12,-15 23,-17 6,-2 14,-3 19,-4 -5,11 -13,19 -34,20 -3,0 -6,0 -8,1 z m -1,-16 c -12,-11 -14,-23 -8,-34 3,7 10,22 8,35 z m -27,56 c 4,-4 14,-8 21,-9 6,-1 13,-2 17,-2 -10,17 -23,21 -30,22 -3,1 -13,1 -19,0 h 1 v -1 c 3,-3 7,-7 10,-10 z m -6,-9 c -3,-9 -10,-36 6,-48 2,5 5,15 5,24 0,11 -5,23 -10,31 v 1 c 0,-3 0,-6 -1,-8 z m -53,28 c 0,-9 7,-30 25,-38 -1,4 -3,11 -3,14 v 1 c 0,20 -4,33 -13,39 v 1 l -4,2 -1,1 h -1 l -3,2 c 0,-4 0,-13 0,-22 z m 7,23 c 6,-3 18,-3 26,-3 h 2 c 5,0 13,-3 18,-5 -6,12 -24,21 -38,21 -7,0 -17,-2 -23,-3 5,-3 10,-7 15,-10 z m -58,3 c 5,-12 21,-24 29,-29 -1,5 -3,11 -3,15 -1,13 -4,30 -17,41 v 1 c -3,2 -6,5 -9,7 -1,-6 -6,-22 0,-35 z m 11,32 c 17,-7 35,-5 47,-3 h 5 c 4,1 8,1 11,0 l -3,2 c -17,14 -19,16 -43,14 -11,-1 -24,-1 -31,-1 5,-4 9,-8 14,-12 z m 6,152 c 4,-6 7,-12 8,-19 2,-20 -13,-30 -22,-35 12,-6 14,-22 13,-30 l -2,-3 h -54 l -2,-3 h 1 2 c 58,2 83,-15 94,-29 v -3 l -2,-1 c 0,0 -8,2 -22,0 l -5,-1 c -12,-2 -31,-5 -51,4 v -1 c 6,-5 11,-9 16,-14 4,0 22,-1 36,0 26,2 30,0 47,-14 3,-3 7,-5 11,-8 v -3 l -3,-1 c 0,0 -8,3 -18,2 l -5,-1 c -9,-1 -24,-3 -38,0 5,-4 11,-9 16,-13 1,1 19,3 29,3 18,0 40,-11 44,-29 l -1,-2 h -2 c 0,0 -14,7 -21,7 h -2 c -5,0 -10,0 -15,0 7,-5 16,-11 25,-19 1,0 20,0 25,0 8,-2 24,-7 35,-28 v -2 l -1,-1 c -1,0 -14,-1 -22,1 -4,1 -9,2 -13,4 4,-5 8,-11 12,-18 1,-1 5,-9 16,-9 26,0 34,-13 40,-26 v -3 l -2,-1 c -1,1 -14,3 -24,5 -7,2 -13,6 -18,10 4,-10 8,-20 11,-31 17,-15 16,-24 13,-37 -2,-6 -3,-12 -3,-12 l -1,-2 h -2 c -1,0 -14,9 -15,25 0,11 2,22 3,24 -1,8 -4,15 -6,21 -1,-16 -10,-30 -11,-31 l -2,-1 -1,1 c -11,12 -9,29 5,42 l 2,7 c -6,12 -12,22 -19,30 2,-5 4,-11 4,-17 0,-13 -7,-27 -7,-28 l -1,-1 h -2 c -21,12 -15,43 -10,54 1,4 -2,12 -3,15 -9,8 -17,15 -25,20 6,-11 6,-25 6,-31 v -1 c 0,-5 3,-17 3,-17 v -3 h -2 c -23,8 -33,33 -33,44 0,13 1,24 1,25 -8,5 -16,11 -24,18 5,-10 7,-22 8,-30 0,-6 4,-20 4,-20 v -2 h -3 c -1,0 -29,15 -37,34 -6,16 0,35 2,39 -8,7 -16,14 -25,22 -3,3 -7,7 -11,11 24,-40 10,-73 9,-76 l 74,-278 h 4 c 5,0 8,-3 10,-6 1,-4 0,-8 -3,-11 l -2,-1 c 19,-24 22,-36 21,-38 v 2 l 3,-81 -1,-2 -3,1 c -1,3 -39,67 -42,74 -4,7 0,32 1,39 l -3,1 c -5,1 -7,5 -8,9 0,4 3,8 7,9 l 3,1 -80,295 c -6,7 -12,16 -14,25 -4,11 -3,21 -1,29 v 3 c -5,-5 -10,-11 -10,-13 0,-3 3,-30 10,-67 6,-36 5,-55 2,-76 -3,-20 -1,-33 4,-58 v -3 c 4,-24 10,-70 8,-98 -2,-22 -7,-29 -9,-31 -1,-5 -4,-20 -39,-25 -6,-1 -11,-1 -16,-1 -11,0 -22,-5 -32,-13 -8,-7 -12,-16 -12,-24 1,-15 -2,-24 -4,-27 l 1,-2 v -2 c 0,0 -11,-16 -9,-33 2,-2 7,-9 11,-19 l 3,3 -1,2 1,3 31,25 h 2 l 2,-1 c 12,-20 25,-87 -25,-130 130,16 250,79 338,177 90,101 140,230 140,366 0,57 -8,112 -25,165 z m -11,9 c 4,-2 6,-4 9,-7 h 291 c -1,2 -1,5 -2,7 z m -53,10 c 3,-4 7,-7 12,-9 10,6 22,7 34,3 l 3,-1 h 301 c -1,2 -2,5 -3,7 z m 297,59 v -29 c 0,-7 5,-12 11,-12 7,0 12,5 12,12 v 29 z m -34,0 v -29 c 0,-7 5,-12 12,-12 6,0 12,5 12,12 v 29 z m -33,0 v -29 c 0,-7 5,-12 12,-12 6,0 11,5 11,12 v 29 z m -33,0 v -29 c 0,-7 5,-12 11,-12 7,0 12,5 12,12 v 29 z m -34,0 v -29 c 0,-7 6,-12 12,-12 6,0 12,5 12,12 v 29 z m -33,0 v -29 c 0,-7 5,-12 11,-12 7,0 12,5 12,12 v 29 z m -33,0 v -29 c 0,-7 5,-12 11,-12 7,0 12,5 12,12 v 29 z m -34,0 v -29 c 0,-7 5,-12 12,-12 6,0 11,5 11,12 v 29 z m -33,0 v -29 c 0,-7 5,-12 11,-12 7,0 12,5 12,12 v 29 z m -33,0 v -29 c 0,-7 5,-12 11,-12 7,0 12,5 12,12 v 29 z m -8,14 c 0,-4 0,-8 0,-12 h 332 c -2,4 -4,8 -6,12 z m 254,68 v -36 c 0,-9 8,-16 17,-16 9,0 16,7 16,16 v 31 l -4,5 z m 6,23 v -20 h 21 l -1,1 c -5,7 -10,13 -15,19 z m -261,22 c 0,-6 0,-13 0,-19 h 264 c -6,6 -11,13 -17,19 z m -34,174 c -6,-8 -13,-16 -13,-16 1,-3 1,-13 -4,-19 -2,-2 -4,-3 -7,-3 -8,-6 -12,-28 -15,-53 l 1,1 h 72 v 90 z m -176,10 c -10,3 -26,3 -32,2 -7,-2 -12,-1 -21,1 l -5,1 c -5,1 -9,1 -11,-1 l -4,-6 c 1,-1 5,-1 8,-2 3,0 6,-1 8,-2 5,-2 23,-11 27,-13 5,1 13,4 25,16 z m 211,-495 -5,22 -4,4 -1,-6 7,-27 c 1,3 2,5 3,7 z m 6,15 c 4,-6 9,-11 14,-16 24,-19 48,-15 63,-12 h 5 c 8,1 14,1 18,1 -12,12 -36,25 -87,24 h -2 c -4,0 -8,1 -11,3 z m -4,-3 2,-6 1,2 z m 2,21 -1,5 -7,-6 3,-7 z m 8,24 -4,-3 -1,-2 v -1 c 1,-2 1,-5 0,-8 l 1,-10 v -2 l -6,-9 c 3,-2 6,-4 10,-5 l 5,11 c -1,5 -4,23 -5,29 z m -29,59 c 2,5 3,9 5,11 h -1 c -2,-3 -3,-7 -4,-11 z m -9,-16 -26,96 c 0,-4 1,-8 1,-12 0,-5 1,-11 2,-18 l 21,-78 c 0,4 1,8 2,12 z m 5,-40 4,-13 v 1 l 4,3 -8,30 c -1,-7 -1,-14 0,-21 z m -8,14 -18,68 c 0,-12 1,-23 1,-33 0,-24 0,-64 1,-95 3,9 7,18 15,22 0,0 4,3 9,7 -3,4 -8,13 -8,31 z m -75,-184 1,-1 c 6,-5 17,-14 21,-27 -2,19 -7,64 -7,71 0,2 -1,4 -1,6 v 2 c -2,-7 -7,-15 -10,-21 l -2,-3 c -6,-11 -3,-24 -2,-27 z m -1,30 1,2 c 7,12 14,26 12,39 -2,6 -4,11 -7,15 l -3,5 c -9,11 -21,27 -22,46 -9,-30 -8,-59 -6,-76 1,-19 13,-43 20,-54 0,6 0,15 5,23 z m 24,201 c -2,-6 -6,-14 -12,-25 -9,-16 -20,-35 -25,-53 -7,-25 9,-45 19,-59 l 4,-5 c 3,-5 6,-11 7,-17 2,-8 2,-17 3,-23 0,-2 0,-4 0,-6 1,-8 7,-67 8,-78 v -2 c 2,-12 4,-42 4,-51 0,-11 6,-127 25,-149 3,-3 5,-5 8,-6 -14,16 -13,50 -13,66 v 5 c 0,28 2,62 6,99 5,50 1,143 -1,163 -1,23 -3,94 -3,129 0,23 -3,53 -5,75 -1,12 -2,22 -2,26 0,7 -5,46 -10,80 -5,29 -9,56 -9,63 l -1,6 c -2,-21 -4,-43 -8,-59 -1,-5 -2,-11 -4,-18 -6,-21 -12,-44 -9,-64 1,-5 2,-10 5,-15 l 11,-37 c 5,-17 6,-31 2,-45 z m 97,148 v 20 h -17 c 1,-6 1,-13 1,-20 z m 5,-3 h -21 c 0,-18 0,-35 0,-52 h 5 c 9,0 16,7 16,16 z m -3,3 h 18 v 20 h -18 z m 20,0 h 22 v 20 h -22 z m 27,-3 h -32 v -36 c 0,-9 7,-16 16,-16 9,0 16,7 16,16 z m -3,3 h 18 v 20 h -18 z m 20,0 h 22 v 20 h -22 z m 28,-3 h -33 v -36 c 0,-9 7,-16 16,-16 9,0 17,7 17,16 z m -3,3 h 17 v 20 h -17 z m 20,0 h 22 v 20 h -22 z m 27,-3 h -33 v -36 c 0,-9 8,-16 17,-16 9,0 16,7 16,16 z m -3,3 h 18 v 20 h -18 z m 20,0 h 22 v 20 h -22 z m 27,-3 h -32 v -36 c 0,-9 7,-16 16,-16 9,0 16,7 16,16 z m -3,3 h 18 v 20 h -18 z m 20,0 h 22 v 20 h -22 z m 25,0 h 18 v 20 h -18 z m 3,-3 h -33 v -36 c 0,-9 7,-16 16,-16 9,0 17,7 17,16 z m -222,-239 -1,-3 h 50 c 0,6 -2,24 -16,26 l -2,2 2,2 c 1,0 27,8 24,33 -1,12 -10,23 -23,28 -13,5 -27,2 -37,-8 -8,-7 -10,-16 -7,-24 4,-9 13,-16 21,-16 8,0 18,2 23,7 2,3 3,7 2,11 -2,8 -7,12 -18,11 h -1 l -2,2 2,3 h 1 c 16,1 21,-8 22,-15 1,-6 0,-11 -3,-15 -6,-6 -17,-9 -26,-9 -9,0 -21,9 -25,19 -2,6 -4,18 8,30 l 3,2 c -21,11 -22,52 -22,57 0,63 -2,201 -2,220 h -67 l -2,1 c 0,-6 -1,-12 -1,-17 2,-4 3,-13 3,-20 1,-7 5,-34 9,-63 4,-29 9,-58 10,-73 l 1,-1 29,-107 c 2,7 4,14 7,22 l 2,2 2,-1 5,-4 v -3 c 0,0 -8,-15 -12,-34 l 10,-38 c 4,3 6,5 9,5 l 5,-3 c 2,3 7,6 9,6 l 3,-1 1,-3 c 0,-2 3,-19 4,-30 z m 4,-105 c 3,10 12,43 -18,81 -4,-7 -14,-25 -8,-46 4,-15 19,-29 26,-35 z m 68,-285 5,1 -75,280 c -2,1 -4,3 -7,6 z m 16,-12 c 2,2 3,4 2,6 0,2 -3,3 -6,4 0,0 -3,-1 -6,-1 l -7,-2 -4,-1 c -3,-1 -4,-3 -4,-5 0,-2 2,-4 4,-5 8,-2 20,3 21,4 z m 4,-55 -3,1 c -2,7 -10,39 -12,46 l -3,-1 c -2,-12 -4,-32 -2,-37 2,-6 27,-48 38,-66 l -3,72 c 0,-1 -2,10 -21,34 l -5,-1 c 2,-8 11,-39 12,-46 z m -122,263 c 3,21 5,39 -2,74 -6,36 -10,63 -10,68 0,4 4,8 13,18 l -5,19 -2,2 v 2 l 2,13 1,2 12,11 c 4,3 3,7 2,9 l -3,3 c -3,0 -9,-6 -12,-9 l -4,-4 c -5,-5 -11,-8 -11,-8 -14,-10 -16,-38 -16,-39 0,-5 1,-10 1,-13 1,-21 6,-114 1,-164 -4,-37 -6,-71 -6,-99 v -5 c -1,-17 -1,-56 16,-68 7,-4 16,-4 27,1 0,0 6,3 8,27 2,28 -3,73 -7,97 l -1,3 c -4,25 -7,39 -4,60 z m -265,39 c 7,-6 64,-83 79,-111 12,-21 37,-57 56,-85 l 13,-19 c 17,-24 34,-35 38,-37 3,1 7,2 11,4 -18,10 -30,26 -39,38 -3,4 -5,7 -7,9 -14,17 -66,105 -74,119 -7,13 -37,75 -50,101 l -4,9 -3,7 c -7,13 -23,48 -30,48 -7,0 -9,-4 -13,-28 -3,-24 18,-50 23,-55 z m 28,-80 3,-5 c 4,-5 17,-18 29,-30 l 15,-15 c 7,-8 23,-26 37,-41 -14,22 -29,43 -37,58 -14,26 -65,96 -77,108 -3,-16 4,-37 9,-46 4,-9 14,-21 21,-29 z m 19,-128 c 9,-1 19,-2 29,-4 10,-2 20,-4 29,-7 -15,8 -32,15 -46,17 -14,3 -21,4 -30,5 -6,1 -13,2 -22,3 h -1 c 1,-3 5,-9 17,-11 9,-1 16,-2 24,-3 z m -4,-212 c 5,0 9,3 12,8 3,8 10,14 21,20 6,4 20,10 36,17 -5,3 -9,7 -10,11 -10,-3 -42,-11 -70,-17 v -1 c -26,-6 -50,-11 -54,-11 l -2,-1 32,-15 c 11,-5 31,-11 35,-11 z m 89,49 -2,-1 c -21,-8 -44,-19 -52,-24 -10,-5 -16,-11 -19,-18 -4,-7 -9,-11 -16,-11 -4,0 -18,5 -28,8 8,-4 21,-10 33,-16 l 12,-6 c 12,-7 23,-13 29,-14 19,-4 32,-1 51,11 16,10 32,30 31,51 -1,17 -9,27 -12,30 -6,-2 -16,-5 -27,-10 z m 16,52 c -1,-4 -1,-6 -2,-9 l -1,-6 v -1 c -1,-4 -2,-9 -3,-12 v -1 c -2,-7 -4,-12 -5,-16 8,3 15,6 20,7 -1,15 6,28 9,33 z m 5,34 c -13,-13 -7,-26 -6,-30 l 8,-2 h 1 c 1,1 3,5 3,10 v 5 c 0,4 -1,7 0,15 2,12 13,24 20,30 -4,1 -8,1 -12,3 1,-12 -8,-24 -14,-31 z m -29,-60 c 8,2 12,6 15,8 -4,-2 -11,-4 -20,-6 -15,-3 -22,-13 -26,-19 4,1 7,2 8,3 2,2 8,9 23,14 z m -6,-26 h 1 c 4,1 7,3 10,4 1,1 4,4 7,13 l -2,-1 c -3,-2 -7,-4 -9,-7 -4,-3 -6,-7 -7,-9 z m 3,12 c 3,3 7,6 10,8 3,1 7,4 7,5 l 1,3 c -3,-2 -7,-5 -13,-6 -13,-4 -19,-10 -20,-12 1,-3 3,-7 7,-10 2,3 4,8 8,12 z m 8,25 1,-1 c 10,3 11,5 12,7 0,3 1,7 2,11 -2,4 -9,20 6,36 7,7 14,19 13,28 -2,1 -5,2 -7,4 0,-8 -5,-17 -16,-26 -17,-16 -12,-32 -9,-42 l 1,-4 c 1,-6 -1,-11 -3,-13 z m 54,69 c 7,6 15,10 23,12 l -5,2 -1,-1 c -5,-2 -9,-4 -14,-4 -3,-3 -21,-17 -22,-32 -1,-7 -1,-10 -1,-14 l 1,-5 c 0,-4 -1,-8 -3,-11 l 4,-1 c 1,2 5,10 4,26 0,9 5,19 14,28 z m -90,-18 c -1,-3 -3,-4 -6,-5 6,-2 11,-5 15,-6 l 3,-2 1,-3 -3,-1 -3,1 c -9,4 -31,14 -39,14 -4,0 -6,-1 -8,-3 -2,-2 -2,-5 -2,-6 1,-3 1,-6 0,-9 -1,-2 -4,-3 -6,-3 l 1,-3 4,-1 3,-2 -3,-3 c -3,1 -5,1 -6,2 l -3,-3 c 2,-3 2,-6 2,-8 h 1 l 4,-2 1,-3 -2,-2 -2,2 h -1 -4 l -4,1 c -2,1 -3,1 -6,1 h -2 v -4 c 0,0 2,-6 3,-11 5,-14 6,-18 6,-19 0,-2 -2,-10 -3,-15 19,4 39,9 53,13 2,3 8,15 22,21 v 1 c 0,0 2,3 5,4 2,0 4,0 6,-1 l 5,1 c -5,6 -10,5 -11,5 l -2,2 2,3 c 0,0 6,1 12,-4 1,2 2,5 2,9 l -2,4 c -3,10 -9,28 11,46 11,9 16,18 14,25 -3,2 -6,4 -9,6 -22,13 -43,21 -66,25 -11,1 -20,2 -30,3 -7,1 -14,2 -22,3 9,-13 18,-22 28,-26 4,-1 12,-2 19,-2 5,0 9,0 12,-1 7,-2 10,-5 13,-9 2,-5 -2,-30 -3,-35 z m -87,151 c 6,-5 32,-39 33,-41 v -3 h -3 c -1,1 -24,32 -32,40 -11,-8 -19,-8 -24,-7 2,-11 9,-44 27,-46 10,-2 17,-3 22,-3 10,-2 17,-3 31,-5 23,-5 59,-22 73,-34 4,-2 7,-4 11,-6 15,-9 25,-14 33,-15 -7,5 -20,16 -33,35 l -12,18 -1,1 c -2,2 -46,50 -60,65 l -14,14 c -12,13 -25,26 -29,32 l -4,4 c -3,5 -8,11 -13,17 -12,-18 -14,-58 -5,-66 z m -144,-165 c 0,-4 0,-7 0,-9 l 1,4 1,1 c 1,5 4,14 3,22 l 2,3 2,-2 c 1,-7 0,-13 -1,-18 -1,-2 -4,-20 3,-34 3,-7 5,-13 5,-18 3,6 6,16 3,33 l 1,3 3,-1 1,-2 c -1,3 -2,8 -2,13 0,6 2,10 3,16 3,8 5,16 4,26 -1,12 -5,16 -9,22 l -1,1 h -17 c -1,-2 -9,-12 -8,-24 1,-6 2,-9 3,-13 2,-4 3,-9 3,-16 0,-3 0,-5 0,-7 z m -122,56 c 0,4 2,7 6,10 4,2 8,3 16,4 l 37,1 3,-3 -3,-2 -23,-1 -1,-2 124,2 v 2 c -1,1 -3,3 -7,4 l -2,2 c 0,0 -1,12 -12,12 h -1 c -4,-1 -10,-2 -17,-2 -10,1 -21,3 -23,3 -4,0 -29,-2 -34,-3 -6,-2 -9,0 -10,1 l -6,-2 c -5,-1 -9,1 -10,2 -6,-2 -10,-1 -12,0 l -2,2 c -17,-3 -26,-8 -32,-17 -6,-11 -3,-24 8,-30 6,-4 13,-4 19,-1 2,1 4,3 6,5 -3,-2 -5,-3 -7,-3 -6,-1 -12,3 -14,5 -2,3 -4,7 -3,11 z m 261,162 -7,8 c -12,13 -23,26 -32,26 -12,0 -38,-25 -46,-41 -3,-3 -8,-13 -14,-25 -19,-37 -37,-70 -48,-75 -6,-3 -34,-6 -38,-6 -20,-6 -43,-14 -49,-17 1,0 3,-1 10,1 l 2,-1 c 0,0 2,-2 7,-1 l 7,1 h 2 c 0,0 2,-2 7,-1 6,2 33,4 35,4 0,0 12,-3 23,-3 21,-1 23,7 24,11 v 1 c 1,6 7,13 7,13 4,7 16,22 47,52 8,8 15,15 20,21 l 1,1 c 11,15 14,24 14,24 l 3,2 1,-3 c 0,-1 -3,-10 -14,-25 6,-12 14,-24 16,-27 2,0 11,-1 22,6 -7,10 -6,35 0,54 z m 1,499 c 2,7 3,14 3,19 h -169 v -19 z m -166,-23 h 15 v 20 h -15 z m 131,0 h 16 v 20 h -16 z m -45,0 h 18 v 20 h -18 z m -44,0 h 17 v 20 h -17 z m -24,0 h 21 v 20 h -21 z m -6,-3 v -36 c 0,-9 7,-16 16,-16 9,0 17,7 17,16 v 36 z m 50,3 h 22 v 20 h -22 z m -6,-3 v -36 c 0,-9 8,-16 17,-16 9,0 16,7 16,16 v 36 z m 50,3 h 22 v 20 h -22 z m -5,-3 v -36 c 0,-9 7,-16 16,-16 9,0 16,7 16,16 v 36 z m 61,3 c 1,6 3,13 4,20 h -16 v -20 z m -18,-3 v -36 c 0,-5 3,-10 7,-13 2,12 5,24 7,32 l 2,8 c 0,2 1,5 2,9 z m 3,-66 c 1,5 2,10 3,15 -5,3 -8,9 -8,15 v 36 h -6 v -36 c 0,-10 -9,-19 -19,-19 -10,0 -19,9 -19,19 v 36 h -6 v -36 c 0,-10 -9,-19 -19,-19 -11,0 -19,9 -19,19 v 36 h -7 v -36 c 0,-10 -8,-19 -19,-19 -10,0 -18,9 -18,19 v 36 h -10 v -66 z m -2,-14 1,5 1,7 h -147 v -12 z m -109,-31 v 29 h -23 v -29 c 0,-7 5,-12 11,-12 7,0 12,5 12,12 z m 33,0 v 29 h -23 v -29 c 0,-7 5,-12 12,-12 6,0 11,5 11,12 z m 34,0 v 29 h -24 v -29 c 0,-7 6,-12 12,-12 6,0 12,5 12,12 z m 33,0 v 29 h -23 v -29 c 0,-7 5,-12 11,-12 7,0 12,5 12,12 z m 9,29 h -7 v -29 c 0,-8 -6,-14 -14,-14 -7,0 -14,6 -14,14 v 29 h -5 v -29 c 0,-8 -6,-14 -14,-14 -8,0 -14,6 -14,14 v 29 h -5 v -29 c 0,-8 -7,-14 -14,-14 -8,0 -14,6 -14,14 v 29 h -6 v -29 c 0,-8 -6,-14 -14,-14 -7,0 -14,6 -14,14 v 29 h -10 v -62 l 11,5 v 1 h 133 c 0,3 0,7 0,9 v 8 c 0,11 0,24 1,39 z m 19,72 -2,-8 c -3,-14 -9,-41 -11,-57 -3,-17 -3,-33 -3,-46 v -8 c 0,-8 -1,-22 -1,-33 -1,-7 -1,-14 -1,-16 0,-6 -1,-12 -1,-13 -1,-10 -2,-13 -2,-21 0,-9 3,-31 3,-31 l -2,-2 -1,-1 -3,-2 c -6,-9 3,-44 8,-59 2,0 3,1 6,1 8,0 18,-19 34,-51 l 3,-7 4,-9 c 13,-26 43,-88 49,-100 8,-14 61,-103 74,-119 2,-3 5,-6 7,-9 13,-17 31,-40 57,-44 h 7 c 3,0 5,0 8,0 26,4 33,14 35,19 -9,-3 -29,-8 -45,10 -22,24 -26,151 -26,152 0,8 -2,32 -4,45 -5,-18 -37,-44 -45,-50 1,-5 5,-24 8,-37 16,-69 38,-104 38,-104 l -1,-3 h -3 c 0,1 -22,36 -39,106 -1,9 -7,37 -7,39 v 2 c 3,2 7,5 10,8 -2,11 -17,89 -24,113 -7,25 -23,65 -29,78 -7,14 -32,58 -42,73 -8,12 -32,48 -30,100 l 2,3 2,-3 c -1,-51 22,-86 29,-97 11,-16 36,-60 43,-74 6,-13 22,-53 30,-79 6,-22 20,-93 23,-110 15,13 33,31 31,41 -2,16 -13,26 -21,33 l -3,3 c -7,7 -24,38 -26,62 -2,21 -2,62 15,100 6,16 15,33 23,47 5,10 10,19 11,24 3,9 5,22 -1,43 l -11,36 c -3,6 -5,11 -5,17 -7,31 -23,86 -37,99 -11,10 -20,11 -34,12 -4,0 -9,0 -14,1 -21,3 -30,14 -38,24 l -2,3 c -6,7 -12,23 -16,35 -2,5 -3,9 -4,10 -1,2 -4,4 -8,4 -3,-1 -6,-4 -8,-9 -5,-16 -4,-35 -3,-42 1,-7 3,-32 3,-43 0,-11 -8,-46 -10,-56 z m 185,251 h -21 c 6,-3 12,-6 18,-10 0,2 1,6 3,10 z m 0,-19 c -23,21 -52,21 -65,21 h -1 c -13,0 -39,-4 -57,-21 -18,-16 -27,-18 -33,-18 l -2,-1 h -1 c -1,-1 0,-6 1,-9 1,-4 2,-7 2,-11 0,-8 -2,-34 -3,-41 l 4,-4 c 1,-1 2,-5 4,-11 4,-11 10,-27 15,-33 l 3,-4 c 7,-9 16,-19 34,-22 5,0 10,-1 15,-1 13,-1 24,-2 36,-13 12,-11 25,-49 33,-81 2,15 6,30 9,44 2,7 4,13 5,18 4,17 6,40 8,62 3,36 7,71 17,84 -10,2 -19,9 -28,22 l 1,3 h 3 c 9,-14 19,-21 29,-21 l 5,2 c 3,4 3,10 3,14 -8,-2 -15,0 -37,21 z m 56,13 v 1 l -2,2 v 5 l -2,2 -2,1 -1,1 v 5 l -2,1 v -1 l -3,-1 -1,2 1,3 -2,4 -4,2 c 0,-5 -3,-9 -3,-9 h -3 l -1,3 c 1,1 3,4 2,7 v 2 c 0,0 -1,3 -5,3 -9,0 -12,-11 -12,-12 0,-3 -3,-7 -3,-8 h -1 c -10,-8 -11,-18 -11,-21 l 2,-2 c 23,-21 27,-21 35,-20 v 1 c 0,0 7,8 13,17 7,9 5,12 5,12 z m 1,-12 h 33 l 16,18 h -47 v -3 c 1,-1 4,-5 -2,-15 z m 34,-99 h -4 c 0,-8 1,-39 1,-77 h 245 c -65,70 -149,123 -240,151 v -71 z m 315,-176 c -6,10 -12,20 -18,30 v -14 c 0,-9 7,-16 16,-16 z m -2,-3 c -10,0 -19,9 -19,19 v 17 c -2,4 -4,7 -7,10 v -27 c 0,-10 -8,-19 -18,-19 -11,0 -19,9 -19,19 v 36 h -7 v -36 c 0,-10 -8,-19 -19,-19 -10,0 -18,9 -18,19 v 36 h -7 v -36 c 0,-10 -9,-19 -19,-19 -10,0 -19,9 -19,19 v 36 h -7 v -36 c 0,-10 -8,-19 -18,-19 -11,0 -19,9 -19,19 v 36 h -7 v -36 c 0,-10 -8,-19 -19,-19 -10,0 -18,9 -18,19 v 36 h -7 v -36 c 0,-10 -9,-19 -19,-19 -10,0 -19,9 -19,19 v 36 h -7 v -36 c 0,-10 -8,-19 -18,-19 l -5,1 c 0,-4 0,-8 0,-12 h 325 c -2,4 -4,8 -7,12 z m 37,-68 c -4,9 -7,17 -11,25 v -13 c 0,-6 5,-11 11,-12 z m -13,12 v 18 c -2,4 -4,7 -5,11 h -1 v -29 c 0,-8 -6,-14 -14,-14 -7,0 -14,6 -14,14 v 29 h -5 v -29 c 0,-8 -6,-14 -14,-14 -8,0 -14,6 -14,14 v 29 h -5 v -29 c 0,-8 -7,-14 -14,-14 -8,0 -14,6 -14,14 v 29 h -6 v -29 c 0,-8 -6,-14 -14,-14 -7,0 -14,6 -14,14 v 29 h -5 v -29 c 0,-8 -6,-14 -14,-14 -8,0 -14,6 -14,14 v 29 h -6 v -29 c 0,-8 -6,-14 -14,-14 -7,0 -13,6 -13,14 v 29 h -6 v -29 c 0,-8 -6,-14 -14,-14 -8,0 -14,6 -14,14 v 29 h -5 v -29 c 0,-8 -6,-14 -14,-14 -8,0 -14,6 -14,14 v 29 h -6 v -29 c 0,-8 -6,-14 -14,-14 -7,0 -14,6 -14,14 v 29 h -5 v -29 c 0,-8 -6,-14 -14,-14 -8,0 -14,6 -14,14 v 29 h -5 v -14 c 1,-12 3,-30 10,-42 h 348 c -2,4 -4,8 -5,13 -8,0 -14,6 -14,14 z m -964,-30 h -48 c -1,-2 -2,-5 -3,-7 h 51 l 1,-1 98,-54 99,54 v 1 h 132 c 0,2 0,5 0,7 h -131 l -12,-6 -87,-47 h -1 z m 1,59 v -29 c 0,-8 -6,-14 -14,-14 -8,0 -14,6 -14,14 v 20 c -7,-15 -15,-31 -21,-47 h 48 l 1,-1 10,-5 v 62 z m -24,0 -2,-4 h 1 v -25 c 0,-7 5,-12 11,-12 7,0 12,5 12,12 v 29 z m 34,16 v 43 c -9,-14 -17,-28 -25,-43 z m -26,-2 c -2,-4 -4,-8 -6,-12 h 32 v 12 z m 980,-754 c -133,-133 -309,-206 -497,-206 -188,0 -364,73 -497,206 -134,133 -207,309 -207,497 0,187 73,364 207,497 133,133 309,207 497,207 188,0 364,-74 497,-207 133,-133 206,-310 206,-497 0,-188 -73,-364 -206,-497 z m -727,-38 c -7,3 -13,4 -17,1 -4,-2 -6,-6 -8,-12 l -20,-47 c -2,-6 -3,-9 -3,-10 1,-1 5,-4 12,-7 33,-14 50,7 55,21 10,23 6,44 -19,54 z m -9,-86 c -10,0 -19,3 -30,8 -10,4 -20,9 -31,14 l 2,3 2,-1 c 6,-1 8,1 12,10 l 19,48 c 6,13 6,15 -1,19 l -2,1 1,3 c 6,-2 11,-4 16,-7 4,-2 13,-4 21,-7 10,-4 19,-10 26,-18 11,-14 13,-31 6,-47 -7,-16 -22,-27 -41,-26 z m 98,56 -3,1 c -8,1 -9,-1 -13,-15 l -13,-47 c -4,-13 -4,-16 3,-19 l 3,-1 -1,-3 c -6,2 -11,4 -16,5 -6,2 -10,3 -17,4 l 1,4 3,-1 c 8,-2 9,1 13,14 l 13,47 c 4,14 4,16 -3,19 l -3,1 1,4 c 6,-2 11,-4 16,-5 6,-2 10,-3 17,-5 z m 534,118 c 11,-17 26,-37 34,-49 6,-7 8,-9 15,-4 l 3,1 2,-3 c -4,-2 -7,-5 -10,-7 -2,-1 -5,-3 -8,-6 -4,5 -12,8 -24,15 l -26,13 c -7,3 -14,7 -21,10 1,-7 3,-14 4,-21 l 6,-34 c 2,-10 5,-19 8,-23 -4,-2 -7,-4 -9,-6 -3,-2 -5,-4 -9,-7 l -2,3 2,1 c 6,6 5,8 0,15 -5,6 -12,15 -20,23 -8,11 -13,16 -19,23 -7,7 -9,7 -14,4 l -3,-2 -1,3 c 3,3 8,6 11,8 4,3 8,7 12,10 l 2,-3 -4,-3 c -4,-4 -3,-6 3,-14 7,-9 14,-19 20,-25 5,-6 10,-12 15,-19 h 1 c -2,7 -4,14 -5,21 l -6,29 c -2,7 -4,21 -7,29 l 1,1 h 1 c 6,-3 18,-10 31,-16 l 24,-12 c 5,-2 16,-8 17,-9 l 1,1 -34,45 c -5,7 -7,9 -12,6 l -4,-2 -2,2 c 5,4 10,7 14,10 4,3 8,6 12,10 l 3,-3 -4,-3 c -4,-4 -2,-7 2,-12 z m -758,-6 -4,2 c -6,5 -8,3 -17,-8 l -40,-46 c -3,-3 -3,-3 0,-6 l 8,-6 c 5,-5 10,-7 14,-8 2,0 6,3 9,6 l 2,-3 c -3,-3 -9,-12 -11,-17 l -3,1 c 1,4 0,5 -5,10 l -42,36 c -5,4 -8,7 -12,4 l -2,2 c 3,5 7,13 10,19 l 3,-2 c -1,-3 -2,-6 -1,-11 0,-4 6,-9 10,-13 l 6,-5 c 3,-3 3,-3 6,0 l 39,47 c 10,11 10,13 5,18 l -3,4 2,2 c 6,-6 10,-9 14,-12 4,-4 8,-7 14,-12 z m 280,-122 c -26,4 -40,-20 -43,-40 -4,-30 12,-42 27,-44 25,-4 39,19 42,41 4,26 -10,41 -26,43 z m -15,-89 c -28,4 -45,28 -41,55 4,24 25,43 55,39 26,-4 44,-27 40,-54 -4,-24 -23,-44 -54,-40 z m 95,40 c -7,0 -9,0 -9,0 0,-1 0,-3 0,-5 v -32 c 0,-4 1,-4 9,-4 15,0 22,10 22,21 -1,10 -4,14 -8,17 -4,3 -9,3 -14,3 z m 53,45 c -3,0 -7,-2 -9,-4 -9,-8 -16,-19 -27,-37 v -3 c 6,-3 17,-10 17,-23 0,-9 -5,-15 -11,-19 -6,-3 -14,-4 -23,-4 -13,-1 -22,0 -30,0 v 4 h 4 c 6,1 6,3 6,16 l -1,49 c 0,15 -1,16 -8,17 l -4,1 v 3 c 7,0 12,0 17,0 6,0 11,0 17,0 v -3 h -3 c -8,-2 -8,-3 -8,-18 v -17 c 0,-3 1,-3 7,-3 5,0 8,2 10,5 4,6 9,16 13,21 9,14 16,17 28,17 2,0 4,0 6,0 z m 92,-70 c 1,-1 4,-2 7,-2 h 3 l 1,-3 c -5,-1 -9,-1 -15,-2 -5,-1 -10,-2 -15,-3 l -1,4 h 4 c 3,1 5,2 6,4 2,5 0,20 -2,29 l -2,15 c -3,20 -13,35 -33,32 -20,-3 -25,-19 -21,-40 l 4,-30 c 2,-14 3,-16 11,-15 h 3 v -3 c -6,-1 -11,-2 -16,-2 -6,-1 -10,-2 -17,-3 l -1,3 4,1 c 7,1 7,4 5,18 l -5,32 c -2,16 0,26 6,33 6,7 15,10 24,11 10,2 20,0 27,-6 9,-7 13,-19 14,-30 l 3,-16 c 1,-7 3,-23 6,-27 z m 119,30 c -3,0 -6,-1 -10,-3 -2,6 -8,11 -18,21 l -21,21 c -5,5 -11,11 -16,16 -2,-7 -2,-14 -3,-21 l -5,-35 c -1,-10 -2,-19 1,-24 -5,-1 -8,-2 -11,-3 -3,-1 -6,-2 -10,-4 l -2,3 2,1 c 8,4 8,6 5,14 -3,7 -7,18 -11,29 -5,12 -8,19 -12,27 -4,9 -6,9 -12,8 l -3,-1 -1,4 c 5,1 10,2 14,4 5,2 10,3 14,5 l 1,-3 -5,-2 c -4,-2 -5,-5 -1,-14 3,-11 8,-22 11,-30 3,-7 6,-15 9,-23 v 1 c 1,6 2,14 2,21 l 3,29 c 1,7 3,22 3,29 l 1,1 h 1 c 5,-5 15,-15 24,-24 l 19,-19 c 5,-4 13,-13 15,-14 l -18,54 c -3,8 -4,10 -10,9 l -4,-1 -1,3 c 6,2 11,4 16,5 4,2 10,4 15,6 l 1,-3 -4,-2 c -6,-3 -4,-6 -2,-13 5,-19 13,-43 17,-56 3,-9 5,-11 14,-9 h 2 l 1,-3 c -4,-1 -8,-2 -11,-4 z m 369,455 -48,11 c -14,3 -15,3 -18,-4 l -1,-4 -4,1 c 2,7 4,12 5,17 l 3,12 c 3,14 6,27 7,34 4,1 18,1 20,1 v -4 c -8,-1 -13,-3 -15,-5 -2,-2 -3,-5 -6,-16 -2,-11 -1,-14 0,-15 2,-3 5,-5 14,-6 l 46,-11 c 14,-3 16,-3 18,4 l 1,3 4,-1 c -2,-6 -3,-11 -4,-16 -2,-5 -3,-10 -4,-17 h -3 v 4 c 1,8 -1,9 -15,12 z m -1056,-260 c -10,-9 -22,-8 -31,-5 l -13,4 c -5,1 -14,2 -20,-3 -5,-4 -9,-12 0,-22 9,-10 18,-7 24,-4 l 2,-2 c -5,-4 -11,-8 -14,-10 l -4,3 c -3,2 -7,5 -10,8 -13,14 -12,28 -1,37 8,7 19,7 27,5 l 15,-4 c 11,-3 17,0 22,4 6,6 8,15 0,23 -11,12 -25,7 -31,4 l -2,3 c 5,4 13,9 17,10 2,-1 10,-4 18,-12 12,-13 12,-29 1,-39 z m 1049,367 24,7 c 4,1 8,3 8,3 -1,1 -5,3 -8,4 l -22,9 c -3,1 -4,1 -4,-3 l -1,-17 c -1,-3 0,-4 3,-3 z m -35,-16 c -5,-2 -7,-5 -7,-8 l -1,-4 h -3 c 0,4 1,9 1,13 0,7 1,11 1,14 h 3 v -4 c 0,-3 1,-4 3,-4 1,0 5,0 11,2 l 15,4 c 2,0 3,1 3,5 l 2,20 c 0,4 -1,5 -3,6 l -19,7 c -3,2 -5,2 -7,3 -1,0 -2,-2 -2,-5 l -1,-4 -3,1 c 0,3 1,9 1,15 0,6 1,11 1,17 l 3,-1 v -3 c 1,-6 2,-8 14,-13 l 53,-22 c 6,-3 12,-5 18,-8 l 1,-2 c -2,-1 -4,-3 -5,-6 -3,0 -5,0 -10,-2 l -38,-11 c -16,-5 -25,-8 -31,-10 z m -890,-485 c -4,-7 -12,-20 -13,-25 -1,-2 1,-4 4,-6 l 2,-2 -1,-3 c -5,3 -8,5 -12,8 -5,3 -9,5 -14,8 l 2,3 3,-2 c 3,-1 5,-2 7,-1 4,2 13,15 17,23 l 8,13 c 11,17 13,35 -4,45 -17,11 -31,2 -42,-16 l -16,-25 c -7,-12 -8,-14 -2,-19 l 3,-2 -2,-3 c -6,4 -10,7 -14,10 -5,2 -9,5 -15,8 l 2,3 3,-2 c 7,-3 8,-1 16,11 l 17,27 c 8,14 16,20 26,22 8,1 17,-3 25,-7 9,-6 16,-14 17,-23 2,-11 -3,-22 -9,-32 z m -361,607 c -1,-15 9,-23 20,-23 9,-1 14,2 17,5 3,4 4,9 4,14 1,7 1,9 0,10 0,0 -2,0 -4,0 l -32,2 c -4,1 -4,0 -5,-8 z m 2,26 c 1,-6 3,-7 16,-7 l 49,-3 c 14,-1 16,-1 17,7 l 1,3 h 3 c 0,-7 -1,-12 -1,-17 0,-6 -1,-10 -1,-17 h -3 v 3 c -1,8 -3,9 -17,9 l -17,2 c -3,0 -3,-1 -3,-7 -1,-5 0,-7 3,-10 6,-4 15,-10 20,-14 13,-11 16,-18 15,-29 0,-3 0,-5 -1,-6 h -1 c -1,4 -2,7 -4,10 -7,9 -17,17 -34,29 l -3,1 c -4,-7 -11,-16 -24,-16 -10,1 -15,6 -19,13 -3,6 -3,14 -2,23 1,13 2,22 3,30 h 3 z m 159,-405 c -12,-7 -23,-4 -32,1 l -12,6 c -5,2 -13,5 -20,1 -6,-3 -12,-10 -5,-22 7,-11 16,-10 23,-8 l 1,-3 c -5,-3 -12,-6 -15,-6 l -3,3 c -3,3 -6,7 -8,10 -10,16 -6,30 5,36 10,6 21,3 28,0 l 14,-7 c 11,-5 17,-3 22,0 8,4 12,13 6,23 -9,13 -24,11 -31,9 l -1,3 c 6,4 15,7 18,7 3,-1 11,-6 17,-16 9,-15 6,-30 -7,-37 z m -143,497 -1,-2 c 0,-8 2,-9 16,-12 l 48,-10 c 14,-3 16,-2 18,5 l 1,4 4,-1 c -2,-7 -3,-12 -4,-18 l -3,-12 c -2,-12 -5,-23 -7,-36 -4,0 -15,-2 -20,-2 v 4 c 8,2 13,4 15,7 2,2 3,6 6,16 2,12 1,15 0,17 -2,3 -7,4 -14,5 l -19,4 c -3,1 -3,1 -4,-3 l -2,-8 c -1,-5 -1,-9 -1,-11 0,-2 2,-4 4,-5 l 5,-2 -1,-3 c -3,0 -8,2 -12,3 -5,1 -11,1 -14,2 l 1,3 h 5 c 4,0 5,1 6,3 1,1 2,5 3,11 l 1,8 c 1,4 1,4 -3,5 l -26,5 c -5,1 -6,1 -6,-3 l -2,-9 c -2,-6 -2,-10 -2,-13 0,-8 5,-10 10,-13 l -1,-3 c -5,1 -15,4 -17,5 1,2 3,10 4,18 l 5,25 c 1,6 2,10 3,16 z m -14,-261 1,-3 c 2,-8 4,-8 18,-5 l 48,8 c 14,2 16,3 16,11 v 3 l 3,1 c 1,-7 2,-12 3,-17 0,-6 1,-10 3,-17 l -4,-1 v 4 c -3,7 -5,7 -19,5 l -48,-8 c -14,-3 -16,-3 -16,-11 l 1,-4 h -4 c 0,7 -1,11 -2,17 -1,5 -2,10 -3,17 z m 12,69 c 11,0 19,-7 24,-13 l 10,-13 c 7,-9 14,-10 20,-9 8,0 15,6 14,18 -1,16 -15,20 -22,22 v 3 c 7,0 16,-1 19,-2 2,-3 6,-10 7,-21 1,-18 -8,-30 -23,-31 -13,-1 -21,7 -27,15 l -8,11 c -3,4 -10,10 -17,10 -7,-1 -15,-4 -14,-17 1,-14 10,-17 16,-18 v -3 c -6,-1 -13,0 -17,1 l -1,5 c -1,3 -2,8 -2,12 -2,18 8,29 21,30 z m 154,426 c -5,5 -18,16 -22,17 -2,1 -5,0 -7,-2 l -3,-3 -2,3 c 3,3 6,6 10,10 3,4 7,8 10,12 l 3,-2 -2,-3 c -3,-3 -3,-5 -3,-7 2,-4 14,-15 20,-21 l 12,-10 c 15,-14 32,-19 45,-5 14,16 8,31 -8,45 l -22,20 c -11,10 -12,11 -18,6 l -3,-2 -2,2 c 5,5 8,8 12,12 3,4 6,8 11,13 l 2,-2 -2,-3 c -5,-6 -3,-8 7,-18 l 24,-21 c 12,-11 17,-20 17,-30 0,-9 -5,-17 -12,-24 -7,-7 -16,-12 -25,-12 -11,0 -21,7 -30,15 z m -61,-579 -2,4 c -2,8 -4,7 -18,4 l -58,-17 c -5,-2 -5,-1 -4,-5 l 3,-10 c 2,-7 4,-12 7,-14 2,-1 8,-1 11,0 l 1,-4 c -4,-1 -15,-5 -20,-8 l -1,3 c 3,3 3,4 1,11 l -15,53 c -2,6 -3,10 -8,10 v 2 c 5,3 13,7 18,11 l 2,-3 c -3,-3 -6,-5 -8,-9 -2,-4 0,-11 2,-17 l 2,-7 c 1,-4 1,-4 5,-3 l 59,17 c 13,4 15,5 14,13 l -1,5 3,1 c 2,-9 3,-13 5,-18 1,-6 3,-10 5,-17 z m -12,-72 -7,15 c -1,4 -2,4 -4,2 l -18,-17 c -4,-3 -6,-6 -7,-7 h 1 c 1,0 5,0 9,1 l 23,2 c 4,0 4,0 3,4 z m 49,-21 -1,4 c -3,5 -6,5 -18,4 l -58,-4 c -6,-1 -13,-1 -19,-2 l -2,2 c 1,2 2,5 2,8 2,1 4,2 8,6 l 28,27 c 12,12 19,19 23,23 4,4 4,8 3,11 l -1,4 3,1 c 1,-3 3,-8 5,-12 3,-6 4,-10 6,-13 l -3,-2 -2,4 c -2,3 -3,4 -4,3 -2,-1 -5,-3 -10,-7 l -11,-10 c -2,-2 -2,-3 -1,-6 l 8,-19 c 2,-4 3,-4 6,-4 l 19,2 c 4,0 6,0 7,1 2,0 2,3 1,5 l -1,4 3,1 c 1,-4 3,-8 6,-14 2,-6 4,-10 7,-15 z m -36,585 c -5,3 -19,13 -25,14 -1,0 -3,-2 -6,-5 l -1,-2 -3,2 c 3,4 4,7 8,12 3,4 5,8 8,14 l 3,-2 -1,-2 c -2,-5 -3,-7 -2,-9 2,-4 17,-14 22,-17 l 25,-16 c 2,-2 4,-3 5,-3 -2,9 -5,19 -9,33 l -5,19 c -2,6 -8,30 -13,36 l 4,5 c 2,2 5,8 8,13 l 3,-2 -1,-2 c -1,-3 -2,-6 -2,-9 1,-4 4,-6 7,-8 l 34,-21 c 5,-4 19,-13 25,-14 1,0 3,1 5,4 l 2,3 3,-2 c -3,-4 -5,-7 -8,-12 -3,-4 -5,-8 -8,-14 l -3,2 2,4 c 1,3 2,5 1,7 -2,4 -17,14 -22,17 l -26,17 c -3,2 -6,3 -8,4 1,-5 5,-18 7,-24 l 13,-46 c 5,-17 7,-23 9,-26 l -4,-1 c -3,2 -16,11 -20,13 z m -48,-124 c -15,-1 -27,-2 -34,-4 -3,-1 -6,-2 -7,-5 l -2,-4 -3,2 c 2,4 3,8 5,12 2,5 3,10 4,13 h 4 l -1,-3 c -1,-4 0,-6 1,-7 0,0 2,0 5,0 6,0 23,1 33,2 8,0 23,1 33,2 -13,11 -25,23 -38,34 -8,7 -15,12 -16,13 -1,0 -2,-1 -4,-6 l -1,-1 -3,1 c 2,5 4,10 6,15 1,6 3,10 4,14 l 3,-1 v -2 c -2,-6 0,-9 6,-15 l 48,-42 c 5,-4 10,-9 15,-12 v -2 l -1,-1 c -8,0 -25,-1 -38,-2 z m 59,67 -43,21 c -13,7 -16,7 -20,1 l -1,-3 -3,1 c 3,6 5,10 7,15 3,6 5,10 7,16 l 4,-1 -2,-3 c -2,-8 -1,-9 12,-15 l 44,-22 c 13,-6 15,-7 19,0 l 2,3 3,-2 c -3,-6 -5,-10 -8,-15 -2,-5 -4,-9 -7,-15 l -3,1 1,3 c 3,8 1,9 -12,15 z m 1174,-32 -1,2 c -2,3 -4,5 -7,6 -4,2 -7,1 -10,-1 l -36,-16 c -6,-2 -21,-9 -25,-13 -1,-1 -1,-3 0,-6 l 1,-4 -3,-1 c -2,4 -3,8 -6,13 -2,5 -4,9 -6,14 l 3,2 2,-4 c 1,-3 3,-5 5,-5 5,0 21,7 27,9 l 27,12 c 4,2 6,3 8,5 -4,1 -18,5 -24,7 l -45,14 c -18,6 -24,7 -26,8 v 3 c 3,1 18,7 22,9 l 30,13 c 5,3 21,9 25,13 0,1 0,4 -1,9 v 1 l 3,2 c 1,-5 3,-8 5,-13 2,-5 4,-9 7,-15 l -3,-2 -1,3 c -3,4 -5,6 -6,6 -5,1 -21,-6 -27,-9 l -27,-12 c -2,-1 -4,-2 -5,-3 9,-3 19,-6 32,-10 l 19,-6 c 7,-2 30,-10 37,-9 l 2,-6 c 1,-3 4,-9 7,-14 z m -170,199 -15,3 c -12,3 -17,-1 -22,-5 -6,-5 -7,-15 1,-23 10,-12 24,-6 31,-3 l 2,-3 c -5,-4 -14,-9 -17,-10 -3,1 -10,4 -18,12 -12,13 -13,28 -2,38 10,9 21,8 31,6 l 12,-3 c 6,-2 15,-3 21,3 4,4 9,12 -1,22 -9,9 -18,6 -24,3 l -2,2 c 5,4 11,9 14,10 l 4,-3 c 3,-2 7,-5 10,-8 12,-13 12,-27 2,-36 -8,-8 -19,-7 -27,-5 z m 83,-631 c -9,-25 12,-44 30,-51 28,-11 44,3 49,16 9,24 -10,42 -31,50 -25,10 -42,0 -48,-15 z m 57,27 c 23,-9 38,-32 27,-61 -10,-26 -37,-38 -63,-28 -23,9 -36,33 -25,62 9,24 36,37 61,27 z m -61,573 -2,2 c -5,6 -7,5 -19,-4 l -38,-29 c -12,-9 -13,-11 -9,-18 l 2,-2 -3,-2 c -4,5 -7,9 -10,14 -4,4 -7,7 -11,13 l 3,2 2,-2 c 6,-6 7,-5 19,3 l 38,30 c 12,9 13,10 9,17 l -2,3 3,2 c 4,-6 7,-9 10,-14 4,-4 6,-8 11,-13 z m 22,-66 c -10,-6 -20,-4 -28,0 l -14,6 c -11,5 -17,3 -22,-1 -7,-4 -10,-13 -4,-22 8,-14 23,-11 29,-9 l 2,-3 c -6,-4 -15,-7 -18,-7 -3,1 -10,5 -16,15 -9,15 -7,30 6,38 11,7 22,4 31,-1 l 12,-5 c 5,-3 14,-5 20,-1 5,3 11,11 4,22 -7,11 -16,9 -23,7 l -1,3 c 5,3 12,6 15,7 l 3,-3 c 3,-3 6,-7 9,-10 9,-15 6,-29 -5,-36 z m 110,-306 h -3 v 2 c -1,3 -2,6 -5,8 -3,3 -6,2 -10,2 l -39,-4 c -6,-1 -23,-2 -28,-5 -1,-1 -2,-3 -2,-6 v -4 h -3 c 0,5 -1,9 -1,14 -1,5 -1,10 -2,16 l 3,1 1,-4 c 1,-4 2,-6 3,-7 5,-2 22,0 29,0 l 29,4 c 4,0 7,0 9,1 -3,3 -16,11 -20,14 l -39,28 c -15,10 -20,14 -22,15 l 1,3 c 3,0 19,1 24,2 l 32,3 c 6,1 23,2 28,5 1,1 1,4 2,8 v 2 h 3 c 0,-5 1,-8 1,-14 1,-5 1,-10 2,-16 h -3 l -1,2 c -1,5 -2,7 -3,8 -4,2 -22,0 -28,0 l -29,-3 c -3,-1 -6,-1 -6,-1 v -1 c 7,-5 15,-11 27,-19 l 16,-12 c 5,-4 25,-18 32,-20 v -6 c 1,-3 1,-10 2,-16 z m -212,-406 c -7,2 -13,3 -16,2 -3,-1 -6,-4 -13,-11 -8,-9 -9,-12 -9,-15 0,-3 3,-6 8,-11 l 14,-13 c 3,-3 3,-3 6,0 l 5,6 c 4,4 6,6 7,8 1,3 1,5 -1,7 l -3,4 3,3 c 2,-2 5,-6 9,-10 4,-3 8,-6 10,-9 l -2,-2 -5,3 c -3,2 -4,1 -6,1 -1,-1 -4,-4 -8,-8 l -6,-6 c -2,-3 -3,-3 0,-6 l 20,-19 c 4,-3 4,-3 7,0 l 6,7 c 5,4 7,7 9,10 4,6 1,11 -2,16 l 2,3 c 4,-5 11,-12 12,-14 -2,-1 -7,-7 -13,-13 l -18,-19 c -4,-4 -7,-8 -10,-12 l -3,2 1,2 c 5,6 4,8 -7,18 l -35,33 c -11,10 -13,11 -18,6 l -4,-3 -2,3 c 6,5 9,8 13,13 l 8,9 c 9,8 17,17 25,27 4,-2 14,-7 18,-9 z m 195,520 -1,2 c -3,7 -5,7 -19,4 l -47,-13 c -14,-3 -16,-4 -15,-12 l 1,-5 h -3 c -2,8 -3,12 -5,18 l -3,12 c -3,12 -6,23 -9,35 3,3 12,9 17,11 l 2,-3 c -6,-5 -10,-10 -11,-13 -1,-3 0,-7 2,-17 3,-12 6,-14 8,-16 2,-1 7,0 14,1 l 19,5 c 3,1 3,2 2,5 l -2,8 c -1,5 -2,8 -3,10 -1,3 -4,3 -6,3 h -6 v 3 c 2,1 8,2 12,3 5,1 10,3 14,4 l 1,-3 -6,-3 c -3,-1 -3,-3 -3,-4 0,-2 0,-6 2,-12 l 2,-7 c 1,-4 1,-5 5,-4 l 26,7 c 5,1 5,1 4,5 l -2,10 c -2,6 -3,10 -4,12 -4,7 -9,7 -15,7 l -1,4 c 6,1 16,2 18,2 0,-2 2,-9 4,-18 l 7,-25 c 1,-5 2,-10 4,-15 z m -121,-411 43,-23 c 12,-7 14,-8 19,-1 l 2,3 3,-2 c -4,-6 -6,-10 -9,-15 -2,-5 -4,-9 -7,-15 l -4,1 2,4 c 3,7 1,8 -12,15 l -42,23 c -13,7 -15,7 -20,1 l -2,-3 -3,2 c 4,6 6,10 9,15 2,5 4,9 7,15 l 4,-2 -2,-3 c -3,-7 -1,-8 12,-15 z m -55,-57 c -5,-7 -7,-12 -5,-17 1,-4 5,-7 10,-11 l 42,-28 c 5,-4 8,-5 9,-5 1,0 5,3 9,10 21,30 4,50 -8,58 -21,15 -42,15 -57,-7 z m 64,18 c 15,-10 23,-26 18,-45 -2,-9 -7,-18 -14,-27 -6,-10 -13,-19 -20,-28 l -3,2 1,3 c 3,5 1,7 -7,12 l -42,30 c -12,8 -14,9 -19,3 l -2,-3 -3,3 c 4,5 7,9 10,13 3,4 7,12 12,19 6,9 14,17 23,22 15,8 32,6 46,-4 z m -609,-110 -1,-1 -2,-4 c 3,0 7,1 13,4 -4,1 -8,1 -10,1 z m 19,0 c -10,-7 -18,-10 -24,-9 h -1 l -2,1 h -1 v 2 l 2,1 2,4 -2,2 2,2 c 0,0 10,3 20,-1 l 1,1 3,-1 z m -182,689 c 2,0 5,2 5,5 0,3 -3,5 -5,5 -3,0 -6,-2 -6,-5 0,-3 3,-5 6,-5 z m 0,12 c 4,0 7,-3 7,-7 0,-4 -3,-8 -7,-8 -5,0 -8,4 -8,8 0,4 3,7 8,7 z m 87,-12 c 3,0 5,2 5,5 0,3 -2,5 -5,5 -3,0 -5,-2 -5,-5 0,-3 2,-5 5,-5 z m 0,12 c 4,0 8,-3 8,-7 0,-4 -4,-8 -8,-8 -4,0 -8,4 -8,8 0,4 4,7 8,7 z m -43,-12 c 3,0 5,2 5,5 0,3 -2,5 -5,5 -3,0 -5,-2 -5,-5 0,-3 2,-5 5,-5 z m 0,12 c 4,0 8,-3 8,-7 0,-4 -4,-8 -8,-8 -4,0 -8,4 -8,8 0,4 4,7 8,7 z m 370,-2 c -3,0 -5,-2 -5,-5 0,-3 2,-5 5,-5 3,0 5,2 5,5 0,3 -2,5 -5,5 z m 0,-13 c -4,0 -8,4 -8,8 0,4 4,7 8,7 4,0 7,-3 7,-7 0,-4 -3,-8 -7,-8 z m 44,13 c -3,0 -5,-2 -5,-5 0,-3 2,-5 5,-5 3,0 5,2 5,5 0,3 -2,5 -5,5 z m 0,-13 c -4,0 -8,4 -8,8 0,4 4,7 8,7 4,0 8,-3 8,-7 0,-4 -4,-8 -8,-8 z m 44,13 c -3,0 -5,-2 -5,-5 0,-3 2,-5 5,-5 3,0 6,2 6,5 0,3 -3,5 -6,5 z m 0,-13 c -4,0 -7,4 -7,8 0,4 3,7 7,7 5,0 8,-3 8,-7 0,-4 -3,-8 -8,-8 z m 45,13 c -3,0 -6,-2 -6,-5 0,-3 3,-5 6,-5 3,0 5,2 5,5 0,3 -2,5 -5,5 z m 0,-13 c -5,0 -8,4 -8,8 0,4 3,7 8,7 4,0 7,-3 7,-7 0,-4 -3,-8 -7,-8 z m 44,13 c -3,0 -5,-2 -5,-5 0,-3 2,-5 5,-5 3,0 5,2 5,5 0,3 -2,5 -5,5 z m 0,-13 c -4,0 -8,4 -8,8 0,4 4,7 8,7 4,0 8,-3 8,-7 0,-4 -4,-8 -8,-8 z m 44,13 c -3,0 -5,-2 -5,-5 0,-3 2,-5 5,-5 3,0 5,2 5,5 0,3 -2,5 -5,5 z m 0,-13 c -4,0 -7,4 -7,8 0,4 3,7 7,7 4,0 8,-3 8,-7 0,-4 -4,-8 -8,-8 z m 45,13 c -3,0 -6,-2 -6,-5 0,-3 3,-5 6,-5 2,0 5,2 5,5 0,3 -3,5 -5,5 z m 0,-13 c -5,0 -8,4 -8,8 0,4 3,7 8,7 4,0 7,-3 7,-7 0,-4 -3,-8 -7,-8 z"
   id="path13" />&#10;       </g>&#10;      </g>&#10;     </g>&#10;    </g>&#10;   </g>&#10;  </g>&#10; </g>&#10;</svg>
